<svg xmlns="http://www.w3.org/2000/svg" enable-background="new 0 0 3000 3000" viewBox="0 0 3000 3000"><pattern id="a" width="481.4" height="332.6" x="-12080" y="-6040" overflow="visible" patternUnits="userSpaceOnUse" viewBox=".1 -332.9 481.4 332.6"><rect width="481.4" height="332.6" x=".1" y="-332.9" fill="none"/><path fill="#58585b" d="M478.8-144.3l-47.1,80.4c-3.7,6.3-10.5,10.1-17.8,9.9l-6.8-0.2l-6.2-0.2l-33-1l-6.2-0.2l-30.4-0.9           l-6.2-0.2l-25.8-0.7c-7.3-0.2-13.1-6.3-12.9-13.6l3-103.7c0.4-15.3-11.7-28.2-27-28.6l-26.8-0.8c-2-0.1-3.5-1.7-3.4-3.7           c0.1-2,1.7-3.5,3.7-3.4l26.8,0.8c18,0.5,32.5,14.7,33.8,32.3l28.7,0.7l6.2,0.2l37.9,1l6.2,0.2l39.3,1l6.2,0.2l41.5,1.1h0.1           c7,0.2,13.2,3.9,16.6,10C482.4-157.6,482.3-150.3,478.8-144.3z M472.8-160.2c-2.2-3.9-6.1-6.3-10.5-6.4c0,0,0,0,0,0           l-42.2-1.1l-6.2-0.2l-38.9-1l-6.2-0.2l-37.5-1l-6.2-0.2l-28.7-0.7l-2.9,100.2c-0.1,3.4,2.6,6.2,6,6.3l25.6,0.7l6.2,0.2           l30.9,0.9l6.2,0.2l33.4,1l6.2,0.2l6.2,0.2c4.7,0.1,9.1-2.3,11.5-6.4l47.1-80.4C474.9-151.7,475-156.3,472.8-160.2z" class="color58595b svgShape"/><path fill="#58585b" d="M409.3-26.9L302.9-30c-7.9-0.2-14.1-6.8-13.9-14.7l0.5-18.8c0.1-2,1.7-3.5,3.6-3.4           c2,0.1,3.5,1.7,3.4,3.6l-0.5,18.8c-0.1,4,3,7.3,7,7.4L409.5-34c2,0.1,3.5,1.7,3.4,3.6C412.9-28.4,411.3-26.9,409.3-26.9z" class="color58595b svgShape"/><g><path fill="#58585b" d="M470.9-134.5l-179-5.2c-2-.1-3.5-1.7-3.4-3.6.1-2 1.7-3.5 3.6-3.4l179 5.2c2 .1 3.5 1.7 3.4 3.6C474.5-136 472.9-134.4 470.9-134.5zM454.8-106.8l-163.6-4.7c-2-.1-3.5-1.7-3.4-3.6.1-2 1.7-3.5 3.6-3.4l163.6 4.7c2 .1 3.5 1.7 3.4 3.6C458.3-108.3 456.7-106.7 454.8-106.8zM438.6-79.1l-148.3-4.3c-2-.1-3.5-1.7-3.4-3.6.1-2 1.7-3.5 3.6-3.4l148.3 4.3c2 .1 3.5 1.7 3.4 3.6C442.2-80.6 440.5-79.1 438.6-79.1z" class="color58595b svgShape"/></g><g><path fill="#58585b" d="M325-19.3c.3-9.4-7.2-17.3-16.6-17.6-9.4-.3-17.3 7.2-17.6 16.6C290.5-10.9 298-3 307.4-2.7 316.8-2.4 324.8-9.9 325-19.3zM317.9-19.5c-.2 5.5-4.8 9.9-10.3 9.7-5.5-.2-9.9-4.8-9.7-10.3.2-5.5 4.8-9.9 10.3-9.7C313.7-29.7 318.1-25.1 317.9-19.5zM409.2-16.9c.3-9.4-7.2-17.3-16.6-17.6-9.4-.3-17.3 7.2-17.6 16.6-.3 9.4 7.2 17.3 16.6 17.6C401 0 408.9-7.5 409.2-16.9zM402.1-17.1c-.2 5.5-4.8 9.9-10.3 9.7-5.5-.2-9.9-4.8-9.7-10.3.2-5.5 4.8-9.9 10.3-9.7C397.9-27.3 402.2-22.6 402.1-17.1z" class="color58595b svgShape"/></g><g><path fill="#f7c69b" d="M65.3-210l0.5,4.6c0,0.9,0.4,1.7,1,2.3l2.7,2.5c0.5,0.5,0.6,1.3,0.1,1.8l0,0c-0.4,0.4-1,0.6-1.5,0.3         l-3-1.4c-0.8-0.4-1.7,0-2,0.9l-1.6,3.3c-0.2,0.4-0.7,0.7-1.2,0.6c-2.4-0.5-7.6-2.5-8.2-2.7l0,0c-0.7-0.2-1.1-0.9-1-1.6         c1-5.4,2.6-8,4.9-13.9L65.3-210z" class="colorf7c19b svgShape"/><path fill="#1d505b" d="M68.4-193.9c0.7-1.8-0.2-3.7-2-4.4l-15.9-6.1c-1.8-0.7-3.7,0.2-4.4,2l-2.6,6.7l22.3,8.5L68.4-193.9z           M47.3-201.9c0.4-1.1,1.7-1.7,2.8-1.2l15.9,6.1c1.1,0.4,1.7,1.7,1.2,2.8l-2.1,5.6l-20-7.6L47.3-201.9z" class="color5b291d svgShape"/><path fill="#7f5733" d="M81.5-183L69-150.1c-0.7,2-2.9,2.9-4.9,2.2l-22.6-8.6c-3.2-15.7,0.7-28.2,13.9-36.4L81.5-183z" class="color7f4833 svgShape"/><path fill="#835934" d="M55.3-192.9l-13.9,36.4l-22.6-8.6c-2-0.7-2.9-2.9-2.2-4.9l12.5-32.8L55.3-192.9z" class="color834e34 svgShape"/><path fill="#235763" d="M81.8-181.1l-4.2,10.9c-0.2,0.5-0.7,0.8-1.2,0.8l-29.8-0.8c-2.6-11.3,1.8-18.9,9.5-24.9l23.4,8.9           C81.5-185.4,82.5-183.2,81.8-181.1z" class="color633223 svgShape"/><path fill="#255c68" d="M56.1-195.1l-9.5,24.9l-22.7-19.2c-0.4-0.3-0.5-0.9-0.4-1.4l4.2-10.9c0.8-2,3-3,5.1-2.3L56.1-195.1z" class="color683725 svgShape"/><path fill="#eb7aa5" d="M50.7-171.8l-2.3,6c-0.1,0.4-0.5,0.5-0.9,0.4l-2.4-0.9l2.8-7.3l2.4,0.9          C50.7-172.6,50.8-172.1,50.7-171.8z" class="colorbdbdbd svgShape"/><path fill="#e0e0e0" d="M47.9-173.6l-2.8,7.3l-2.4-0.9c-0.4-0.1-0.5-0.5-0.4-0.9l2.3-6c0.1-0.4,0.5-0.5,0.9-0.4L47.9-173.6z" class="colore0e0e0 svgShape"/><path fill="#f7c69b" d="M51.6-201.8c0,0,0.7-1.5,5.7,0.4c0,0,4.1,1,4.9,4.1l-4.4,0.1c0,0-1.1-0.6-1.2-0.7        C56.6-197.9,51.6-201.8,51.6-201.8z" class="colorf7c19b svgShape"/><polygon fill="#f7c69b" points="14.5 -59.7 11.2 -72.4 30.2 -77.6 33.5 -64.9" class="colorf7c19b svgShape"/><path fill="#333333" d="M8.5-71.1l-2.9-1.3l-0.9-0.3c-0.5-0.2-1.1-0.2-1.7,0l-2.1,0.6C0.3-72,0-71.5,0.1-70.9l0.6,2.4l0.6-0.2          l0.3,1.3l-0.6,0.2l0.7,2.9l0.5-0.1l0.3,1.4L2.1-63l0.8,3.2l2.5,1.1c-0.1,2.8-0.4,5.3-1,7.6c0,0.1,0.8,3.4,0.9,3.4l0.5-0.1          l0.3,1.3l-0.5,0.1c0.2,1.1,0.5,2.1,0.8,3.1l0.5-0.1l0.3,1.2L6.8-42c0.3,1.1,0.6,2,1.1,2.8l0.4-0.1l0.5,1.2l-0.4,0.1          c0.3,0.7,0.7,1.3,1.1,1.9l0.4-0.2l0.7,1L10.3-35c0.8,1.1,1.6,2,2.4,2.8c0,0,1.7-0.2,1.5-1.3l-2-13.5l-2.1-17.5L8.5-71.1z" class="color333 svgShape"/><path fill="#58585b" d="M9-73.9c-0.8,0.2-1.6,0.5-2.3,0.9l-1.2,0.6c1.4,5,2.2,9.8,2.3,14.3c0,0.9,0,1.9-0.1,2.8          c-0.6,7.8,1.7,15,6.5,21.8l1.2-0.3c0.9-0.2,1.4-1.1,1.4-2l-0.3-5.9c-0.1-1.1-0.1-2.1-0.2-3.2c-0.2-3,0.2-5.9,1.2-8.7          c0.1-0.2,0.1-0.3,0.2-0.5c0-0.1,0.1-0.2,0.1-0.3c-1.2,0.2-3-0.6-3.1-0.6c-0.1,0-0.1-0.1-0.1-0.1c0,0,0-0.1,0-0.1          c0-0.1,0.1-0.1,0.2-0.1c0.6,0.3,2.2,0.8,3.1,0.6c0-0.1,0.1-0.1,0.1-0.2c0-1.1-0.8-2.6-1.2-3.2c0-0.1,0-0.2,0-0.2          c0.1,0,0.2,0,0.2,0c0.1,0.1,0.9,1.5,1.2,2.8c0.1-0.2,0.2-0.5,0.3-0.7c0.1-0.1,0.1-0.3,0.2-0.4c0.2-0.3,0.3-0.6,0.5-1          c0.1-0.1,0.1-0.3,0.2-0.4c0.3-0.5,0.5-0.9,0.8-1.4c-0.3-0.8-1.1-1.6-1.4-2c-0.1-0.1-0.1-0.2,0-0.2c0.1-0.1,0.2-0.1,0.2,0          c0.1,0.1,1,0.9,1.4,1.9c0.1-0.2,0.2-0.4,0.4-0.6c0.2-0.3,0.3-0.7,0.2-1l-2.9-13.2c-0.1-0.5-0.6-0.8-1.1-0.6l-1.5,0.5          c-1.1,0.3-2.3,0.5-3.4,0.5C11-74.3,10-74.2,9-73.9z" class="color58595b svgShape"/><path fill="#020b0d" d="M14.5-55.2C14.4-55.2 14.4-55.2 14.5-55.2c0 .1 0 .2.1.2.1 0 1.9.8 3.1.6 0-.1.1-.2.1-.4-.9.2-2.5-.3-3.1-.6C14.6-55.3 14.5-55.3 14.5-55.2zM16.7-58.4c-.1 0-.1.1 0 .2.4.6 1.2 2.2 1.2 3.2.1-.2.2-.4.3-.6-.2-1.3-1.1-2.7-1.2-2.8C16.9-58.4 16.8-58.4 16.7-58.4z" class="color231f20 svgShape"/><path fill="#303030" d="M18.7-61.7c-0.1,0.1-0.1,0.2,0,0.2c0.4,0.3,1.2,1.2,1.4,2c0.1-0.1,0.1-0.2,0.2-0.3          c-0.4-1-1.4-1.8-1.4-1.9C18.9-61.8,18.8-61.8,18.7-61.7z" class="color303030 svgShape"/><path fill="#404242" d="M9-73.9c-0.8,0.2-1.6,0.5-2.3,0.9l-1.2,0.6c1.4,5,2.2,9.8,2.3,14.3l6.1,5.3c0.3,0.3,0.9,0.2,1.1-0.1          l6-8.5l-2.9-13.2c-0.1-0.5-0.6-0.8-1.1-0.6l-1.5,0.5c-1.1,0.3-2.3,0.5-3.4,0.5C11-74.3,10-74.2,9-73.9z" class="color414042 svgShape"/><polygon fill="#58585b" points="20.3 -61.5 20.4 -61.4 20.5 -61.5 20.5 -61.7 20.3 -61.6 20.4 -61.6" class="color58595b svgShape"/><path fill="#58585b" d="M6.3-72.2l0.1,0.1l0.2-0.1l-0.1-0.1L6.3-72.2z M6.7-72.4l0.1,0.1l0.2-0.1l-0.1-0.1L6.7-72.4z M7-72.6            l0.1,0.1c0.1,0,0.1-0.1,0.2-0.1l-0.1-0.1C7.1-72.7,7.1-72.6,7-72.6z M7.4-72.8l0.1,0.1c0.1,0,0.1-0.1,0.2-0.1l-0.1-0.1            C7.5-72.8,7.4-72.8,7.4-72.8z M7.7-72.9l0.1,0.1c0.1,0,0.1,0,0.2-0.1L7.9-73C7.8-73,7.8-72.9,7.7-72.9z M8.1-73.1l0.1,0.1            c0.1,0,0.1,0,0.2-0.1l0-0.1C8.2-73.1,8.1-73.1,8.1-73.1z M8.5-73.2l0,0.1c0.1,0,0.1,0,0.2-0.1l0-0.1            C8.6-73.2,8.5-73.2,8.5-73.2z M8.8-73.3l0,0.1c0.1,0,0.1,0,0.2-0.1l0-0.1C8.9-73.4,8.9-73.3,8.8-73.3z M9.2-73.3            c0.1,0,0.1,0,0.2,0l0-0.1c-0.1,0-0.1,0-0.2,0L9.2-73.3z M9.6-73.4c0.1,0,0.1,0,0.2,0l0-0.1c-0.1,0-0.1,0-0.2,0L9.6-73.4z             M10-73.5c0.1,0,0.1,0,0.2,0l0-0.1c-0.1,0-0.1,0-0.2,0L10-73.5z M10.4-73.5c0.1,0,0.1,0,0.2,0l0-0.1c-0.1,0-0.1,0-0.2,0            L10.4-73.5z M10.7-73.6c0.1,0,0.1,0,0.2,0l0-0.1c-0.1,0-0.1,0-0.2,0L10.7-73.6z M11.1-73.6c0.1,0,0.1,0,0.2,0l0-0.1            c-0.1,0-0.1,0-0.2,0L11.1-73.6z M11.5-73.7c0.1,0,0.1,0,0.2,0l0-0.1c-0.1,0-0.1,0-0.2,0L11.5-73.7z M11.9-73.7            c0.1,0,0.1,0,0.2,0l0-0.1c-0.1,0-0.1,0-0.2,0L11.9-73.7z M12.3-73.7c0.1,0,0.1,0,0.2,0l0-0.1c-0.1,0-0.1,0-0.2,0            L12.3-73.7z M12.6-73.7c0.1,0,0.1,0,0.2,0l0-0.1c-0.1,0-0.1,0-0.2,0L12.6-73.7z M13-73.7c0.1,0,0.1,0,0.2,0l0-0.1            c-0.1,0-0.1,0-0.2,0L13-73.7z M13.4-73.7c0.1,0,0.1,0,0.2,0l0-0.1c-0.1,0-0.1,0-0.2,0L13.4-73.7z M13.8-73.8            c0.1,0,0.1,0,0.2,0l0-0.1c-0.1,0-0.1,0-0.2,0L13.8-73.8z M14.2-73.8c0.1,0,0.1,0,0.2,0l0-0.1c-0.1,0-0.1,0-0.2,0            L14.2-73.8z M14.6-73.9c0.1,0,0.1,0,0.2,0l0-0.1c-0.1,0-0.1,0-0.2,0L14.6-73.9z M14.9-74c0.1,0,0.1,0,0.2,0l0-0.1            c-0.1,0-0.1,0-0.2,0L14.9-74z M15.3-74.2l0,0.1c0.1,0,0.1,0,0.2-0.1l0-0.1C15.4-74.3,15.3-74.3,15.3-74.2z M15.6-74.3            l0,0.1l0.2-0.1l0-0.1L15.6-74.3z M16-74.5l0,0.1l0.2-0.1l0-0.1L16-74.5z M16.4-74.6l0,0.1l0.2-0.1l0-0.1L16.4-74.6z             M16.7-74.7l0,0.1l0.2-0.1l0-0.1L16.7-74.7z M20.3-61.8l0.1,0l0-0.2l-0.1,0L20.3-61.8z M20.2-62.2l0.1,0l0-0.2l-0.1,0            L20.2-62.2z M20.1-62.6l0.1,0l0-0.2l-0.1,0L20.1-62.6z M20.1-63l0.1,0l0-0.2l-0.1,0L20.1-63z M20-63.3l0.1,0l0-0.2l-0.1,0            L20-63.3z M19.9-63.7l0.1,0l0-0.2l-0.1,0L19.9-63.7z M19.8-64.1l0.1,0l0-0.2l-0.1,0L19.8-64.1z M19.7-64.5l0.1,0l0-0.2            l-0.1,0L19.7-64.5z M19.6-64.9l0.1,0l0-0.2l-0.1,0L19.6-64.9z M19.5-65.3l0.1,0l0-0.2l-0.1,0L19.5-65.3z M17.1-74.7            c0.1,0,0.1,0,0.2,0l0-0.1c-0.1,0-0.1,0-0.2,0L17.1-74.7z M19.5-65.6l0.1,0l0-0.2l-0.1,0L19.5-65.6z M19.4-66l0.1,0l0-0.2            l-0.1,0L19.4-66z M19.3-66.4l0.1,0l0-0.2l-0.1,0L19.3-66.4z M19.2-66.8l0.1,0l0-0.2l-0.1,0L19.2-66.8z M19.1-67.2l0.1,0            l0-0.2l-0.1,0L19.1-67.2z M19-67.6l0.1,0l0-0.2l-0.1,0L19-67.6z M19-67.9l0.1,0l0-0.2l-0.1,0L19-67.9z M18.9-68.3l0.1,0            l0-0.2l-0.1,0L18.9-68.3z M18.8-68.7l0.1,0l0-0.2l-0.1,0L18.8-68.7z M18.7-69.1l0.1,0l0-0.2l-0.1,0L18.7-69.1z M18.6-69.5            l0.1,0l0-0.2l-0.1,0L18.6-69.5z M18.5-69.8l0.1,0l0-0.2l-0.1,0L18.5-69.8z M18.5-70.2l0.1,0l0-0.2l-0.1,0L18.5-70.2z             M18.4-70.6l0.1,0l0-0.2l-0.1,0L18.4-70.6z M18.3-71l0.1,0l0-0.2l-0.1,0L18.3-71z M18.2-71.4l0.1,0l0-0.2l-0.1,0            L18.2-71.4z M18.1-71.8l0.1,0l0-0.2l-0.1,0L18.1-71.8z M18-72.1l0.1,0l0-0.2l-0.1,0L18-72.1z M18-72.5l0.1,0l0-0.2l-0.1,0            L18-72.5z M17.4-74.6c0,0,0.1,0.1,0.1,0.1l0.1-0.1c0-0.1-0.1-0.1-0.1-0.2L17.4-74.6z M17.9-72.9l0.1,0l0-0.2l-0.1,0            L17.9-72.9z M17.8-73.3l0.1,0l0-0.2l-0.1,0L17.8-73.3z M17.7-73.7l0.1,0l0-0.2l-0.1,0L17.7-73.7z M17.6-74.1l0.1,0l0-0.2            l-0.1,0L17.6-74.1z" class="color58595b svgShape"/><polygon fill="#58585b" points="6 -72.1 6.1 -71.9 6.2 -72 6.2 -72 6.2 -72 6.2 -72.2" class="color58595b svgShape"/><path fill="#58585b" d="M8.2-58.6l0.1,0l0-0.2l-0.1,0L8.2-58.6z M8.2-59l0.1,0l0-0.2l-0.1,0L8.2-59z M8.2-59.4l0.1,0l0-0.2            l-0.1,0L8.2-59.4z M8.2-59.8l0.1,0l0-0.2l-0.1,0L8.2-59.8z M8.1-60.2l0.1,0l0-0.2l-0.1,0L8.1-60.2z M8.1-60.6l0.1,0l0-0.2            l-0.1,0L8.1-60.6z M8.1-60.9l0.1,0l0-0.2l-0.1,0L8.1-60.9z M8.1-61.3l0.1,0l0-0.2l-0.1,0L8.1-61.3z M8-61.7l0.1,0l0-0.2            l-0.1,0L8-61.7z M8-62.1l0.1,0l0-0.2l-0.1,0L8-62.1z M7.9-62.5l0.1,0l0-0.2l-0.1,0L7.9-62.5z M7.9-62.9l0.1,0l0-0.2            l-0.1,0L7.9-62.9z M7.9-63.3l0.1,0l0-0.2l-0.1,0L7.9-63.3z M7.8-63.6l0.1,0l0-0.2l-0.1,0L7.8-63.6z M7.8-64l0.1,0l0-0.2            l-0.1,0L7.8-64z M7.7-64.4l0.1,0l0-0.2l-0.1,0L7.7-64.4z M7.6-64.8l0.1,0l0-0.2l-0.1,0L7.6-64.8z M7.6-65.2l0.1,0l0-0.2            l-0.1,0L7.6-65.2z M7.5-65.5l0.1,0l0-0.2l-0.1,0L7.5-65.5z M7.5-65.9l0.1,0l0-0.2l-0.1,0L7.5-65.9z M7.4-66.3l0.1,0l0-0.2            l-0.1,0L7.4-66.3z M7.3-66.7l0.1,0l0-0.2l-0.1,0L7.3-66.7z M7.2-67.1l0.1,0l0-0.2l-0.1,0L7.2-67.1z M7.2-67.4l0.1,0l0-0.2            l-0.1,0L7.2-67.4z M7.1-67.8l0.1,0l0-0.2L7-68L7.1-67.8z M7-68.2l0.1,0l0-0.2l-0.1,0L7-68.2z M6.9-68.6l0.1,0l0-0.2            l-0.1,0L6.9-68.6z M6.8-68.9L7-69l0-0.2l-0.1,0L6.8-68.9z M6.7-69.3l0.1,0l0-0.2l-0.1,0L6.7-69.3z M6.7-69.7l0.1,0l0-0.2            l-0.1,0L6.7-69.7z M6.6-70.1l0.1,0l0-0.2l-0.1,0L6.6-70.1z M6.1-71.7l0,0.2l0.1,0l0-0.2L6.1-71.7z M6.5-70.4l0.1,0l0-0.2            l-0.1,0L6.5-70.4z M6.2-71.4l0,0.2l0.1,0l0-0.2L6.2-71.4z M6.4-70.8l0.1,0l0-0.2l-0.1,0L6.4-70.8z" class="color58595b svgShape"/><polygon fill="#58585b" points="8.2 -58.3 8.3 -58.2 8.4 -58.3 8.4 -58.4 8.4 -58.4 8.2 -58.4" class="color58595b svgShape"/><path fill="#58585b" d="M8.5-58.1L8.6-58l0.1-0.1l-0.1-0.1L8.5-58.1z M8.7-57.9l0.1,0.1L9-57.8L8.8-58L8.7-57.9z M9-57.6            l0.1,0.1l0.1-0.1l-0.1-0.1L9-57.6z M9.3-57.4l0.1,0.1l0.1-0.1l-0.1-0.1L9.3-57.4z M9.6-57.1L9.7-57l0.1-0.1l-0.1-0.1            L9.6-57.1z M9.9-56.9l0.1,0.1l0.1-0.1L10-57L9.9-56.9z M10.2-56.6l0.1,0.1l0.1-0.1l-0.1-0.1L10.2-56.6z M10.5-56.4            l0.1,0.1l0.1-0.1l-0.1-0.1L10.5-56.4z M10.7-56.1l0.1,0.1l0.1-0.1l-0.1-0.1L10.7-56.1z M11-55.9l0.1,0.1l0.1-0.1L11.1-56            L11-55.9z M11.3-55.6l0.1,0.1l0.1-0.1l-0.1-0.1L11.3-55.6z M11.6-55.4l0.1,0.1l0.1-0.1l-0.1-0.1L11.6-55.4z M11.9-55.1            L12-55l0.1-0.1L12-55.2L11.9-55.1z M12.2-54.9l0.1,0.1l0.1-0.1L12.3-55L12.2-54.9z M12.5-54.6l0.1,0.1l0.1-0.1l-0.1-0.1            L12.5-54.6z M12.8-54.4l0.1,0.1l0.1-0.1l-0.1-0.1L12.8-54.4z M13-54.1l0.1,0.1l0.1-0.1l-0.1-0.1L13-54.1z M13.3-53.8            l0.1,0.1l0.1-0.1L13.4-54L13.3-53.8z M13.6-53.6l0.1,0.1l0.1-0.1l-0.1-0.1L13.6-53.6z M13.9-53.3l0.1,0.1l0.1-0.1L14-53.5            L13.9-53.3z M14.2-53.1c0.1,0,0.1,0,0.2,0c0,0,0,0,0,0l0-0.1c0,0,0,0,0,0c0,0-0.1,0-0.1,0L14.2-53.1z M14.6-53.3l0.1,0.1            c0,0,0.1-0.1,0.1-0.1l0.1-0.1l-0.1-0.1L14.6-53.3C14.6-53.4,14.6-53.3,14.6-53.3z M14.8-53.6l0.1,0.1l0.1-0.2l-0.1-0.1            L14.8-53.6z M15-53.9l0.1,0.1l0.1-0.2l-0.1-0.1L15-53.9z M15.2-54.3l0.1,0.1l0.1-0.2l-0.1-0.1L15.2-54.3z M15.5-54.6            l0.1,0.1l0.1-0.2l-0.1-0.1L15.5-54.6z M15.7-54.9l0.1,0.1l0.1-0.2L15.8-55L15.7-54.9z M15.9-55.2l0.1,0.1l0.1-0.2L16-55.4            L15.9-55.2z M16.1-55.5l0.1,0.1l0.1-0.2l-0.1-0.1L16.1-55.5z M16.3-55.8l0.1,0.1l0.1-0.2L16.4-56L16.3-55.8z M16.6-56.1            l0.1,0.1l0.1-0.2l-0.1-0.1L16.6-56.1z M16.8-56.5l0.1,0.1l0.1-0.2l-0.1-0.1L16.8-56.5z M17-56.8l0.1,0.1l0.1-0.2l-0.1-0.1            L17-56.8z M17.2-57.1l0.1,0.1l0.1-0.2l-0.1-0.1L17.2-57.1z M17.4-57.4l0.1,0.1l0.1-0.2l-0.1-0.1L17.4-57.4z M17.7-57.7            l0.1,0.1l0.1-0.2l-0.1-0.1L17.7-57.7z M17.9-58L18-58l0.1-0.2L18-58.2L17.9-58z M18.1-58.4l0.1,0.1l0.1-0.2l-0.1-0.1            L18.1-58.4z M18.3-58.7l0.1,0.1l0.1-0.2l-0.1-0.1L18.3-58.7z M18.6-59l0.1,0.1l0.1-0.2l-0.1-0.1L18.6-59z M18.8-59.3            l0.1,0.1l0.1-0.2l-0.1-0.1L18.8-59.3z M19-59.6l0.1,0.1l0.1-0.2l-0.1-0.1L19-59.6z M19.2-59.9l0.1,0.1l0.1-0.2l-0.1-0.1            L19.2-59.9z M19.4-60.2l0.1,0.1l0.1-0.2l-0.1-0.1L19.4-60.2z M19.7-60.6l0.1,0.1l0.1-0.2l-0.1-0.1L19.7-60.6z M19.9-60.9            l0.1,0.1l0.1-0.2L20-61L19.9-60.9z M20.1-61.2l0.1,0.1l0.1-0.2l-0.1-0.1L20.1-61.2z" class="color58595b svgShape"/><g><path fill="#e6e7e8" d="M13.9-55.1c.1.4.4.7.8.6.4-.1.7-.4.6-.8-.1-.4-.4-.7-.8-.6C14.1-55.9 13.8-55.5 13.9-55.1zM15.1-55.3c0 .3-.2.5-.4.6-.3 0-.5-.2-.6-.4 0-.3.2-.5.4-.6C14.8-55.8 15.1-55.6 15.1-55.3zM15.9-58.3c.1.4.4.7.8.6.4-.1.7-.4.6-.8-.1-.4-.4-.7-.8-.6C16.2-59.1 15.9-58.7 15.9-58.3zM17.2-58.4c0 .3-.2.5-.4.6-.3 0-.5-.2-.6-.4 0-.3.2-.5.4-.6C16.9-58.9 17.1-58.7 17.2-58.4z" class="colore6e7e8 svgShape"/><g><path fill="#020b0d" d="M14.7-55.3c-0.1,0-0.2,0-0.2,0.1c0,0,0,0.1,0,0.1c0,0.1,0,0.1,0.1,0.1c0.1,0,1.9,0.8,3.1,0.6            c0,0,0.1,0,0.1,0c0.1,0,0.3-0.1,0.4-0.1c0.1-0.1,0.2-0.1,0.3-0.2c0.4-0.4,0.5-1.1,0.2-2c-0.1,0.1-0.1,0.3-0.2,0.4            c0.1,0.6,0.1,1-0.2,1.3c0,0,0,0-0.1,0.1c-0.1,0.1-0.2,0.1-0.3,0.2c0,0,0,0-0.1,0C16.9-54.5,15.3-55,14.7-55.3z" class="color231f20 svgShape"/><path fill="#020b0d" d="M16.7-58.4c-0.1,0-0.1,0.1,0,0.2c0.4,0.6,1.2,2.2,1.2,3.2c0,0.1,0,0.1,0,0.2c0,0.1,0,0.3-0.1,0.4            c0,0,0,0.1-0.1,0.1c0,0.1-0.1,0.1-0.1,0.2c-0.1,0.2-0.1,0.3-0.2,0.5c0.3-0.1,0.4-0.2,0.6-0.5c0.1-0.1,0.1-0.3,0.2-0.4            c0-0.1,0-0.3,0-0.4c0-0.2,0-0.4-0.1-0.6c-0.2-1.3-1.1-2.7-1.2-2.8C16.9-58.4,16.8-58.4,16.7-58.4z" class="color231f20 svgShape"/></g></g><g><path fill="#e6e7e8" d="M18.1-61.4c0.1,0.4,0.5,0.6,0.9,0.5c0.4-0.1,0.6-0.5,0.5-0.9c-0.1-0.4-0.5-0.6-0.9-0.5           C18.3-62.2,18-61.8,18.1-61.4z M19.4-61.7c0.1,0.3-0.1,0.6-0.4,0.6c-0.3,0.1-0.5-0.1-0.6-0.4c-0.1-0.3,0.1-0.6,0.4-0.6           C19-62.2,19.3-62,19.4-61.7z" class="colore6e7e8 svgShape"/><path fill="#020b0d" d="M18.7-61.7c-0.1,0.1-0.1,0.2,0,0.2c0.4,0.3,1.2,1.2,1.4,2c0.1,0.3,0.1,0.5,0.1,0.7           c-0.1,0.3-0.4,0.5-0.9,0.7c-0.1,0.1-0.1,0.3-0.2,0.4c0.8-0.2,1.2-0.5,1.4-1c0.1-0.4,0-0.8-0.1-1.2c-0.4-1-1.4-1.8-1.4-1.9           C18.9-61.8,18.8-61.8,18.7-61.7z" class="color231f20 svgShape"/></g><g><rect width="20.1" height="13" x="196.7" y="-30" fill="#f7c69b" transform="rotate(-76.261 206.715 -23.448)" class="colorf7c19b svgShape"/><path fill="#333333" d="M204.5-9l-1.2,3L203-5c-0.2,0.6-0.2,1.1,0,1.7l0.6,2.2c0.2,0.5,0.7,0.8,1.2,0.7l2.4-0.7l-0.2-0.6          l1.3-0.4l0.2,0.6l2.9-0.8l-0.1-0.5l1.4-0.4l0.2,0.5l3.2-0.9l1-2.6c2.8,0,5.3,0.2,7.6,0.8c0.1,0,3.4-0.9,3.4-1l-0.1-0.5          l1.3-0.4l0.1,0.5c1.1-0.2,2.1-0.5,3.1-0.9l-0.1-0.5l1.2-0.4l0.1,0.4c1.1-0.3,2-0.7,2.8-1.2l-0.1-0.4l1.2-0.5l0.1,0.4          c0.7-0.3,1.3-0.7,1.9-1.1l-0.2-0.4l1-0.8l0.3,0.3c1.1-0.8,2-1.7,2.8-2.5c0,0-0.3-1.7-1.3-1.5l-13.5,2.3l-17.5,2.6L204.5-9z" class="color333 svgShape"/><path fill="#58585b" d="M201.7-9.5c0.2,0.8,0.5,1.6,0.9,2.3l0.6,1.2c5-1.5,9.8-2.5,14.3-2.7c0.9,0,1.9,0,2.8,0          c7.8,0.4,15-2.1,21.7-7.2l-0.3-1.2c-0.3-0.9-1.1-1.4-2-1.4l-5.9,0.5c-1.1,0.1-2.1,0.2-3.2,0.3c-3,0.3-5.9-0.1-8.8-1          c-0.2-0.1-0.3-0.1-0.5-0.2c-0.1,0-0.2-0.1-0.3-0.1c0.2,1.3-0.5,3.1-0.6,3.2c0,0.1-0.1,0.1-0.1,0.1c0,0-0.1,0-0.1,0          c-0.1,0-0.1-0.1-0.1-0.2c0.3-0.7,0.8-2.3,0.5-3.2c-0.1,0-0.1,0-0.2-0.1c-1.1,0-2.6,0.9-3.2,1.3c-0.1,0-0.2,0-0.2,0          c-0.1-0.1,0-0.2,0-0.2c0.1-0.1,1.5-1,2.8-1.3c-0.2-0.1-0.5-0.2-0.7-0.3c-0.2-0.1-0.3-0.1-0.5-0.2c-0.3-0.1-0.7-0.3-1-0.5          c-0.1-0.1-0.3-0.1-0.4-0.2c-0.5-0.3-1-0.5-1.4-0.8c-0.8,0.3-1.6,1.1-2,1.5c-0.1,0.1-0.2,0.1-0.2,0c-0.1-0.1-0.1-0.2,0-0.2          c0.1-0.1,0.9-1.1,1.9-1.5c-0.2-0.1-0.4-0.2-0.6-0.4c-0.3-0.2-0.7-0.3-1.1-0.2l-13.2,3.3c-0.5,0.1-0.8,0.6-0.6,1.1l0.5,1.5          c0.4,1.1,0.6,2.3,0.6,3.5C201.2-11.5,201.4-10.5,201.7-9.5z" class="color58595b svgShape"/><path fill="#020b0d" d="M220.3-15.5C220.3-15.5 220.3-15.5 220.3-15.5c.1 0 .2 0 .2-.1 0-.1.8-1.9.6-3.2-.1 0-.2-.1-.4-.1.3.9-.3 2.6-.5 3.2C220.2-15.6 220.2-15.5 220.3-15.5zM217.1-17.8c.1.1.2.1.2 0 .6-.4 2.2-1.3 3.2-1.3-.2-.1-.4-.2-.6-.3-1.3.3-2.7 1.2-2.8 1.3C217-17.9 217-17.8 217.1-17.8z" class="color231f20 svgShape"/><path fill="#303030" d="M213.7-19.7c0.1,0.1,0.2,0.1,0.2,0c0.3-0.4,1.2-1.2,2-1.5c-0.1-0.1-0.2-0.1-0.3-0.2          c-0.9,0.5-1.8,1.5-1.9,1.5C213.7-19.9,213.7-19.8,213.7-19.7z" class="color303030 svgShape"/><path fill="#404242" d="M201.7-9.5c0.2,0.8,0.5,1.6,0.9,2.3l0.6,1.2c5-1.5,9.8-2.5,14.3-2.7l5.2-6.3c0.3-0.4,0.2-0.9-0.2-1.2          L214-22l-13.2,3.3c-0.5,0.1-0.8,0.6-0.6,1.1l0.5,1.5c0.4,1.1,0.6,2.3,0.6,3.5C201.2-11.5,201.4-10.5,201.7-9.5z" class="color414042 svgShape"/><polygon fill="#58585b" points="213.9 -21.3 214 -21.5 213.9 -21.5 213.7 -21.5 213.8 -21.4 213.8 -21.4" class="color58595b svgShape"/><path fill="#58585b" d="M203.4-6.8l0.1-0.1L203.5-7L203.3-7L203.4-6.8z M203.2-7.1l0.1-0.1l-0.1-0.2l-0.1,0.1L203.2-7.1z             M203-7.5l0.1-0.1c0-0.1-0.1-0.1-0.1-0.2L203-7.6C203-7.6,203-7.5,203-7.5z M202.9-7.8l0.1-0.1c0-0.1-0.1-0.1-0.1-0.2            L202.8-8C202.8-7.9,202.8-7.9,202.9-7.8z M202.7-8.2l0.1-0.1c0-0.1-0.1-0.1-0.1-0.2l-0.1,0.1            C202.6-8.3,202.7-8.2,202.7-8.2z M202.5-8.5l0.1-0.1c0-0.1,0-0.1-0.1-0.2l-0.1,0.1C202.5-8.7,202.5-8.6,202.5-8.5z             M202.4-8.9l0.1-0.1c0-0.1,0-0.1-0.1-0.2l-0.1,0C202.4-9,202.4-9,202.4-8.9z M202.3-9.3l0.1,0c0-0.1,0-0.1-0.1-0.2l-0.1,0            C202.2-9.4,202.3-9.4,202.3-9.3z M202.3-9.7c0-0.1,0-0.1-0.1-0.2l-0.1,0c0,0.1,0,0.1,0.1,0.2L202.3-9.7z M202.2-10.1            c0-0.1,0-0.1,0-0.2l-0.1,0c0,0.1,0,0.1,0,0.2L202.2-10.1z M202.1-10.5c0-0.1,0-0.1,0-0.2l-0.1,0c0,0.1,0,0.1,0,0.2            L202.1-10.5z M202-10.8c0-0.1,0-0.1,0-0.2l-0.1,0c0,0.1,0,0.1,0,0.2L202-10.8z M202-11.2c0-0.1,0-0.1,0-0.2l-0.1,0            c0,0.1,0,0.1,0,0.2L202-11.2z M201.9-11.6c0-0.1,0-0.1,0-0.2l-0.1,0c0,0.1,0,0.1,0,0.2L201.9-11.6z M201.9-12            c0-0.1,0-0.1,0-0.2l-0.1,0c0,0.1,0,0.1,0,0.2L201.9-12z M201.9-12.4c0-0.1,0-0.1,0-0.2l-0.1,0c0,0.1,0,0.1,0,0.2            L201.9-12.4z M201.9-12.8c0-0.1,0-0.1,0-0.2l-0.1,0c0,0.1,0,0.1,0,0.2L201.9-12.8z M201.9-13.2c0-0.1,0-0.1,0-0.2l-0.1,0            c0,0.1,0,0.1,0,0.2L201.9-13.2z M201.8-13.6c0-0.1,0-0.1,0-0.2l-0.1,0c0,0.1,0,0.1,0,0.2L201.8-13.6z M201.8-14            c0-0.1,0-0.1,0-0.2l-0.1,0c0,0.1,0,0.1,0,0.2L201.8-14z M201.7-14.4c0-0.1,0-0.1,0-0.2l-0.1,0c0,0.1,0,0.1,0,0.2            L201.7-14.4z M201.7-14.7c0-0.1,0-0.1,0-0.2l-0.1,0c0,0.1,0,0.1,0,0.2L201.7-14.7z M201.6-15.1c0-0.1,0-0.1,0-0.2l-0.1,0            c0,0.1,0,0.1,0,0.2L201.6-15.1z M201.5-15.5c0-0.1,0-0.1-0.1-0.2l-0.1,0c0,0.1,0,0.1,0.1,0.2L201.5-15.5z M201.2-15.9            l0.1,0c0-0.1,0-0.1-0.1-0.2l-0.1,0C201.2-16,201.2-15.9,201.2-15.9z M201.1-16.2l0.1,0l-0.1-0.2l-0.1,0L201.1-16.2z             M201-16.6l0.1,0l-0.1-0.2l-0.1,0L201-16.6z M200.9-17l0.1,0l-0.1-0.2l-0.1,0L200.9-17z M200.8-17.3l0.1,0l-0.1-0.2            l-0.1,0L200.8-17.3z M213.6-21.3l0-0.1l-0.2,0l0,0.1L213.6-21.3z M213.2-21.2l0-0.1l-0.2,0l0,0.1L213.2-21.2z M212.8-21.1            l0-0.1l-0.2,0l0,0.1L212.8-21.1z M212.4-21l0-0.1l-0.2,0l0,0.1L212.4-21z M212-20.9l0-0.1l-0.2,0l0,0.1L212-20.9z             M211.7-20.8l0-0.1l-0.2,0l0,0.1L211.7-20.8z M211.3-20.7l0-0.1l-0.2,0l0,0.1L211.3-20.7z M210.9-20.6l0-0.1l-0.2,0l0,0.1            L210.9-20.6z M210.5-20.5l0-0.1l-0.2,0l0,0.1L210.5-20.5z M210.1-20.4l0-0.1l-0.2,0l0,0.1L210.1-20.4z M200.8-17.8            c0-0.1,0-0.1,0-0.2l-0.1,0c0,0.1,0,0.1,0,0.2L200.8-17.8z M209.8-20.4l0-0.1l-0.2,0l0,0.1L209.8-20.4z M209.4-20.3l0-0.1            l-0.2,0l0,0.1L209.4-20.3z M209-20.2l0-0.1l-0.2,0l0,0.1L209-20.2z M208.6-20.1l0-0.1l-0.2,0l0,0.1L208.6-20.1z M208.2-20            l0-0.1l-0.2,0l0,0.1L208.2-20z M207.9-19.9l0-0.1l-0.2,0l0,0.1L207.9-19.9z M207.5-19.8l0-0.1l-0.2,0l0,0.1L207.5-19.8z             M207.1-19.7l0-0.1l-0.2,0l0,0.1L207.1-19.7z M206.7-19.6l0-0.1l-0.2,0l0,0.1L206.7-19.6z M206.3-19.5l0-0.1l-0.2,0l0,0.1            L206.3-19.5z M205.9-19.4l0-0.1l-0.2,0l0,0.1L205.9-19.4z M205.6-19.3l0-0.1l-0.2,0l0,0.1L205.6-19.3z M205.2-19.2l0-0.1            l-0.2,0l0,0.1L205.2-19.2z M204.8-19.1l0-0.1l-0.2,0l0,0.1L204.8-19.1z M204.4-19l0-0.1l-0.2,0l0,0.1L204.4-19z M204-18.9            l0-0.1l-0.2,0l0,0.1L204-18.9z M203.7-18.8l0-0.1l-0.2,0l0,0.1L203.7-18.8z M203.3-18.7l0-0.1l-0.2,0l0,0.1L203.3-18.7z             M202.9-18.6l0-0.1l-0.2,0l0,0.1L202.9-18.6z M200.9-18.1c0,0,0.1-0.1,0.1-0.1l-0.1-0.1c-0.1,0-0.1,0.1-0.2,0.1            L200.9-18.1z M202.5-18.5l0-0.1l-0.2,0l0,0.1L202.5-18.5z M202.1-18.5l0-0.1l-0.2,0l0,0.1L202.1-18.5z M201.8-18.4l0-0.1            l-0.2,0l0,0.1L201.8-18.4z M201.4-18.3l0-0.1l-0.2,0l0,0.1L201.4-18.3z" class="color58595b svgShape"/><polygon fill="#58585b" points="203.6 -6.5 203.7 -6.5 203.7 -6.7 203.6 -6.7 203.6 -6.7 203.5 -6.6" class="color58595b svgShape"/><path fill="#58585b" d="M217-9l0-0.1l-0.2,0l0,0.1L217-9z M216.6-9l0-0.1l-0.2,0l0,0.1L216.6-9z M216.2-9l0-0.1l-0.2,0l0,0.1            L216.2-9z M215.8-9l0-0.1l-0.2,0l0,0.1L215.8-9z M215.4-8.9l0-0.1l-0.2,0l0,0.1L215.4-8.9z M215.1-8.9l0-0.1l-0.2,0l0,0.1            L215.1-8.9z M214.7-8.9l0-0.1l-0.2,0l0,0.1L214.7-8.9z M214.3-8.8l0-0.1l-0.2,0l0,0.1L214.3-8.8z M213.9-8.8l0-0.1l-0.2,0            l0,0.1L213.9-8.8z M213.5-8.7l0-0.1l-0.2,0l0,0.1L213.5-8.7z M213.1-8.7l0-0.1l-0.2,0l0,0.1L213.1-8.7z M212.8-8.6l0-0.1            l-0.2,0l0,0.1L212.8-8.6z M212.4-8.6l0-0.1l-0.2,0l0,0.1L212.4-8.6z M212-8.5l0-0.1l-0.2,0l0,0.1L212-8.5z M211.6-8.4            l0-0.1l-0.2,0l0,0.1L211.6-8.4z M211.2-8.4l0-0.1l-0.2,0l0,0.1L211.2-8.4z M210.9-8.3l0-0.1l-0.2,0l0,0.1L210.9-8.3z             M210.5-8.2l0-0.1l-0.2,0l0,0.1L210.5-8.2z M210.1-8.2l0-0.1l-0.2,0l0,0.1L210.1-8.2z M209.7-8.1l0-0.1l-0.2,0l0,0.1            L209.7-8.1z M209.3-8l0-0.1l-0.2,0l0,0.1L209.3-8z M209-7.9l0-0.1l-0.2,0l0,0.1L209-7.9z M208.6-7.8l0-0.1l-0.2,0l0,0.1            L208.6-7.8z M208.2-7.7l0-0.1l-0.2,0l0,0.1L208.2-7.7z M207.8-7.7l0-0.1l-0.2,0l0,0.1L207.8-7.7z M207.5-7.6l0-0.1l-0.2,0            l0,0.1L207.5-7.6z M207.1-7.5l0-0.1l-0.2,0l0,0.1L207.1-7.5z M206.7-7.4l0-0.1l-0.2,0l0,0.1L206.7-7.4z M206.3-7.3l0-0.1            l-0.2,0l0,0.1L206.3-7.3z M206-7.2l0-0.1l-0.2,0.1l0,0.1L206-7.2z M205.6-7.1l0-0.1l-0.2,0.1l0,0.1L205.6-7.1z M203.9-6.6            l0.2-0.1l0-0.1l-0.2,0.1L203.9-6.6z M205.2-7l0-0.1L205-7.1l0,0.1L205.2-7z M204.3-6.7l0.2-0.1l0-0.1l-0.2,0.1L204.3-6.7z             M204.8-6.9l0-0.1L204.6-7l0,0.1L204.8-6.9z" class="color58595b svgShape"/><polygon fill="#58585b" points="217.3 -9.1 217.4 -9.2 217.3 -9.2 217.2 -9.2 217.2 -9.2 217.2 -9.1" class="color58595b svgShape"/><path fill="#58585b" d="M217.5-9.3l0.1-0.1l-0.1-0.1l-0.1,0.1L217.5-9.3z M217.8-9.6l0.1-0.1l-0.1-0.1l-0.1,0.1L217.8-9.6z             M218-9.9l0.1-0.1l-0.1-0.1l-0.1,0.1L218-9.9z M218.2-10.2l0.1-0.1l-0.1-0.1l-0.1,0.1L218.2-10.2z M218.5-10.5l0.1-0.1            l-0.1-0.1l-0.1,0.1L218.5-10.5z M218.7-10.8l0.1-0.1l-0.1-0.1l-0.1,0.1L218.7-10.8z M219-11.1l0.1-0.1l-0.1-0.1l-0.1,0.1            L219-11.1z M219.2-11.4l0.1-0.1l-0.1-0.1l-0.1,0.1L219.2-11.4z M219.5-11.7l0.1-0.1l-0.1-0.1l-0.1,0.1L219.5-11.7z             M219.7-12l0.1-0.1l-0.1-0.1l-0.1,0.1L219.7-12z M220-12.3l0.1-0.1l-0.1-0.1l-0.1,0.1L220-12.3z M220.2-12.6l0.1-0.1            l-0.1-0.1l-0.1,0.2L220.2-12.6z M220.4-12.9l0.1-0.1l-0.1-0.1l-0.1,0.1L220.4-12.9z M220.7-13.2l0.1-0.1l-0.1-0.1            l-0.1,0.1L220.7-13.2z M220.9-13.5l0.1-0.1l-0.1-0.1l-0.1,0.1L220.9-13.5z M221.2-13.8l0.1-0.1l-0.1-0.1l-0.1,0.1            L221.2-13.8z M221.4-14.1l0.1-0.1l-0.1-0.1l-0.1,0.1L221.4-14.1z M221.7-14.4l0.1-0.1l-0.1-0.1l-0.1,0.1L221.7-14.4z             M221.9-14.7l0.1-0.1l-0.1-0.1l-0.1,0.2L221.9-14.7z M222.2-15l0.1-0.1l-0.1-0.1l-0.1,0.1L222.2-15z M222.4-15.3            c0-0.1,0-0.1,0-0.2c0,0,0,0,0,0l-0.1,0c0,0,0,0,0,0c0,0,0,0.1,0,0.1L222.4-15.3z M222.2-15.7l0.1-0.1c0,0-0.1-0.1-0.1-0.1            l-0.1-0.1l-0.1,0.1L222.2-15.7C222.1-15.7,222.1-15.7,222.2-15.7z M221.9-15.9L222-16l-0.2-0.1l-0.1,0.1L221.9-15.9z             M221.5-16.1l0.1-0.1l-0.2-0.1l-0.1,0.1L221.5-16.1z M221.2-16.3l0.1-0.1l-0.2-0.1l-0.1,0.1L221.2-16.3z M220.9-16.5            l0.1-0.1l-0.2-0.1l-0.1,0.1L220.9-16.5z M220.6-16.8l0.1-0.1l-0.2-0.1l-0.1,0.1L220.6-16.8z M220.3-17l0.1-0.1l-0.2-0.1            l-0.1,0.1L220.3-17z M220-17.2l0.1-0.1l-0.2-0.1l-0.1,0.1L220-17.2z M219.6-17.4l0.1-0.1l-0.2-0.1l-0.1,0.1L219.6-17.4z             M219.3-17.6l0.1-0.1l-0.2-0.1l-0.1,0.1L219.3-17.6z M219-17.9l0.1-0.1l-0.2-0.1l-0.1,0.1L219-17.9z M218.7-18.1l0.1-0.1            l-0.2-0.1l-0.1,0.1L218.7-18.1z M218.4-18.3l0.1-0.1l-0.2-0.1l-0.1,0.1L218.4-18.3z M218-18.5l0.1-0.1l-0.2-0.1l-0.1,0.1            L218-18.5z M217.7-18.7l0.1-0.1l-0.2-0.1l-0.1,0.1L217.7-18.7z M217.4-18.9l0.1-0.1l-0.2-0.1l-0.1,0.1L217.4-18.9z             M217.1-19.2l0.1-0.1l-0.2-0.1l-0.1,0.1L217.1-19.2z M216.8-19.4l0.1-0.1l-0.2-0.1l-0.1,0.1L216.8-19.4z M216.4-19.6            l0.1-0.1l-0.2-0.1l-0.1,0.1L216.4-19.6z M216.1-19.8l0.1-0.1L216-20l-0.1,0.1L216.1-19.8z M215.8-20l0.1-0.1l-0.2-0.1            l-0.1,0.1L215.8-20z M215.5-20.2l0.1-0.1l-0.2-0.1l-0.1,0.1L215.5-20.2z M215.2-20.5l0.1-0.1l-0.2-0.1l-0.1,0.1            L215.2-20.5z M214.8-20.7l0.1-0.1l-0.2-0.1l-0.1,0.1L214.8-20.7z M214.5-20.9l0.1-0.1l-0.2-0.1l-0.1,0.1L214.5-20.9z             M214.2-21.1l0.1-0.1l-0.2-0.1l-0.1,0.1L214.2-21.1z" class="color58595b svgShape"/><g><path fill="#e6e7e8" d="M220.4-14.9c.4-.1.7-.5.6-.9-.1-.4-.5-.7-.9-.6-.4.1-.7.5-.6.9C219.6-15.1 220-14.8 220.4-14.9zM220.2-16.2c.3 0 .5.1.6.4 0 .3-.1.5-.4.6-.3 0-.5-.1-.6-.4C219.7-15.9 219.9-16.1 220.2-16.2zM217.2-16.9c.4-.1.7-.5.6-.9-.1-.4-.5-.7-.9-.6-.4.1-.7.5-.6.9C216.4-17.2 216.8-16.9 217.2-16.9zM217-18.2c.3 0 .5.1.6.4 0 .3-.1.5-.4.6-.3 0-.5-.1-.6-.4C216.5-17.9 216.7-18.2 217-18.2z" class="colore6e7e8 svgShape"/><g><path fill="#020b0d" d="M220.2-15.7c0,0.1,0,0.2,0.1,0.2c0,0,0.1,0,0.1,0c0.1,0,0.1,0,0.1-0.1c0-0.1,0.8-1.9,0.6-3.2            c0,0,0-0.1,0-0.1c0-0.1-0.1-0.3-0.1-0.4c-0.1-0.1-0.1-0.2-0.2-0.3c-0.4-0.4-1.1-0.4-2-0.1c0.2,0.1,0.3,0.1,0.5,0.2            c0.6-0.1,1-0.1,1.3,0.2c0,0,0,0,0.1,0.1c0.1,0.1,0.1,0.2,0.2,0.3c0,0,0,0,0,0.1C221-18,220.5-16.4,220.2-15.7z" class="color231f20 svgShape"/><path fill="#020b0d" d="M217.1-17.8c0.1,0.1,0.2,0.1,0.2,0c0.6-0.4,2.2-1.3,3.2-1.3c0.1,0,0.1,0,0.2,0c0.1,0,0.3,0,0.4,0.1            c0,0,0.1,0,0.1,0.1c0.1,0,0.1,0.1,0.2,0.1c0.2,0.1,0.3,0.1,0.5,0.2c-0.1-0.3-0.3-0.4-0.5-0.6c-0.1-0.1-0.3-0.1-0.4-0.2            c-0.1,0-0.3,0-0.4,0c-0.2,0-0.4,0-0.6,0.1c-1.3,0.3-2.7,1.2-2.8,1.3C217-17.9,217-17.8,217.1-17.8z" class="color231f20 svgShape"/></g></g><g><path fill="#e6e7e8" d="M214-19.1c0.4-0.1,0.6-0.5,0.5-0.9c-0.1-0.4-0.5-0.6-0.9-0.5c-0.4,0.1-0.6,0.5-0.5,0.9           C213.2-19.2,213.6-19,214-19.1z M213.7-20.3c0.3-0.1,0.6,0.1,0.6,0.4s-0.1,0.6-0.4,0.6c-0.3,0.1-0.6-0.1-0.6-0.4           C213.3-20,213.4-20.3,213.7-20.3z" class="colore6e7e8 svgShape"/><path fill="#020b0d" d="M213.7-19.7c0.1,0.1,0.2,0.1,0.2,0c0.3-0.4,1.2-1.2,2-1.5c0.3-0.1,0.5-0.1,0.7-0.1           c0.3,0.1,0.5,0.4,0.7,0.9c0.1,0.1,0.3,0.1,0.4,0.2c-0.2-0.8-0.5-1.2-1-1.4c-0.4-0.1-0.8,0-1.2,0.2           c-0.9,0.5-1.8,1.5-1.9,1.5C213.7-19.9,213.7-19.8,213.7-19.7z" class="color231f20 svgShape"/></g></g><g><path fill="#333333" d="M104.3-178.2l-18.2,73.1c-0.6,2.4-2.4,4.4-4.7,5.3L21.4-77.5l3.2,17.3L86-75        C98.9-78,110-86.3,116.6-97.7l25.5-43.9l37.3,47.9l18,71l17.1-4L208-92.2c-0.8-8.5-3.2-16.8-7.2-24.3L163.4-188l-32.2-5.4        L104.3-178.2z" class="color333 svgShape"/></g><g><path fill="#f7c69b" d="M140.5-283.3c-6.1,10.3-11.5,9.3-16.5-2.4l-0.4-11.9l15.8,1l0.6,7.6l0.1,1.4l0.1,1.9l0.1,1.4L140.5-283.3        z" class="colorf7c19b svgShape"/></g><g><path fill="#f7c69b" d="M141.3-320.3c0,0,8.8,14.4,5.7,24.4c-1.6,5.2-7,8.2-12.3,7.2c-4.1-0.8-10.2-2.7-15.7-7.2        c-0.5-0.4-2.4-14.7-2.4-14.7l2.3-5.5l12.5-4.5L141.3-320.3z" class="colorf7c19b svgShape"/></g><g><path fill="#333333" d="M130.5-304.5l-3.1-5.1c0,0,1.8,0.3,3.9,0.2c3.1-0.2,5.4-2.9,5.2-5.9l0-0.8c0,0,12.2-3.3,6.2-13.2        c-1.5-2.5-4.4-3.9-7.3-3.4c-2.6,0.4-6.1,1.9-10.5,5.6c-1.7,1.4-4,1.7-6.1,1.3c-2.3-0.4-5.6,0.4-6.5,7.3        c-0.1,1.2-0.5,2.3-1,3.4c-1.5,3-2.6,15.5,12.3,24.6c0.6,0.4,1.4-0.3,1.1-1c-2.1-4.2-5.7-12.7-1.2-13.8        c1.1-0.3,2.2,0.1,3.1,0.8l2,1.7c0.6,0.5,1.4,0.4,1.9-0.1l0,0C130.7-303.3,130.8-304,130.5-304.5z" class="color333 svgShape"/></g><g><path fill="#f7c69b" d="M239.8-215.4l5.9,0.7c0.9,0.1,1.9-0.2,2.6-0.8l3.1-2.6c0.6-0.5,1.5-0.4,2,0.2l0,0        c0.4,0.5,0.5,1.2,0.1,1.7l-2,3c-0.5,0.8-0.2,1.9,0.7,2.3l8.8,4.2c0.7,0.3,1,1.1,0.7,1.8l0,0c-0.3,0.7-1.1,1-1.8,0.7l-5.1-1.9        l5.8,2.2c0.8,0.3,1.2,1.3,0.8,2.1l0,0c-0.4,0.7-1.2,1.1-2,0.8l-8.4-3.5l6.7,2.7c0.8,0.3,1.2,1.2,0.8,2l0,0        c-0.3,0.8-1.2,1.1-2,0.8l-9-3.8l6.8,2.9c0.8,0.3,1.1,1.2,0.8,2l0,0c-0.3,0.7-1.1,1.1-1.9,0.9c-5.7-1.9-11.7-4.7-17.8-8.2        L239.8-215.4z" class="colorf7c19b svgShape"/></g><g><path fill="#eef4f6" d="M120.6-279.2l3.4-6.5c4.7,6.5,10.1,7.6,16.5,2.4l17.3,27.2l-5.8,12.4l-1.1,44.6l-5.5,21.1        c-3.8,5.5-9.8,6.2-17.1,4.2l-8.2-5.7l-11.2-44.6l0-18.8c0,0,3.8-13.1,4.4-13.8C113.9-257.1,120.6-279.2,120.6-279.2z" class="colorf1f2f2 svgShape"/><path fill="#455ad3" d="M245.1-217.3c0 0-49.2-17.6-50.6-18.3-3.9-1.9-24-28.7-31.5-34.9-2.3-1.9-4.7-3.7-7.3-5.4-2.3-1.5-4.6-2.8-7.1-4-1.3-.6-2.6-1.2-3.9-1.7-.5-.2-3.9-1.3-4.2-1.5.8 3.8 1.6 7.7 2.4 11.5 1.5 7.2 2.1 14.2 1.4 21.7-.5 5.9-1.4 11.8-1.5 17.8 0 7 1.5 13.7 2.4 20.5 1.6 12.8.4 25.9.1 38.7 0 1.8 1.6 3.3 3.4 3.1 7.2-.9 13.4-3.8 18.3-8.7.5-.5.8-1.3.7-2-1-8.5-2.1-17-3.3-25.5-1.4-9.3-4-29.1-2.5-29.4 1.4-.3 13.8 13.7 18.8 17.8.5.3 1.1.9 1.7 1.1 5.2 3.5 54.3 14.4 54.3 14.4L245.1-217.3zM124-285.7c0 0 .4 3.6.4 3.8 1.5 14.8 4.2 29.7 4.6 44.7.4 18.6-4.2 37.2-1.7 55.8.2 1.6.5 3.1.8 4.7.2.9.7 2.2.2 3.1-4.7 9.9-22.2 10.4-27.1 10.5-.8 0-1.5-.6-1.5-1.4l1-45.5c.1-3.9 0-7.8-.4-11.7l-2.9-31.7c-1.3-14.1 7.7-27.2 21.4-30.9L124-285.7z" class="color1e88e5 svgShape"/></g><path fill="#e79f5f" d="M140.3-285.7c-7.2,0.2-12.1-4.1-12.4-4.4c5.1,2.8,11.2,1.4,12.2,1.1l0.1,1.4L140.3-285.7z" class="coloreab896 svgShape"/><g><path fill="#455ad3" d="M67.5-205.2l-15.2-4.6l15.1-39.7c2.6-7,7.2-13,13.2-17.4c9.3-6.8,24.6-15.9,43.4-18.9l-13.2,30        c-9.1,1.9-17.9,6-26.2,12.9C81.2-241.3,67.5-205.2,67.5-205.2z" class="color1e88e5 svgShape"/></g></g><g><polygon fill="#58585b" points="331.3 -177.1 331.3 -56.4 325.1 -56.6 325.1 -177.3" class="color58595b svgShape"/><polygon fill="#58585b" points="420.9 -174.8 420.1 -167.7 407.9 -61.2 407.1 -54.2 400.9 -54.3 401.7 -61.4 413.8 -167.9 414.6 -175" class="color58595b svgShape"/><polygon fill="#58585b" points="375.4 -176 374.9 -168.9 368.3 -62.4 367.9 -55.3 361.7 -55.5 362.1 -62.6 368.7 -169.1 369.2 -176.2" class="color58595b svgShape"/></g></pattern><ellipse cx="1500" cy="2486.5" fill="#f5f5f5" rx="1475" ry="40.6" class="colorf5f5f5 svgShape"/><rect width="1546.4" height="2013.6" x="1226.1" y="472.9" fill="#eeeeee" class="coloreee svgShape"/><rect width="1258.6" height="183.3" x="1370" y="1362.7" fill="#455ad3" class="color1e88e5 svgShape"/><rect width="1258.6" height="183.3" x="1370" y="1632.4" fill="#455ad3" class="color1e88e5 svgShape"/><path fill="#ffffff" d="M1443.7 1415.1h12.5v41.7c0 6.6.2 10.9.5 12.9.5 3.2 1.8 5.7 3.8 7.6 2 1.9 4.8 2.9 8.3 2.9 3.6 0 6.2-.9 8-2.7 1.8-1.8 2.9-4 3.3-6.6.4-2.6.6-7 .6-13.1v-42.6h12.5v40.4c0 9.2-.3 15.8-1 19.6-.7 3.8-1.9 7-3.7 9.7-1.8 2.6-4.3 4.7-7.3 6.3-3 1.6-7 2.3-11.9 2.3-5.9 0-10.4-.8-13.5-2.5-3.1-1.7-5.5-3.9-7.3-6.6-1.8-2.7-3-5.6-3.5-8.5-.8-4.4-1.2-10.9-1.2-19.5V1415.1zM1502.1 1476.2l11.9-2.3c.5 2.9 1.5 5.1 3.1 6.5 1.6 1.5 3.7 2.2 6.5 2.2 3.1 0 5.4-.7 6.9-2.1 1-1 1.6-2.3 1.6-3.9 0-1.1-.3-2-.8-2.8-.6-.7-1.9-1.3-4-1.9-9.6-2.6-15.7-5-18.3-7.2-3.6-3-5.3-7.2-5.3-12.6 0-4.8 1.5-8.9 4.6-12.2 3.1-3.3 7.8-4.9 14.3-4.9 6.2 0 10.7 1.2 13.7 3.7 3 2.5 5.1 6.2 6.2 11l-11.2 2.6c-.5-2.2-1.4-3.8-2.7-5-1.3-1.2-3.3-1.7-5.7-1.7-3.1 0-5.4.5-6.7 1.6-.9.8-1.4 1.8-1.4 3 0 1.1.4 1.9 1.2 2.7 1.1 1 4.8 2.4 11.1 4.1 6.3 1.8 10.8 4 13.3 6.6 2.5 2.6 3.7 6.3 3.7 11 0 5.1-1.7 9.5-5.2 13.2-3.4 3.7-8.5 5.5-15.3 5.5-6.1 0-11-1.5-14.5-4.6C1505.5 1485.7 1503.2 1481.5 1502.1 1476.2zM1580.6 1474.4l11.9 2.5c-1.5 5.4-3.9 9.5-7.2 12.3-3.3 2.8-7.4 4.2-12.3 4.2-7.8 0-13.6-3.2-17.4-9.5-3-5.1-4.4-11.5-4.4-19.2 0-9.2 1.9-16.5 5.8-21.7 3.9-5.2 8.8-7.9 14.8-7.9 6.7 0 12 2.7 15.8 8.2 3.9 5.5 5.7 13.9 5.5 25.2h-29.8c.1 4.4 1 7.8 2.9 10.2 1.8 2.4 4.1 3.6 6.9 3.6 1.9 0 3.4-.6 4.7-1.9C1579 1479.2 1579.9 1477.2 1580.6 1474.4zM1581.3 1459.5c-.1-4.3-1-7.5-2.7-9.7-1.7-2.2-3.8-3.3-6.2-3.3-2.6 0-4.7 1.2-6.4 3.5-1.7 2.3-2.5 5.5-2.5 9.6H1581.3zM1614.2 1492.1h-11.9v-55.8h11.1v7.9c1.9-3.7 3.6-6.2 5.1-7.4 1.5-1.2 3.2-1.8 5.1-1.8 2.7 0 5.3.9 7.8 2.8l-3.7 12.9c-2-1.6-3.9-2.4-5.6-2.4-1.7 0-3.1.6-4.2 1.7-1.2 1.1-2.1 3.2-2.7 6.2-.7 3-1 9.2-1 18.7V1492.1zM1677.4 1492.1h-11.9v-28.5c0-6-.3-9.9-.8-11.7-.5-1.8-1.3-3.1-2.5-4.1-1.1-1-2.5-1.5-4.1-1.5-2.1 0-3.9.7-5.5 2.1-1.6 1.4-2.8 3.3-3.4 5.6-.6 2.3-.9 6.6-.9 12.8v25.3h-11.9v-55.8h11.1v8.2c3.9-6.3 8.9-9.5 14.8-9.5 2.6 0 5 .6 7.2 1.8 2.2 1.2 3.8 2.7 4.9 4.5 1.1 1.8 1.9 3.9 2.3 6.2.4 2.3.7 5.6.7 9.9V1492.1zM1698.4 1453.4l-10.8-2.4c1.2-5.4 3.3-9.4 6.3-12 3-2.6 7.4-3.9 13.2-3.9 5.3 0 9.3.8 11.9 2.3 2.6 1.6 4.4 3.5 5.5 5.9 1.1 2.4 1.6 6.8 1.6 13.2l-.1 17.2c0 4.9.2 8.5.6 10.8.4 2.3 1.1 4.8 2.1 7.5h-11.8c-.3-1-.7-2.4-1.1-4.4-.2-.9-.3-1.5-.4-1.7-2 2.5-4.2 4.3-6.5 5.5-2.3 1.2-4.8 1.8-7.4 1.8-4.6 0-8.3-1.6-10.9-4.7-2.7-3.1-4-7.1-4-11.8 0-3.2.6-6 1.8-8.4 1.2-2.5 2.9-4.4 5.1-5.7 2.2-1.3 5.3-2.5 9.5-3.4 5.6-1.3 9.4-2.5 11.6-3.6v-1.5c0-2.8-.6-4.9-1.7-6.1-1.1-1.2-3.3-1.8-6.4-1.8-2.1 0-3.8.5-5 1.5C1700.1 1449 1699.1 1450.8 1698.4 1453.4zM1714.3 1465.3c-1.5.6-3.9 1.4-7.2 2.3-3.3.9-5.5 1.7-6.5 2.6-1.6 1.4-2.3 3.1-2.3 5.2 0 2.1.6 3.9 1.9 5.4 1.2 1.5 2.8 2.3 4.7 2.3 2.1 0 4.2-.9 6.1-2.6 1.4-1.3 2.4-3 2.8-4.9.3-1.3.5-3.7.5-7.2V1465.3zM1736.8 1436.4h11v7.6c3.9-5.9 8.6-8.9 14-8.9 2.9 0 5.4.7 7.5 2.2 2.1 1.5 3.9 3.7 5.2 6.7 2-3 4.1-5.2 6.4-6.7 2.3-1.5 4.7-2.2 7.3-2.2 3.3 0 6.1.8 8.4 2.5 2.3 1.7 4 4.1 5.1 7.3.8 2.4 1.2 6.2 1.2 11.6v35.7h-11.9v-31.9c0-5.5-.4-9.1-1.2-10.7-1.1-2.1-2.8-3.2-5.1-3.2-1.7 0-3.2.6-4.7 1.9-1.5 1.3-2.5 3.1-3.2 5.5-.7 2.4-1 6.3-1 11.5v26.8H1764v-30.6c0-5.4-.2-8.9-.6-10.5-.4-1.6-1.1-2.7-2-3.5-.9-.8-2.1-1.2-3.6-1.2-1.8 0-3.5.6-5 1.8-1.5 1.2-2.5 3-3.2 5.3-.6 2.3-1 6.1-1 11.5v27.1h-11.9V1436.4zM1840.9 1474.4l11.9 2.5c-1.5 5.4-3.9 9.5-7.2 12.3-3.3 2.8-7.4 4.2-12.3 4.2-7.8 0-13.6-3.2-17.4-9.5-3-5.1-4.4-11.5-4.4-19.2 0-9.2 1.9-16.5 5.8-21.7 3.9-5.2 8.8-7.9 14.8-7.9 6.7 0 12 2.7 15.8 8.2 3.9 5.5 5.7 13.9 5.5 25.2h-29.8c.1 4.4 1 7.8 2.9 10.2 1.8 2.4 4.1 3.6 6.9 3.6 1.9 0 3.4-.6 4.7-1.9C1839.3 1479.2 1840.3 1477.2 1840.9 1474.4zM1841.6 1459.5c-.1-4.3-1-7.5-2.7-9.7-1.7-2.2-3.8-3.3-6.2-3.3-2.6 0-4.7 1.2-6.4 3.5-1.7 2.3-2.5 5.5-2.5 9.6H1841.6z" class="colorfff svgShape"/><g><path fill="#ffffff" d="M1443.8 1763v-79.3h20.7c7.8 0 13 .4 15.3 1.2 3.7 1.2 6.7 3.8 9.2 7.8 2.5 4 3.7 9.1 3.7 15.4 0 4.9-.7 9-2.1 12.3-1.4 3.3-3.2 5.9-5.4 7.8-2.2 1.9-4.4 3.1-6.7 3.8-3.1.8-7.5 1.1-13.4 1.1h-8.4v29.9H1443.8zM1456.7 1697.2v22.5h7.1c5.1 0 8.5-.4 10.2-1.2 1.7-.8 3.1-2.1 4-3.9 1-1.8 1.5-3.8 1.5-6.2 0-2.9-.7-5.3-2-7.1-1.4-1.9-3.1-3-5.2-3.5-1.5-.4-4.6-.5-9.3-.5H1456.7zM1512.4 1723.1l-11.1-2.5c1.2-5.5 3.4-9.7 6.5-12.3 3.1-2.7 7.6-4 13.6-4 5.5 0 9.5.8 12.2 2.4 2.7 1.6 4.6 3.6 5.6 6.1 1.1 2.5 1.6 7 1.6 13.6l-.1 17.7c0 5 .2 8.8.6 11.2.4 2.4 1.1 5 2.2 7.7h-12.1c-.3-1-.7-2.5-1.2-4.5-.2-.9-.3-1.5-.4-1.8-2.1 2.5-4.3 4.4-6.7 5.7-2.4 1.3-4.9 1.9-7.6 1.9-4.8 0-8.5-1.6-11.3-4.8-2.7-3.2-4.1-7.3-4.1-12.2 0-3.2.6-6.1 1.9-8.7 1.2-2.5 3-4.5 5.3-5.8 2.3-1.4 5.5-2.5 9.7-3.5 5.7-1.3 9.7-2.6 11.9-3.7v-1.5c0-2.9-.6-5-1.7-6.2-1.2-1.2-3.4-1.9-6.6-1.9-2.2 0-3.9.5-5.1 1.6C1514.1 1718.6 1513.1 1720.4 1512.4 1723.1zM1528.8 1735.4c-1.6.6-4.1 1.4-7.5 2.3-3.4.9-5.6 1.8-6.7 2.6-1.6 1.4-2.4 3.2-2.4 5.4 0 2.1.6 4 1.9 5.5 1.3 1.6 2.9 2.3 4.9 2.3 2.2 0 4.3-.9 6.3-2.7 1.5-1.4 2.5-3 2.9-5 .3-1.3.5-3.8.5-7.4V1735.4zM1548.6 1746.6l12.3-2.3c.5 3 1.6 5.2 3.2 6.7 1.6 1.5 3.8 2.3 6.7 2.3 3.2 0 5.6-.7 7.2-2.2 1.1-1 1.6-2.4 1.6-4.1 0-1.2-.3-2.1-.9-2.9-.6-.7-2-1.4-4.1-2-9.9-2.7-16.1-5.2-18.8-7.4-3.7-3.1-5.5-7.4-5.5-12.9 0-5 1.6-9.2 4.8-12.5 3.2-3.4 8.1-5.1 14.7-5.1 6.3 0 11 1.3 14.1 3.8 3.1 2.6 5.2 6.3 6.4 11.4l-11.6 2.6c-.5-2.2-1.4-3.9-2.8-5.1-1.4-1.2-3.4-1.8-5.9-1.8-3.2 0-5.5.6-6.9 1.7-.9.8-1.4 1.8-1.4 3.1 0 1.1.4 2 1.2 2.8 1.1 1 4.9 2.4 11.4 4.3 6.5 1.8 11.1 4.1 13.7 6.8 2.6 2.7 3.8 6.5 3.8 11.3 0 5.3-1.8 9.8-5.3 13.6-3.5 3.8-8.8 5.7-15.7 5.7-6.3 0-11.3-1.6-15-4.8C1552.1 1756.4 1549.7 1752.1 1548.6 1746.6zM1598.2 1746.6l12.3-2.3c.5 3 1.6 5.2 3.2 6.7 1.6 1.5 3.8 2.3 6.7 2.3 3.2 0 5.6-.7 7.2-2.2 1.1-1 1.6-2.4 1.6-4.1 0-1.2-.3-2.1-.9-2.9-.6-.7-2-1.4-4.1-2-9.9-2.7-16.1-5.2-18.8-7.4-3.7-3.1-5.5-7.4-5.5-12.9 0-5 1.6-9.2 4.8-12.5 3.2-3.4 8.1-5.1 14.7-5.1 6.3 0 11 1.3 14.1 3.8 3.1 2.6 5.2 6.3 6.4 11.4l-11.6 2.6c-.5-2.2-1.4-3.9-2.8-5.1-1.4-1.2-3.4-1.8-5.9-1.8-3.2 0-5.5.6-6.9 1.7-.9.8-1.4 1.8-1.4 3.1 0 1.1.4 2 1.2 2.8 1.1 1 4.9 2.4 11.4 4.3 6.5 1.8 11.1 4.1 13.7 6.8 2.6 2.7 3.8 6.5 3.8 11.3 0 5.3-1.8 9.8-5.3 13.6-3.5 3.8-8.8 5.7-15.7 5.7-6.3 0-11.3-1.6-15-4.8C1601.8 1756.4 1599.4 1752.1 1598.2 1746.6zM1660.8 1763l-14.6-57.4h11.9l8.7 37.6 8-37.6h11.8l7.7 37.6 8.9-37.6h12.1l-14.9 57.4h-11.8l-8-36.9-7.8 36.9H1660.8zM1718.8 1733.5c0-5 1-9.9 3-14.7 2-4.7 4.8-8.3 8.5-10.8 3.7-2.5 7.8-3.7 12.3-3.7 7 0 12.7 2.8 17.2 8.5 4.5 5.6 6.7 12.8 6.7 21.4 0 8.7-2.3 15.9-6.8 21.6-4.5 5.7-10.2 8.6-17.1 8.6-4.2 0-8.3-1.2-12.1-3.6-3.9-2.4-6.8-5.9-8.8-10.5C1719.8 1745.7 1718.8 1740.1 1718.8 1733.5zM1731.4 1734.3c0 5.7 1.1 10.1 3.3 13.1 2.2 3 4.9 4.5 8.1 4.5 3.2 0 5.9-1.5 8-4.5 2.2-3 3.2-7.4 3.2-13.2 0-5.6-1.1-9.9-3.2-13-2.2-3-4.8-4.5-8-4.5-3.2 0-5.9 1.5-8.1 4.5C1732.5 1724.2 1731.4 1728.6 1731.4 1734.3zM1787.9 1763h-12.3v-57.4h11.4v8.2c1.9-3.9 3.7-6.4 5.3-7.6 1.6-1.2 3.3-1.8 5.3-1.8 2.8 0 5.5 1 8.1 2.9l-3.8 13.2c-2.1-1.7-4-2.5-5.8-2.5-1.7 0-3.2.6-4.4 1.8-1.2 1.2-2.1 3.3-2.8 6.4-.7 3.1-1 9.5-1 19.2V1763zM1853.4 1763H1842v-8.4c-1.9 3.3-4.1 5.7-6.7 7.3-2.6 1.6-5.2 2.4-7.8 2.4-5.3 0-9.9-2.7-13.7-8-3.8-5.3-5.7-12.7-5.7-22.2 0-9.7 1.8-17.1 5.5-22.2 3.7-5.1 8.4-7.6 14-7.6 5.2 0 9.6 2.7 13.4 8v-28.5h12.3V1763zM1820.7 1733.1c0 6.1.7 10.6 2 13.3 2 4 4.7 5.9 8.3 5.9 2.8 0 5.2-1.5 7.2-4.5 2-3 3-7.4 3-13.3 0-6.6-1-11.3-2.9-14.2-1.9-2.9-4.4-4.4-7.4-4.4-2.9 0-5.3 1.4-7.3 4.3C1821.7 1723.1 1820.7 1727.4 1820.7 1733.1z" class="colorfff svgShape"/></g><g><path fill="#ef9b50" d="M2299.3,2211.8h-600c-49.4,0-89.5-40.1-89.5-89.5l0,0c0-49.4,40.1-89.5,89.5-89.5h600     c49.4,0,89.5,40.1,89.5,89.5l0,0C2388.8,2171.7,2348.8,2211.8,2299.3,2211.8z" class="coloref5350 svgShape"/><path fill="#ffffff" d="M1716.5 2131.3l9.6 4.2c-1.5 7.4-3.9 13-7.4 16.6-3.4 3.6-7.8 5.4-13.1 5.4-6.5 0-11.9-3.1-16.1-9.3-4.2-6.2-6.3-14.6-6.3-25.3 0-11.3 2.1-20.1 6.3-26.4 4.2-6.3 9.8-9.4 16.7-9.4 6 0 10.9 2.5 14.6 7.4 2.2 2.9 3.9 7.1 5 12.5l-9.8 3.3c-.6-3.5-1.8-6.3-3.6-8.4-1.8-2-4.1-3.1-6.7-3.1-3.6 0-6.6 1.8-8.9 5.4-2.3 3.6-3.4 9.5-3.4 17.6 0 8.6 1.1 14.7 3.4 18.4 2.2 3.7 5.1 5.5 8.7 5.5 2.6 0 4.9-1.2 6.8-3.5C1714.3 2139.9 1715.7 2136.3 1716.5 2131.3zM1734.7 2156.3v-68.1h20.9c5.2 0 9.1.6 11.4 1.8 2.4 1.2 4.3 3.4 5.7 6.5 1.4 3.1 2.1 6.7 2.1 10.7 0 5.1-1.1 9.3-3.3 12.7-2.2 3.3-5.4 5.4-9.7 6.3 2.1 1.7 3.9 3.6 5.3 5.7 1.4 2.1 3.3 5.8 5.6 11.1l6 13.3H1767l-7.2-14.8c-2.5-5.3-4.3-8.6-5.2-10-.9-1.4-1.9-2.3-3-2.8-1.1-.5-2.7-.8-5-.8h-2v28.4H1734.7zM1744.6 2117h7.3c4.8 0 7.7-.3 8.9-.8 1.2-.6 2.1-1.5 2.8-2.9.7-1.4 1-3.1 1-5.1 0-2.3-.4-4.1-1.3-5.6-.9-1.4-2.1-2.3-3.7-2.7-.8-.2-3.2-.2-7.2-.2h-7.7V2117zM1784.2 2156.3v-68.1h36.4v11.5h-26.5v15.1h24.7v11.5h-24.7v18.5h27.4v11.5H1784.2zM1874.3 2156.3h-10.8l-4.3-15.5h-19.6l-4.1 15.5H1825l19.1-68.1h10.5L1874.3 2156.3zM1856 2129.4l-6.8-25.3-6.6 25.3H1856zM1885.5 2156.3v-56.6h-14.6v-11.5h39v11.5h-14.5v56.6H1885.5zM1916.4 2156.3v-68.1h36.4v11.5h-26.5v15.1h24.7v11.5h-24.7v18.5h27.4v11.5H1916.4zM2023 2156.3h-10.8l-4.3-15.5h-19.6l-4.1 15.5h-10.5l19.1-68.1h10.5L2023 2156.3zM2004.7 2129.4l-6.8-25.3-6.6 25.3H2004.7zM2059.7 2131.3l9.6 4.2c-1.5 7.4-3.9 13-7.4 16.6-3.4 3.6-7.8 5.4-13.1 5.4-6.5 0-11.9-3.1-16.1-9.3-4.2-6.2-6.3-14.6-6.3-25.3 0-11.3 2.1-20.1 6.3-26.4 4.2-6.3 9.8-9.4 16.7-9.4 6 0 10.9 2.5 14.6 7.4 2.2 2.9 3.9 7.1 5 12.5l-9.8 3.3c-.6-3.5-1.8-6.3-3.6-8.4-1.8-2-4.1-3.1-6.7-3.1-3.6 0-6.6 1.8-8.9 5.4-2.3 3.6-3.4 9.5-3.4 17.6 0 8.6 1.1 14.7 3.4 18.4 2.2 3.7 5.1 5.5 8.7 5.5 2.6 0 4.9-1.2 6.8-3.5C2057.5 2139.9 2058.8 2136.3 2059.7 2131.3zM2109.2 2131.3l9.6 4.2c-1.5 7.4-3.9 13-7.4 16.6-3.4 3.6-7.8 5.4-13.1 5.4-6.5 0-11.9-3.1-16.1-9.3-4.2-6.2-6.3-14.6-6.3-25.3 0-11.3 2.1-20.1 6.3-26.4 4.2-6.3 9.8-9.4 16.7-9.4 6 0 10.9 2.5 14.6 7.4 2.2 2.9 3.9 7.1 5 12.5l-9.8 3.3c-.6-3.5-1.8-6.3-3.6-8.4-1.8-2-4.1-3.1-6.7-3.1-3.6 0-6.6 1.8-8.9 5.4-2.3 3.6-3.4 9.5-3.4 17.6 0 8.6 1.1 14.7 3.4 18.4 2.2 3.7 5.1 5.5 8.7 5.5 2.6 0 4.9-1.2 6.8-3.5C2107 2139.9 2108.4 2136.3 2109.2 2131.3zM2125.3 2122.7c0-6.9.7-12.8 2.2-17.5 1.1-3.5 2.6-6.6 4.6-9.3 1.9-2.8 4-4.8 6.4-6.1 3.1-1.8 6.6-2.7 10.6-2.7 7.2 0 13 3.1 17.4 9.3 4.3 6.2 6.5 14.9 6.5 26 0 11-2.2 19.6-6.5 25.8-4.3 6.2-10.1 9.3-17.3 9.3-7.3 0-13.1-3.1-17.4-9.3C2127.5 2142 2125.3 2133.5 2125.3 2122.7zM2135.6 2122.2c0 7.7 1.3 13.6 3.9 17.5 2.6 4 5.8 6 9.8 6 4 0 7.2-2 9.7-5.9 2.5-3.9 3.8-9.9 3.8-17.8 0-7.8-1.2-13.6-3.7-17.5-2.5-3.8-5.7-5.8-9.8-5.8-4.1 0-7.4 1.9-9.9 5.8C2136.8 2108.5 2135.6 2114.4 2135.6 2122.2zM2180.7 2088.2h9.9v36.9c0 5.9.1 9.7.4 11.4.4 2.8 1.4 5 3 6.7 1.6 1.7 3.8 2.5 6.6 2.5 2.8 0 4.9-.8 6.4-2.4 1.4-1.6 2.3-3.6 2.6-5.9s.4-6.2.4-11.6v-37.7h9.9v35.8c0 8.2-.3 14-.8 17.3-.5 3.4-1.5 6.2-3 8.6-1.4 2.3-3.4 4.2-5.8 5.6-2.4 1.4-5.6 2.1-9.4 2.1-4.7 0-8.2-.8-10.7-2.3-2.4-1.5-4.3-3.5-5.7-5.9-1.4-2.4-2.3-4.9-2.8-7.6-.6-3.9-1-9.7-1-17.3V2088.2zM2230.4 2156.3v-68.1h9.7l20.1 45.5v-45.5h9.2v68.1h-10l-19.8-44.4v44.4H2230.4zM2290.9 2156.3v-56.6h-14.6v-11.5h39v11.5h-14.5v56.6H2290.9z" class="colorfff svgShape"/></g><g><path fill="#ffffff" d="M2166.3,1203.4h-333.9c-14.5,0-26.3-11.8-26.3-26.3V966c0-14.5,11.8-26.3,26.3-26.3h333.9       c14.5,0,26.3,11.8,26.3,26.3V1177C2192.7,1191.6,2180.8,1203.4,2166.3,1203.4z M1832.4,957.7c-4.6,0-8.3,3.7-8.3,8.3V1177       c0,4.6,3.7,8.3,8.3,8.3h333.9c4.6,0,8.3-3.7,8.3-8.3V966c0-4.6-3.7-8.3-8.3-8.3H1832.4z" class="colorfff svgShape"/><polygon fill="#ffffff" points="1999.4 1109.8 1813.6 961.9 1824.8 947.8 1999.4 1086.8 2173.9 947.8 2185.1 961.9" class="colorfff svgShape"/><rect width="18" height="188.5" x="2095.2" y="1037.2" fill="#ffffff" transform="rotate(-53.049 2104.287 1131.562)" class="colorfff svgShape"/><polygon fill="#ffffff" points="1824.7 1201.5 1813.6 1187.3 1817.4 1184.4 1965 1068.3 1976.2 1082.4" class="colorfff svgShape"/></g><path fill="#eb7aa5" d="M2772.6,519.6v222.1c-10.5-15.9-16.6-35.7-16.6-57.1c0,52.9-37.7,95.7-84.2,95.7c-46.5,0-84.2-42.8-84.2-95.7    c0,52.9-37.7,95.7-84.2,95.7c-46.5,0-84.2-42.8-84.2-95.7c0,52.9-37.7,95.7-84.2,95.7c-46.5,0-84.2-42.8-84.2-95.7    c0,52.9-37.7,95.7-84.2,95.7c-46.5,0-84.1-42.8-84.1-95.7c0,52.9-37.7,95.7-84.2,95.7c-46.5,0-84.2-42.8-84.2-95.7    c0,52.9-37.7,95.7-84.1,95.7c-46.5,0-84.2-42.8-84.2-95.7c0,52.9-37.7,95.7-84.2,95.7c-46.5,0-84.2-42.8-84.2-95.7    c0,52.9-37.7,95.7-84.2,95.7c-46.5,0-84.2-42.8-84.2-95.7c0,52.9-37.7,95.7-84.2,95.7c-46.5,0-84.2-42.8-84.2-95.7    c0,19.7-5.2,38-14.2,53.2V517.4l16.2-14.6h1511.6L2772.6,519.6z" class="colorbdbdbd svgShape"/><g><path fill="#e59045" d="M1240.3,624.6v30.2c0,52.9-37.7,95.8-84.2,95.8c-46.5,0-84.2-42.9-84.2-95.8v-30.2H1240.3z" class="colore54545 svgShape"/><path fill="#e0e0e0" d="M1408.7,624.6v30.2c0,52.9-37.7,95.8-84.2,95.8c-46.5,0-84.2-42.9-84.2-95.8v-30.2H1408.7z" class="colore0e0e0 svgShape"/><path fill="#e59045" d="M1577.2,624.6v30.2c0,52.9-37.7,95.8-84.2,95.8c-46.5,0-84.2-42.9-84.2-95.8v-30.2H1577.2z" class="colore54545 svgShape"/><path fill="#e0e0e0" d="M1745.6,624.6v30.2c0,52.9-37.7,95.8-84.2,95.8c-46.5,0-84.2-42.9-84.2-95.8v-30.2H1745.6z" class="colore0e0e0 svgShape"/><path fill="#e59045" d="M1913.9,624.6v30.2c0,52.9-37.7,95.8-84.2,95.8c-46.5,0-84.2-42.9-84.2-95.8v-30.2H1913.9z" class="colore54545 svgShape"/><path fill="#e0e0e0" d="M2082.3,624.6v30.2c0,52.9-37.7,95.8-84.2,95.8c-46.5,0-84.2-42.9-84.2-95.8v-30.2H2082.3z" class="colore0e0e0 svgShape"/><polygon fill="#ef9b50" points="1913.9 472.9 1913.9 624.6 1745.6 624.6 1776 472.9" class="coloref5350 svgShape"/><polygon fill="#f5f5f5" points="1776 472.9 1745.6 624.6 1577.2 624.6 1645 472.9" class="colorf5f5f5 svgShape"/><polygon fill="#ef9b50" points="1645 472.9 1577.2 624.6 1408.7 624.6 1503.3 472.9" class="coloref5350 svgShape"/><polygon fill="#f5f5f5" points="1503.3 472.9 1408.7 624.6 1240.3 624.6 1368.3 472.9" class="colorf5f5f5 svgShape"/><polygon fill="#ef9b50" points="1368.3 472.9 1240.3 624.6 1073.9 624.6 1242.4 472.9" class="coloref5350 svgShape"/><path fill="#e59045" d="M2755.9,624.6v30.2c0,52.9,37.7,95.8,84.2,95.8s84.2-42.9,84.2-95.8v-30.2H2755.9z" class="colore54545 svgShape"/><path fill="#e0e0e0" d="M2587.5,624.6v30.2c0,52.9,37.7,95.8,84.2,95.8c46.5,0,84.2-42.9,84.2-95.8v-30.2H2587.5z" class="colore0e0e0 svgShape"/><path fill="#e59045" d="M2419.1,624.6v30.2c0,52.9,37.7,95.8,84.2,95.8c46.5,0,84.2-42.9,84.2-95.8v-30.2H2419.1z" class="colore54545 svgShape"/><path fill="#e0e0e0" d="M2250.7,624.6v30.2c0,52.9,37.7,95.8,84.2,95.8c46.5,0,84.2-42.9,84.2-95.8v-30.2H2250.7z" class="colore0e0e0 svgShape"/><path fill="#e59045" d="M2082.3,624.6v30.2c0,52.9,37.7,95.8,84.2,95.8c46.5,0,84.2-42.9,84.2-95.8v-30.2H2082.3z" class="colore54545 svgShape"/><polygon fill="#ef9b50" points="2082.3 472.9 2082.3 624.6 2250.7 624.6 2220.3 472.9" class="coloref5350 svgShape"/><polygon fill="#f5f5f5" points="2220.3 472.9 2250.7 624.6 2419.1 624.6 2351.3 472.9" class="colorf5f5f5 svgShape"/><polygon fill="#ef9b50" points="2351.3 472.9 2419.1 624.6 2587.5 624.6 2493 472.9" class="coloref5350 svgShape"/><polygon fill="#f5f5f5" points="2493 472.9 2587.5 624.6 2755.9 624.6 2628 472.9" class="colorf5f5f5 svgShape"/><polygon fill="#ef9b50" points="2628 472.9 2755.9 624.6 2922.3 624.6 2753.9 472.9" class="coloref5350 svgShape"/><rect width="168.4" height="151.6" x="1913.9" y="472.9" fill="#f5f5f5" class="colorf5f5f5 svgShape"/></g><g><path fill="#58585b" stroke="url(#a)" stroke-miterlimit="10" d="M1692.3,1944.3c-11.5-20.7-32.5-33.4-56.2-34.1h-0.3l-140.9-3.6l-21.2-0.5l-133.2-3.4l-21.1-0.6           l-128.5-3.3l-21.1-0.5l-97.2-2.5c-4.3-59.8-53.5-108-114.7-109.7l-91-2.6c-6.7-0.2-12.2,5-12.4,11.7           c-0.2,6.7,5,12.2,11.7,12.4l91,2.6c52,1.5,93.1,45,91.6,97.1l-10.2,351.9c-0.7,24.8,18.8,45.5,43.6,46.3l87.6,2.5l21.1,0.7           l103.2,3l21.1,0.6l111.9,3.3l21.1,0.6l23.2,0.7c24.8,0.7,47.8-12.1,60.4-33.5l159.7-272.9           C1703.6,1989.7,1703.9,1965,1692.3,1944.3z M1670.9,1998.1L1511.2,2271c-8,13.8-22.9,22-38.9,21.6l-21.2-0.6l-21.2-0.7           l-113.2-3.2l-21-0.7l-104.7-3l-21.1-0.6l-86.9-2.5c-11.5-0.3-20.6-10-20.2-21.5l9.9-340l97.3,2.5l21.1,0.5l127.1,3.3           l21,0.5l132,3.4l21.2,0.5l143,3.7c0.1,0,0.1,0,0.1,0c15.1,0.5,28.5,8.6,35.8,21.7           C1678.6,1969.3,1678.5,1984.9,1670.9,1998.1z" class="color58595b svgShape"/><path fill="#58585b" stroke="url(#a)" stroke-miterlimit="10" d="M1455.8,2408.3l-361.1-10.5c-26.8-0.8-47.9-23.2-47.1-50l1.8-63.6c0.2-6.6,5.7-11.9,12.4-11.7           c6.6,0.2,11.9,5.7,11.7,12.4l-1.8,63.6c-0.4,13.5,10.3,24.8,23.8,25.2l361.1,10.5c6.6,0.2,11.9,5.7,11.7,12.4           C1468,2403.3,1462.5,2408.5,1455.8,2408.3z" class="color58595b svgShape"/><g><path fill="#58585b" stroke="url(#a)" stroke-miterlimit="10" d="M1664.9 2043.5l-607.3-17.6c-6.6-.2-11.9-5.7-11.7-12.4.2-6.6 5.7-11.9 12.4-11.7l607.3 17.6c6.6.2 11.9 5.7 11.7 12.4C1677.1 2038.4 1671.5 2043.7 1664.9 2043.5zM1610 2137.3l-555.2-16.1c-6.6-.2-11.9-5.7-11.7-12.4.2-6.6 5.7-11.9 12.4-11.7l555.2 16.1c6.6.2 11.9 5.7 11.7 12.4C1622.2 2132.3 1616.6 2137.5 1610 2137.3zM1555.1 2231.2l-503.1-14.6c-6.6-.2-11.9-5.7-11.7-12.4.2-6.6 5.7-11.9 12.4-11.7l503.1 14.6c6.6.2 11.9 5.7 11.7 12.4C1567.3 2226.2 1561.7 2231.4 1555.1 2231.2z" class="color58595b svgShape"/></g><g><path fill="#58585b" stroke="url(#a)" stroke-miterlimit="10" d="M1110.1 2490.5c-32-.9-57.3-27.7-56.4-59.8.9-32 27.7-57.3 59.8-56.4 32 .9 57.3 27.7 56.4 59.8C1168.9 2466.1 1142.1 2491.4 1110.1 2490.5zM1112.7 2398.4c-18.8-.5-34.5 14.3-35 33-.5 18.8 14.3 34.5 33 35 18.8.5 34.5-14.3 35-33C1146.3 2414.6 1131.5 2398.9 1112.7 2398.4zM1395.6 2498.8c-32-.9-57.3-27.7-56.4-59.8.9-32 27.7-57.3 59.8-56.4 32 .9 57.3 27.7 56.4 59.8C1454.4 2474.4 1427.6 2499.7 1395.6 2498.8zM1398.3 2406.7c-18.8-.5-34.5 14.3-35 33-.5 18.8 14.3 34.5 33 35 18.8.5 34.5-14.3 35-33C1431.8 2422.9 1417 2407.2 1398.3 2406.7z" class="color58595b svgShape"/></g><g><path fill="#f7c69b" stroke="url(#a)" stroke-miterlimit="10" d="M288.8,1787.3l1.7,15.7c0,2.9,1.3,5.7,3.4,7.7l9.3,8.5c1.8,1.6,1.9,4.3,0.3,6.1l0,0        c-1.3,1.5-3.4,1.9-5.2,1.1l-10.1-4.8c-2.7-1.3-5.9,0.1-6.8,2.9l-5.5,11.1c-0.7,1.5-2.3,2.3-4,1.9c-8.2-1.7-25.8-8.5-27.9-9.1        l0,0c-2.4-0.6-3.9-3-3.4-5.4c3.4-18.2,8.7-27.1,16.8-47.2L288.8,1787.3z" class="colorf7c19b svgShape"/><path fill="#1d505b" stroke="url(#a)" stroke-miterlimit="10" d="M290.6,1864.8l-75.7-28.9l8.7-22.9c2.3-6,9-9,15-6.7l54,20.6c6,2.3,9,9,6.7,15L290.6,1864.8z           M220.4,1833.5l67.7,25.8l7.2-18.9c1.4-3.8-0.5-8-4.2-9.5l-54-20.6c-3.8-1.4-8,0.5-9.5,4.2L220.4,1833.5z" class="color5b291d svgShape"/><path fill="#7f5733" stroke="url(#a)" stroke-miterlimit="10" d="M343.6,1878.9l-42.5,111.4c-2.5,6.6-9.9,9.9-16.6,7.4l-76.8-29.3c-10.9-53.3,2.3-95.5,47-123.4           L343.6,1878.9z" class="color7f4833 svgShape"/><path fill="#835934" stroke="url(#a)" stroke-miterlimit="10" d="M254.8,1845.1l-47,123.4l-76.8-29.3c-6.6-2.5-9.9-9.9-7.4-16.6l42.5-111.4L254.8,1845.1z" class="color834e34 svgShape"/><path fill="#235763" stroke="url(#a)" stroke-miterlimit="10" d="M344.5,1885.1l-14.1,37.1c-0.6,1.7-2.2,2.7-4,2.7l-101-2.8c-8.9-38.3,6.1-64.2,32.2-84.4l79.3,30.2           C343.7,1870.5,347.1,1878.2,344.5,1885.1z" class="color633223 svgShape"/><path fill="#255c68" stroke="url(#a)" stroke-miterlimit="10" d="M257.6,1837.7l-32.2,84.4l-77.2-65.2c-1.4-1.1-1.9-3-1.2-4.7l14.1-37.1c2.6-6.9,10.3-10.3,17.2-7.7           L257.6,1837.7z" class="color683725 svgShape"/><path fill="#eb7aa5" stroke="url(#a)" stroke-miterlimit="10" d="M239.1,1916.9l-7.7,20.3c-0.5,1.2-1.9,1.8-3.1,1.4l-8-3l9.4-24.8l8,3          C238.9,1914.2,239.6,1915.6,239.1,1916.9z" class="colorbdbdbd svgShape"/><path fill="#e0e0e0" stroke="url(#a)" stroke-miterlimit="10" d="M229.7,1910.7l-9.4,24.8l-8-3c-1.2-0.5-1.9-1.8-1.4-3.1l7.7-20.3c0.5-1.2,1.8-1.9,3.1-1.4          L229.7,1910.7z" class="colore0e0e0 svgShape"/><path fill="#f7c69b" stroke="url(#a)" stroke-miterlimit="10" d="M242.3,1815.1c0,0,2.4-5.2,19.4,1.5c0,0,13.8,3.5,16.7,14.1l-14.9,0.2c0,0-3.9-2.2-4-2.4        C259.2,1828.2,242.3,1815.1,242.3,1815.1z" class="colorf7c19b svgShape"/><polygon fill="#f7c69b" stroke="url(#a)" stroke-miterlimit="10" points="116.3 2297.1 105.2 2254 169.7 2236.4 180.7 2279.4" class="colorf7c19b svgShape"/><path fill="#333333" stroke="url(#a)" stroke-miterlimit="10" d="M95.8,2258.4l-9.9-4.3l-3.1-1c-1.8-0.6-3.8-0.6-5.6-0.1l-7.2,2c-1.8,0.5-2.9,2.4-2.4,4.2l2.1,8.1l2-0.6         l1.1,4.4l-2,0.6l2.3,9.8l1.7-0.5l1.2,4.6l-1.8,0.5L77,2297l8.5,3.7c-0.3,9.4-1.3,18.1-3.3,25.9c-0.2,0.4,2.6,11.5,2.9,11.4         l1.6-0.4l1.1,4.3l-1.6,0.4c0.7,3.6,1.6,7.2,2.7,10.6l1.7-0.5l1.1,4.2l-1.4,0.4c1,3.7,2.2,6.9,3.7,9.5l1.3-0.4l1.6,4.1         l-1.2,0.3c1,2.4,2.2,4.5,3.6,6.4l1.3-0.6l2.5,3.3l-1.1,1.1c2.7,3.6,5.4,6.9,8,9.6c0,0,5.7-0.8,5.1-4.4l-6.6-45.9l-7-59.3         L95.8,2258.4z" class="color333 svgShape"/><path fill="#58585b" stroke="url(#a)" stroke-miterlimit="10" d="M97.6,2249c-2.7,0.7-5.3,1.8-7.8,3.1l-3.9,2c4.7,17.1,7.6,33.4,7.7,48.6c0,3.2-0.1,6.3-0.3,9.3         c-2,26.3,5.7,51,21.9,74.1l3.9-1.1c2.9-0.8,4.9-3.6,4.7-6.6l-1.1-20.1c-0.2-3.6-0.5-7.2-0.7-10.7         c-0.7-10.1,0.7-19.9,4.1-29.7c0.2-0.5,0.4-1.1,0.6-1.6c0.1-0.3,0.2-0.6,0.4-0.9c-4.2,0.6-10.3-2-10.6-2.2         c-0.2-0.1-0.3-0.3-0.3-0.4c0-0.1,0-0.2,0-0.3c0.1-0.3,0.4-0.4,0.7-0.3c2.1,0.9,7.5,2.8,10.7,2c0.1-0.2,0.2-0.5,0.3-0.7         c0-3.6-2.7-8.9-4-11c-0.2-0.3-0.1-0.6,0.2-0.8c0.3-0.2,0.6-0.1,0.8,0.2c0.2,0.3,3.2,5.1,4,9.5c0.3-0.8,0.7-1.6,1.1-2.4         c0.2-0.5,0.5-1,0.7-1.5c0.5-1.1,1.1-2.2,1.7-3.3c0.2-0.4,0.5-0.9,0.7-1.3c0.9-1.6,1.8-3.2,2.8-4.8c-0.9-2.6-3.6-5.6-4.9-6.7         c-0.2-0.2-0.2-0.6,0-0.8c0.2-0.2,0.5-0.3,0.8-0.1c0.2,0.2,3.5,3.2,4.9,6.4c0.4-0.6,0.8-1.3,1.2-1.9c0.7-1.1,0.9-2.3,0.7-3.6         l-9.8-44.9c-0.4-1.6-2-2.6-3.6-2.1l-5.1,1.6c-3.8,1.2-7.7,1.7-11.7,1.7C104.5,2247.6,101,2248,97.6,2249z" class="color58595b svgShape"/><path fill="#020b0d" d="M116.1 2312.4c0 .1-.1.2 0 .3 0 .2.1.4.3.4.3.1 6.4 2.8 10.6 2.2.2-.4.3-.8.5-1.2-3.1.8-8.5-1-10.7-2C116.6 2312 116.3 2312.1 116.1 2312.4zM123.9 2301.6c-.3.2-.3.5-.2.8 1.3 2.1 4.1 7.4 4 11 .3-.7.6-1.4.9-2.1-.8-4.4-3.8-9.2-4-9.5C124.5 2301.5 124.2 2301.4 123.9 2301.6z" class="color231f20 svgShape"/><path fill="#303030" stroke="url(#a)" stroke-miterlimit="10" d="M130.7,2290.4c-0.2,0.2-0.2,0.6,0,0.8c1.3,1.2,4,4.1,4.9,6.7c0.2-0.4,0.5-0.8,0.7-1.2         c-1.4-3.2-4.7-6.2-4.9-6.4C131.2,2290.2,130.9,2290.2,130.7,2290.4z" class="color303030 svgShape"/><path fill="#404242" stroke="url(#a)" stroke-miterlimit="10" d="M97.6,2249c-2.7,0.7-5.3,1.8-7.8,3.1l-3.9,2c4.7,17.1,7.6,33.4,7.7,48.6l20.6,17.9c1.2,1,3,0.8,3.9-0.5         l20.2-28.8l-9.8-44.9c-0.4-1.6-2-2.6-3.6-2.1l-5.1,1.6c-3.8,1.2-7.7,1.7-11.7,1.7C104.5,2247.6,101,2248,97.6,2249z" class="color414042 svgShape"/><polygon fill="#58585b" points="136 2291 136.4 2291.3 136.7 2290.9 136.6 2290.5 136.1 2290.6 136.2 2290.8" class="color58595b svgShape"/><path fill="#58585b" d="M89.2,2254.3l0.2,0.4l-0.6,0.3l-0.2-0.4L89.2,2254.3z M90.3,2253.7l0.2,0.4l-0.6,0.3l-0.2-0.4            L90.3,2253.7z M91.5,2253.1l0.2,0.4c-0.2,0.1-0.4,0.2-0.6,0.3l-0.2-0.4C91.1,2253.3,91.3,2253.2,91.5,2253.1z             M92.7,2252.5l0.2,0.5c-0.2,0.1-0.4,0.2-0.6,0.3l-0.2-0.4C92.3,2252.7,92.5,2252.6,92.7,2252.5z M93.9,2252l0.2,0.5            c-0.2,0.1-0.4,0.2-0.6,0.3l-0.2-0.5C93.5,2252.2,93.7,2252.1,93.9,2252z M95.1,2251.5l0.2,0.5c-0.2,0.1-0.4,0.2-0.6,0.2            l-0.2-0.5C94.7,2251.7,94.9,2251.6,95.1,2251.5z M96.4,2251.1l0.1,0.5c-0.2,0.1-0.4,0.1-0.6,0.2l-0.2-0.5            C96,2251.2,96.2,2251.2,96.4,2251.1z M97.6,2250.7l0.1,0.5c-0.2,0.1-0.4,0.1-0.6,0.2l-0.1-0.5            C97.2,2250.8,97.4,2250.8,97.6,2250.7z M98.3,2250.5c0.2-0.1,0.4-0.1,0.6-0.2l0.1,0.5c-0.2,0.1-0.4,0.1-0.6,0.2            L98.3,2250.5z M99.6,2250.2c0.2,0,0.4-0.1,0.6-0.1l0.1,0.5c-0.2,0-0.4,0.1-0.6,0.1L99.6,2250.2z M100.8,2250            c0.2,0,0.4-0.1,0.6-0.1l0.1,0.5c-0.2,0-0.4,0.1-0.6,0.1L100.8,2250z M102.1,2249.7c0.2,0,0.4-0.1,0.6-0.1l0.1,0.5            c-0.2,0-0.4,0.1-0.6,0.1L102.1,2249.7z M103.4,2249.5c0.2,0,0.4-0.1,0.7-0.1l0,0.5c-0.2,0-0.4,0-0.6,0.1L103.4,2249.5z             M104.7,2249.4c0.2,0,0.4,0,0.7-0.1l0,0.5c-0.2,0-0.4,0-0.6,0.1L104.7,2249.4z M106.1,2249.3c0.2,0,0.4,0,0.7,0l0,0.5            c-0.2,0-0.4,0-0.6,0L106.1,2249.3z M107.4,2249.3c0.2,0,0.4,0,0.7,0l0,0.5c-0.2,0-0.4,0-0.6,0L107.4,2249.3z             M108.7,2249.3c0.2,0,0.4,0,0.6,0l0,0.5c-0.2,0-0.4,0-0.7,0L108.7,2249.3z M110,2249.2c0.2,0,0.4,0,0.6,0l0,0.5            c-0.2,0-0.4,0-0.7,0L110,2249.2z M111.3,2249.2c0.2,0,0.4,0,0.6-0.1l0,0.5c-0.2,0-0.4,0-0.7,0.1L111.3,2249.2z             M112.5,2249c0.2,0,0.4,0,0.6-0.1l0.1,0.5c-0.2,0-0.4,0.1-0.7,0.1L112.5,2249z M113.8,2248.9c0.2,0,0.4-0.1,0.6-0.1            l0.1,0.5c-0.2,0-0.4,0.1-0.6,0.1L113.8,2248.9z M115.1,2248.7c0.2,0,0.4-0.1,0.6-0.1l0.1,0.5c-0.2,0-0.4,0.1-0.6,0.1            L115.1,2248.7z M116.4,2248.4c0.2,0,0.4-0.1,0.6-0.1l0.1,0.5c-0.2,0-0.4,0.1-0.6,0.1L116.4,2248.4z M117.7,2248.1            c0.2-0.1,0.4-0.1,0.6-0.2l0.1,0.5c-0.2,0.1-0.4,0.1-0.6,0.2L117.7,2248.1z M119.5,2247.6l0.1,0.5            c-0.2,0.1-0.4,0.1-0.6,0.2l-0.1-0.5C119.1,2247.8,119.3,2247.7,119.5,2247.6z M120.8,2247.3l0.1,0.5l-0.6,0.2l-0.1-0.5            L120.8,2247.3z M122,2246.9l0.1,0.5l-0.6,0.2l-0.1-0.5L122,2246.9z M123.3,2246.5l0.1,0.5l-0.6,0.2l-0.1-0.5L123.3,2246.5            z M124.5,2246.1l0.1,0.5l-0.6,0.2l-0.1-0.5L124.5,2246.1z M135.8,2289.3l0.5-0.1l0.1,0.7l-0.5,0.1L135.8,2289.3z             M135.5,2288l0.5-0.1l0.1,0.7l-0.5,0.1L135.5,2288z M135.3,2286.7l0.5-0.1l0.1,0.7l-0.5,0.1L135.3,2286.7z M135,2285.4            l0.5-0.1l0.1,0.6l-0.5,0.1L135,2285.4z M134.7,2284.1l0.5-0.1l0.1,0.6l-0.5,0.1L134.7,2284.1z M134.4,2282.8l0.5-0.1            l0.1,0.6l-0.5,0.1L134.4,2282.8z M134.1,2281.5l0.5-0.1l0.1,0.6l-0.5,0.1L134.1,2281.5z M133.8,2280.2l0.5-0.1l0.1,0.6            l-0.5,0.1L133.8,2280.2z M133.6,2278.9l0.5-0.1l0.1,0.6l-0.5,0.1L133.6,2278.9z M133.3,2277.6l0.5-0.1l0.1,0.6l-0.5,0.1            L133.3,2277.6z M125.2,2245.9c0.3,0,0.5,0,0.7,0.1l-0.1,0.5c-0.2-0.1-0.4-0.1-0.5,0L125.2,2245.9z M133,2276.3l0.5-0.1            l0.1,0.6l-0.5,0.1L133,2276.3z M132.7,2275l0.5-0.1l0.1,0.6l-0.5,0.1L132.7,2275z M132.4,2273.7l0.5-0.1l0.1,0.6l-0.5,0.1            L132.4,2273.7z M132.1,2272.4l0.5-0.1l0.1,0.6l-0.5,0.1L132.1,2272.4z M131.9,2271.2l0.5-0.1l0.1,0.6l-0.5,0.1            L131.9,2271.2z M131.6,2269.9l0.5-0.1l0.1,0.7l-0.5,0.1L131.6,2269.9z M131.3,2268.6l0.5-0.1l0.1,0.6l-0.5,0.1            L131.3,2268.6z M131,2267.3l0.5-0.1l0.1,0.6l-0.5,0.1L131,2267.3z M130.7,2266l0.5-0.1l0.1,0.6l-0.5,0.1L130.7,2266z             M130.4,2264.7l0.5-0.1l0.1,0.6l-0.5,0.1L130.4,2264.7z M130.2,2263.4l0.5-0.1l0.1,0.6l-0.5,0.1L130.2,2263.4z             M129.9,2262.1l0.5-0.1l0.1,0.6l-0.5,0.1L129.9,2262.1z M129.6,2260.8l0.5-0.1l0.1,0.6l-0.5,0.1L129.6,2260.8z             M129.3,2259.5l0.5-0.1l0.1,0.6l-0.5,0.1L129.3,2259.5z M129,2258.2l0.5-0.1l0.1,0.6l-0.5,0.1L129,2258.2z M128.7,2256.9            l0.5-0.1l0.1,0.6l-0.5,0.1L128.7,2256.9z M128.5,2255.6l0.5-0.1l0.1,0.6l-0.5,0.1L128.5,2255.6z M128.2,2254.3l0.5-0.1            l0.1,0.6l-0.5,0.1L128.2,2254.3z M127.9,2253l0.5-0.1l0.1,0.6l-0.5,0.1L127.9,2253z M126.6,2246.4            c0.2,0.2,0.3,0.4,0.4,0.6l-0.4,0.2c-0.1-0.2-0.2-0.3-0.3-0.4L126.6,2246.4z M127.6,2251.7l0.5-0.1l0.1,0.6l-0.5,0.1            L127.6,2251.7z M127.3,2250.4l0.5-0.1l0.1,0.6l-0.5,0.1L127.3,2250.4z M127,2249.1l0.5-0.1l0.1,0.7l-0.5,0.1L127,2249.1z             M126.8,2247.8l0.5-0.1l0.1,0.7l-0.5,0.1L126.8,2247.8z" class="color58595b svgShape"/><polygon fill="#58585b" points="87.6 2255.1 87.7 2255.6 88.2 2255.5 88.2 2255.4 88.3 2255.3 88.1 2254.9" class="color58595b svgShape"/><path fill="#58585b" d="M94.9,2300.1l0.5,0l0,0.7l-0.5,0L94.9,2300.1z M94.9,2298.8l0.5,0l0,0.7l-0.5,0L94.9,2298.8z             M94.8,2297.5l0.5,0l0,0.7l-0.5,0L94.8,2297.5z M94.8,2296.2l0.5,0l0,0.7l-0.5,0L94.8,2296.2z M94.7,2294.9l0.5,0l0,0.7            l-0.5,0L94.7,2294.9z M94.6,2293.6l0.5,0l0,0.7l-0.5,0L94.6,2293.6z M94.5,2292.3l0.5,0l0.1,0.7l-0.5,0L94.5,2292.3z             M94.4,2291l0.5,0l0.1,0.7l-0.5,0L94.4,2291z M94.3,2289.6l0.5-0.1l0.1,0.7l-0.5,0.1L94.3,2289.6z M94.1,2288.3l0.5-0.1            l0.1,0.7l-0.5,0.1L94.1,2288.3z M94,2287l0.5-0.1l0.1,0.7l-0.5,0.1L94,2287z M93.8,2285.7l0.5-0.1l0.1,0.7l-0.5,0.1            L93.8,2285.7z M93.7,2284.4l0.5-0.1l0.1,0.6l-0.5,0.1L93.7,2284.4z M93.5,2283.1l0.5-0.1l0.1,0.6l-0.5,0.1L93.5,2283.1z             M93.3,2281.9l0.5-0.1l0.1,0.7l-0.5,0.1L93.3,2281.9z M93.1,2280.6l0.5-0.1l0.1,0.6l-0.5,0.1L93.1,2280.6z M92.9,2279.3            l0.5-0.1l0.1,0.6l-0.5,0.1L92.9,2279.3z M92.7,2278l0.5-0.1l0.1,0.6l-0.5,0.1L92.7,2278z M92.5,2276.7l0.5-0.1l0.1,0.6            l-0.5,0.1L92.5,2276.7z M92.3,2275.4l0.5-0.1l0.1,0.6l-0.5,0.1L92.3,2275.4z M92,2274.1l0.5-0.1l0.1,0.6l-0.5,0.1            L92,2274.1z M91.8,2272.8l0.5-0.1l0.1,0.6l-0.5,0.1L91.8,2272.8z M91.5,2271.5l0.5-0.1l0.1,0.6l-0.5,0.1L91.5,2271.5z             M91.3,2270.3l0.5-0.1l0.1,0.6l-0.5,0.1L91.3,2270.3z M91,2269l0.5-0.1l0.1,0.6l-0.5,0.1L91,2269z M90.7,2267.7l0.5-0.1            l0.1,0.6l-0.5,0.1L90.7,2267.7z M90.4,2266.4l0.5-0.1l0.1,0.6l-0.5,0.1L90.4,2266.4z M90.1,2265.2l0.5-0.1l0.1,0.6            l-0.5,0.1L90.1,2265.2z M89.8,2263.9l0.5-0.1l0.2,0.6l-0.5,0.1L89.8,2263.9z M89.5,2262.6l0.5-0.1l0.2,0.6l-0.5,0.1            L89.5,2262.6z M89.2,2261.3l0.5-0.1l0.2,0.6l-0.5,0.1L89.2,2261.3z M88.4,2256.1l0.2,0.6l-0.5,0.1l-0.2-0.6L88.4,2256.1z             M88.9,2260.1l0.5-0.1l0.2,0.6l-0.5,0.1L88.9,2260.1z M88.7,2257.4l0.2,0.6l-0.5,0.1l-0.2-0.6L88.7,2257.4z M88.6,2258.8            l0.5-0.1l0.2,0.6l-0.5,0.1L88.6,2258.8z" class="color58595b svgShape"/><polygon fill="#58585b" points="95 2301.9 95.3 2302.1 95.6 2301.8 95.4 2301.6 95.4 2301.4 94.9 2301.4" class="color58595b svgShape"/><path fill="#58585b" d="M96.1,2302.2l0.5,0.4l-0.3,0.4l-0.5-0.4L96.1,2302.2z M97.1,2303l0.5,0.4l-0.3,0.4l-0.5-0.4            L97.1,2303z M98,2303.9l0.5,0.4l-0.3,0.4l-0.5-0.4L98,2303.9z M99,2304.7l0.5,0.4l-0.3,0.4l-0.5-0.4L99,2304.7z             M100,2305.6l0.5,0.4l-0.3,0.4l-0.5-0.4L100,2305.6z M101,2306.4l0.5,0.4l-0.3,0.4l-0.5-0.4L101,2306.4z M101.9,2307.3            l0.5,0.4l-0.3,0.4l-0.5-0.4L101.9,2307.3z M102.9,2308.1l0.5,0.4l-0.3,0.4l-0.5-0.4L102.9,2308.1z M103.9,2309l0.5,0.4            l-0.3,0.4l-0.5-0.4L103.9,2309z M104.9,2309.8l0.5,0.4l-0.3,0.4l-0.5-0.4L104.9,2309.8z M105.8,2310.7l0.5,0.4l-0.3,0.4            l-0.5-0.4L105.8,2310.7z M106.8,2311.5l0.5,0.4l-0.3,0.4l-0.5-0.4L106.8,2311.5z M107.8,2312.4l0.5,0.4l-0.3,0.4l-0.5-0.4            L107.8,2312.4z M108.7,2313.2l0.5,0.4l-0.3,0.4l-0.5-0.4L108.7,2313.2z M109.7,2314.1l0.5,0.4l-0.3,0.4l-0.5-0.4            L109.7,2314.1z M110.7,2314.9l0.5,0.4l-0.3,0.4l-0.5-0.4L110.7,2314.9z M111.7,2315.8l0.5,0.4l-0.3,0.4l-0.5-0.4            L111.7,2315.8z M112.6,2316.6l0.5,0.4l-0.3,0.4l-0.5-0.4L112.6,2316.6z M113.6,2317.5l0.5,0.4l-0.3,0.4l-0.5-0.4            L113.6,2317.5z M114.6,2318.3l0.5,0.4l-0.3,0.4l-0.5-0.4L114.6,2318.3z M115.5,2319c0.1,0,0.3,0,0.4,0c0,0,0.1,0,0.1,0            l0.1,0.5c-0.1,0-0.1,0-0.2,0c-0.2,0-0.4,0-0.6,0L115.5,2319z M116.7,2318.5l0.2-0.3l0.4,0.3l-0.2,0.3            c-0.1,0.1-0.2,0.2-0.3,0.3l-0.3-0.4C116.6,2318.7,116.7,2318.6,116.7,2318.5z M117.6,2317.2l0.4,0.3l-0.4,0.5l-0.4-0.3            L117.6,2317.2z M118.4,2316.2l0.4,0.3l-0.4,0.5l-0.4-0.3L118.4,2316.2z M119.1,2315.1l0.4,0.3l-0.4,0.5l-0.4-0.3            L119.1,2315.1z M119.9,2314l0.4,0.3l-0.4,0.5l-0.4-0.3L119.9,2314z M120.6,2312.9l0.4,0.3l-0.4,0.5l-0.4-0.3L120.6,2312.9            z M121.4,2311.9l0.4,0.3l-0.4,0.5l-0.4-0.3L121.4,2311.9z M122.2,2310.8l0.4,0.3l-0.4,0.5l-0.4-0.3L122.2,2310.8z             M122.9,2309.7l0.4,0.3l-0.4,0.5l-0.4-0.3L122.9,2309.7z M123.7,2308.7l0.4,0.3l-0.4,0.5l-0.4-0.3L123.7,2308.7z             M124.4,2307.6l0.4,0.3l-0.4,0.5l-0.4-0.3L124.4,2307.6z M125.2,2306.5l0.4,0.3l-0.4,0.5l-0.4-0.3L125.2,2306.5z             M125.9,2305.5l0.4,0.3l-0.4,0.5l-0.4-0.3L125.9,2305.5z M126.7,2304.4l0.4,0.3l-0.4,0.5l-0.4-0.3L126.7,2304.4z             M127.4,2303.3l0.4,0.3l-0.4,0.5l-0.4-0.3L127.4,2303.3z M128.2,2302.2l0.4,0.3l-0.4,0.5l-0.4-0.3L128.2,2302.2z             M128.9,2301.2l0.4,0.3l-0.4,0.5l-0.4-0.3L128.9,2301.2z M129.7,2300.1l0.4,0.3l-0.4,0.5l-0.4-0.3L129.7,2300.1z             M130.4,2299l0.4,0.3l-0.4,0.5l-0.4-0.3L130.4,2299z M131.2,2298l0.4,0.3l-0.4,0.5l-0.4-0.3L131.2,2298z M131.9,2296.9            l0.4,0.3l-0.4,0.5l-0.4-0.3L131.9,2296.9z M132.7,2295.8l0.4,0.3l-0.4,0.5l-0.4-0.3L132.7,2295.8z M133.4,2294.8l0.4,0.3            l-0.4,0.5l-0.4-0.3L133.4,2294.8z M134.2,2293.7l0.4,0.3l-0.4,0.5l-0.4-0.3L134.2,2293.7z M134.9,2292.6l0.4,0.3l-0.4,0.5            l-0.4-0.3L134.9,2292.6z M135.7,2291.6l0.4,0.3l-0.4,0.5l-0.4-0.3L135.7,2291.6z" class="color58595b svgShape"/><g><path fill="#e6e7e8" d="M116.3 2309.9c1.4-.2 2.6.8 2.8 2.2.2 1.4-.8 2.7-2.1 2.9-1.4.2-2.6-.8-2.8-2.2C114 2311.4 114.9 2310.1 116.3 2309.9zM116.4 2310.7c-.9.1-1.6 1-1.5 2 .1 1 1 1.6 1.9 1.5.9-.1 1.6-1 1.5-2C118.2 2311.2 117.3 2310.5 116.4 2310.7zM123.3 2299.1c1.4-.2 2.6.8 2.8 2.2.2 1.4-.8 2.7-2.1 2.9-1.4.2-2.6-.8-2.8-2.2C121 2300.6 121.9 2299.3 123.3 2299.1zM123.4 2299.9c-.9.1-1.6 1-1.5 2 .1 1 1 1.6 1.9 1.5.9-.1 1.6-1 1.5-2C125.2 2300.4 124.4 2299.8 123.4 2299.9z" class="colore6e7e8 svgShape"/><g><path fill="#020b0d" d="M116.9,2312.1c-0.3-0.1-0.6,0-0.7,0.3c0,0.1-0.1,0.2,0,0.3c0,0.2,0.1,0.4,0.3,0.4            c0.3,0.1,6.4,2.8,10.6,2.2c0.1,0,0.3,0,0.4-0.1c0.5-0.1,0.9-0.2,1.3-0.4c0.4-0.2,0.8-0.5,1.2-0.8c1.3-1.3,1.6-3.6,0.6-6.7            c-0.3,0.5-0.5,1-0.7,1.5c0.4,2,0.2,3.5-0.6,4.4c-0.1,0.1-0.2,0.1-0.2,0.2c-0.3,0.2-0.7,0.4-1.1,0.6            c-0.1,0-0.2,0.1-0.2,0.1C124.4,2314.8,119,2313,116.9,2312.1z" class="color231f20 svgShape"/><path fill="#020b0d" d="M123.9,2301.6c-0.3,0.2-0.3,0.5-0.2,0.8c1.3,2.1,4.1,7.4,4,11c0,0.2,0,0.4,0,0.6            c-0.1,0.4-0.1,0.9-0.3,1.2c-0.1,0.2-0.2,0.3-0.2,0.4c-0.1,0.2-0.3,0.4-0.5,0.6c-0.2,0.5-0.4,1.1-0.6,1.6            c0.8-0.3,1.5-0.8,2-1.5c0.3-0.4,0.5-0.9,0.6-1.5c0.1-0.4,0.2-0.9,0.2-1.4c0-0.7-0.1-1.4-0.2-2.2c-0.8-4.4-3.8-9.2-4-9.5            C124.5,2301.5,124.2,2301.4,123.9,2301.6z" class="color231f20 svgShape"/></g></g><g><path fill="#e6e7e8" d="M130.5,2288.3c1.3-0.4,2.7,0.5,3,1.8c0.3,1.4-0.5,2.8-1.8,3.1c-1.3,0.4-2.7-0.5-3-1.8           C128.3,2290.1,129.1,2288.7,130.5,2288.3z M130.6,2289.1c-0.9,0.2-1.5,1.2-1.2,2.1c0.2,0.9,1.2,1.5,2.1,1.2           c0.9-0.2,1.5-1.2,1.2-2.1C132.5,2289.4,131.6,2288.8,130.6,2289.1z" class="colore6e7e8 svgShape"/><path fill="#020b0d" d="M130.7,2290.4c-0.2,0.2-0.2,0.6,0,0.8c1.3,1.2,4,4.1,4.9,6.7c0.3,0.9,0.4,1.7,0.2,2.5           c-0.3,1.1-1.3,1.8-3,2.3c-0.2,0.4-0.5,0.9-0.7,1.3c2.6-0.6,4.2-1.7,4.7-3.3c0.4-1.2,0.1-2.6-0.5-3.9           c-1.4-3.2-4.7-6.2-4.9-6.4C131.2,2290.2,130.9,2290.2,130.7,2290.4z" class="color231f20 svgShape"/></g><g><polygon fill="#f7c69b" stroke="url(#a)" stroke-miterlimit="10" points="798 2448 755 2458.5 738.9 2392.4 781.8 2381.9" class="colorf7c19b svgShape"/><path fill="#333333" stroke="url(#a)" stroke-miterlimit="10" d="M760.9,2469.2l-4.1,10.2l-1,3.2c-0.6,1.9-0.6,3.9,0,5.7l2.1,7.3c0.5,1.8,2.4,2.9,4.2,2.3l8.1-2.3         l-0.6-2.1l4.4-1.3l0.6,2l9.8-2.6l-0.5-1.7l4.6-1.3l0.5,1.8l10.9-3.2l3.5-8.7c9.4,0,18.1,0.8,25.9,2.7         c0.4,0.1,11.4-3,11.4-3.3l-0.5-1.6l4.3-1.2l0.5,1.6c3.6-0.8,7.1-1.8,10.5-3l-0.5-1.7l4.2-1.2l0.4,1.4c3.7-1.1,6.8-2.4,9.4-4         l-0.4-1.3l4-1.7l0.3,1.2c2.4-1,4.5-2.4,6.4-3.9l-0.6-1.3l3.3-2.6l1.2,1.1c3.6-2.8,6.8-5.6,9.4-8.5c0,0-0.9-5.8-4.5-5.1         l-45.8,8l-59.2,8.7L760.9,2469.2z" class="color333 svgShape"/><path fill="#58585b" stroke="url(#a)" stroke-miterlimit="10" d="M751.4,2467.6c0.8,2.7,1.9,5.4,3.2,7.9l2.1,3.9c17-5.2,33.3-8.6,48.5-9.1c3.2-0.1,6.3-0.1,9.4,0         c26.4,1.4,50.9-7.2,73.7-24.3l-1.2-4c-0.9-3-3.7-4.9-6.7-4.7l-20.1,1.6c-3.6,0.3-7.2,0.7-10.7,1c-10,1-20-0.2-29.8-3.4         c-0.5-0.2-1.1-0.4-1.6-0.5c-0.3-0.1-0.6-0.2-0.9-0.3c0.7,4.3-1.8,10.6-2,10.9c-0.1,0.2-0.2,0.3-0.4,0.3c-0.1,0-0.2,0-0.3,0         c-0.3-0.1-0.4-0.4-0.3-0.7c0.9-2.2,2.6-7.7,1.8-10.9c-0.2-0.1-0.5-0.2-0.7-0.2c-3.6,0-8.8,3-10.9,4.4         c-0.3,0.2-0.6,0.1-0.8-0.2c-0.2-0.3-0.1-0.6,0.1-0.8c0.3-0.2,5.1-3.4,9.4-4.3c-0.8-0.3-1.6-0.7-2.4-1c-0.5-0.2-1-0.5-1.5-0.7         c-1.1-0.5-2.2-1.1-3.3-1.6c-0.4-0.2-0.9-0.5-1.3-0.7c-1.6-0.9-3.2-1.8-4.9-2.7c-2.6,1-5.5,3.8-6.7,5.2         c-0.2,0.2-0.6,0.3-0.8,0.1c-0.2-0.2-0.3-0.5-0.1-0.8c0.2-0.2,3.1-3.6,6.3-5.2c-0.6-0.4-1.3-0.8-1.9-1.2         c-1.1-0.7-2.3-0.9-3.6-0.6l-44.7,11.2c-1.6,0.4-2.6,2.1-2.1,3.7l1.7,5.2c1.2,3.8,1.9,7.8,1.9,11.9         C749.9,2460.6,750.4,2464.2,751.4,2467.6z" class="color58595b svgShape"/><path fill="#020b0d" d="M814.5 2447.1c.1 0 .2.1.3 0 .2 0 .4-.2.4-.3.1-.3 2.6-6.6 2-10.9-.4-.1-.8-.3-1.2-.5.9 3.2-.9 8.7-1.8 10.9C814.1 2446.6 814.2 2447 814.5 2447.1zM803.6 2439.4c.2.3.5.3.8.2 2.1-1.4 7.3-4.3 10.9-4.4-.7-.3-1.4-.6-2.1-.8-4.4.9-9.1 4.1-9.4 4.3C803.5 2438.8 803.4 2439.2 803.6 2439.4z" class="color231f20 svgShape"/><path fill="#303030" stroke="url(#a)" stroke-miterlimit="10" d="M792.2,2432.8c0.2,0.2,0.6,0.2,0.8-0.1c1.2-1.4,4-4.2,6.7-5.2c-0.4-0.2-0.8-0.5-1.2-0.7         c-3.2,1.5-6.2,5-6.3,5.2C792,2432.2,792,2432.6,792.2,2432.8z" class="color303030 svgShape"/><path fill="#404242" stroke="url(#a)" stroke-miterlimit="10" d="M751.4,2467.6c0.8,2.7,1.9,5.4,3.2,7.9l2.1,3.9c17-5.2,33.3-8.6,48.5-9.1l17.5-21.4         c1-1.2,0.7-3.1-0.6-4l-29.2-19.9l-44.7,11.2c-1.6,0.4-2.6,2.1-2.1,3.7l1.7,5.2c1.2,3.8,1.9,7.8,1.9,11.9         C749.9,2460.6,750.4,2464.2,751.4,2467.6z" class="color414042 svgShape"/><polygon fill="#58585b" points="792.7 2427.3 793 2426.9 792.7 2426.6 792.2 2426.8 792.3 2427.2 792.6 2427.2" class="color58595b svgShape"/><path fill="#58585b" d="M756.9,2476.1l0.4-0.2l0.3,0.6l-0.4,0.2L756.9,2476.1z M756.3,2474.9l0.4-0.2l0.3,0.6l-0.4,0.2            L756.3,2474.9z M755.7,2473.7l0.4-0.2c0.1,0.2,0.2,0.4,0.3,0.6l-0.4,0.2C755.9,2474.1,755.8,2473.9,755.7,2473.7z             M755.1,2472.5l0.4-0.2c0.1,0.2,0.2,0.4,0.3,0.6l-0.4,0.2C755.3,2472.9,755.2,2472.7,755.1,2472.5z M754.6,2471.3l0.5-0.2            c0.1,0.2,0.2,0.4,0.3,0.6l-0.5,0.2C754.7,2471.7,754.6,2471.5,754.6,2471.3z M754.1,2470.1l0.5-0.2            c0.1,0.2,0.2,0.4,0.2,0.6l-0.5,0.2C754.2,2470.5,754.1,2470.3,754.1,2470.1z M753.6,2468.8l0.5-0.2            c0.1,0.2,0.1,0.4,0.2,0.6l-0.5,0.2C753.7,2469.2,753.7,2469,753.6,2468.8z M753.2,2467.5l0.5-0.1c0.1,0.2,0.1,0.4,0.2,0.6            l-0.5,0.2C753.3,2468,753.3,2467.7,753.2,2467.5z M753,2466.9c-0.1-0.2-0.1-0.4-0.2-0.6l0.5-0.1c0.1,0.2,0.1,0.4,0.2,0.6            L753,2466.9z M752.7,2465.6c-0.1-0.2-0.1-0.4-0.2-0.7l0.5-0.1c0,0.2,0.1,0.4,0.2,0.6L752.7,2465.6z M752.4,2464.3            c0-0.2-0.1-0.4-0.1-0.7l0.5-0.1c0,0.2,0.1,0.4,0.1,0.6L752.4,2464.3z M752.1,2463c0-0.2-0.1-0.4-0.1-0.7l0.5-0.1            c0,0.2,0.1,0.4,0.1,0.7L752.1,2463z M751.9,2461.7c0-0.2-0.1-0.4-0.1-0.7l0.5-0.1c0,0.2,0.1,0.4,0.1,0.7L751.9,2461.7z             M751.7,2460.3c0-0.2,0-0.4-0.1-0.7l0.5,0c0,0.2,0,0.4,0.1,0.7L751.7,2460.3z M751.6,2459c0-0.2,0-0.4,0-0.7l0.5,0            c0,0.2,0,0.4,0,0.7L751.6,2459z M751.5,2457.7c0-0.2,0-0.4,0-0.7l0.5,0c0,0.2,0,0.4,0,0.7L751.5,2457.7z M751.5,2456.3            c0-0.2,0-0.4,0-0.7l0.5,0c0,0.2,0,0.4,0,0.7L751.5,2456.3z M751.4,2455c0-0.2,0-0.4,0-0.7l0.5,0c0,0.2,0,0.4,0,0.7            L751.4,2455z M751.3,2453.7c0-0.2,0-0.4-0.1-0.7l0.5-0.1c0,0.2,0,0.4,0.1,0.7L751.3,2453.7z M751.2,2452.4            c0-0.2-0.1-0.4-0.1-0.7l0.5-0.1c0,0.2,0.1,0.4,0.1,0.7L751.2,2452.4z M751,2451.1c0-0.2-0.1-0.4-0.1-0.7l0.5-0.1            c0,0.2,0.1,0.4,0.1,0.7L751,2451.1z M750.8,2449.8c0-0.2-0.1-0.4-0.1-0.6l0.5-0.1c0,0.2,0.1,0.4,0.1,0.7L750.8,2449.8z             M750.5,2448.5c0-0.2-0.1-0.4-0.2-0.6l0.5-0.1c0.1,0.2,0.1,0.4,0.2,0.7L750.5,2448.5z M750.2,2447.2            c-0.1-0.2-0.1-0.4-0.2-0.6l0.5-0.1c0.1,0.2,0.1,0.4,0.2,0.6L750.2,2447.2z M749.7,2445.3l0.5-0.1c0.1,0.2,0.1,0.4,0.2,0.6            l-0.5,0.1C749.8,2445.7,749.7,2445.5,749.7,2445.3z M749.3,2444l0.5-0.2l0.2,0.6l-0.5,0.2L749.3,2444z M748.9,2442.7            l0.5-0.2l0.2,0.6l-0.5,0.2L748.9,2442.7z M748.4,2441.5l0.5-0.2l0.2,0.6l-0.5,0.2L748.4,2441.5z M748,2440.2l0.5-0.2            l0.2,0.6l-0.5,0.2L748,2440.2z M791.1,2427.6l-0.1-0.5l0.6-0.2l0.1,0.5L791.1,2427.6z M789.8,2427.9l-0.1-0.5l0.6-0.2            l0.1,0.5L789.8,2427.9z M788.5,2428.2l-0.1-0.5l0.6-0.2l0.1,0.5L788.5,2428.2z M787.2,2428.5l-0.1-0.5l0.6-0.2l0.1,0.5            L787.2,2428.5z M785.9,2428.8l-0.1-0.5l0.6-0.2l0.1,0.5L785.9,2428.8z M784.6,2429.2l-0.1-0.5l0.6-0.2l0.1,0.5            L784.6,2429.2z M783.3,2429.5l-0.1-0.5l0.6-0.2l0.1,0.5L783.3,2429.5z M782,2429.8l-0.1-0.5l0.6-0.2l0.1,0.5L782,2429.8z             M780.7,2430.1l-0.1-0.5l0.6-0.2l0.1,0.5L780.7,2430.1z M779.4,2430.5l-0.1-0.5l0.6-0.2l0.1,0.5L779.4,2430.5z             M747.8,2439.5c0-0.3,0-0.5,0.1-0.8l0.5,0.1c-0.1,0.2-0.1,0.4,0,0.6L747.8,2439.5z M778.1,2430.8l-0.1-0.5l0.6-0.2            l0.1,0.5L778.1,2430.8z M776.8,2431.1l-0.1-0.5l0.6-0.2l0.1,0.5L776.8,2431.1z M775.5,2431.4l-0.1-0.5l0.6-0.2l0.1,0.5            L775.5,2431.4z M774.2,2431.8l-0.1-0.5l0.6-0.2l0.1,0.5L774.2,2431.8z M773,2432.1l-0.1-0.5l0.6-0.2l0.1,0.5L773,2432.1z             M771.7,2432.4l-0.1-0.5l0.6-0.2l0.1,0.5L771.7,2432.4z M770.4,2432.7l-0.1-0.5l0.6-0.2l0.1,0.5L770.4,2432.7z             M769.1,2433l-0.1-0.5l0.6-0.2l0.1,0.5L769.1,2433z M767.8,2433.4l-0.1-0.5l0.6-0.2l0.1,0.5L767.8,2433.4z M766.5,2433.7            l-0.1-0.5l0.6-0.2l0.1,0.5L766.5,2433.7z M765.2,2434l-0.1-0.5l0.6-0.2l0.1,0.5L765.2,2434z M763.9,2434.3l-0.1-0.5            l0.6-0.2l0.1,0.5L763.9,2434.3z M762.6,2434.7l-0.1-0.5l0.6-0.2l0.1,0.5L762.6,2434.7z M761.3,2435l-0.1-0.5l0.6-0.2            l0.1,0.5L761.3,2435z M760,2435.3l-0.1-0.5l0.6-0.2l0.1,0.5L760,2435.3z M758.7,2435.6l-0.1-0.5l0.6-0.2l0.1,0.5            L758.7,2435.6z M757.4,2436l-0.1-0.5l0.6-0.2l0.1,0.5L757.4,2436z M756.1,2436.3l-0.1-0.5l0.6-0.2l0.1,0.5L756.1,2436.3z             M754.9,2436.6l-0.1-0.5l0.6-0.2l0.1,0.5L754.9,2436.6z M748.3,2438.1c0.2-0.2,0.4-0.3,0.6-0.5l0.2,0.4            c-0.2,0.1-0.3,0.2-0.4,0.3L748.3,2438.1z M753.6,2436.9l-0.1-0.5l0.6-0.2l0.1,0.5L753.6,2436.9z M752.3,2437.2l-0.1-0.5            l0.6-0.2l0.1,0.5L752.3,2437.2z M751,2437.6l-0.1-0.5l0.6-0.2l0.1,0.5L751,2437.6z M749.7,2437.9l-0.1-0.5l0.7-0.2            l0.1,0.5L749.7,2437.9z" class="color58595b svgShape"/><polygon fill="#58585b" points="757.8 2477.7 758.3 2477.5 758.2 2477 758 2477.1 758 2477 757.5 2477.2" class="color58595b svgShape"/><path fill="#58585b" d="M802.6,2469l0-0.5l0.7,0l0,0.5L802.6,2469z M801.3,2469.1l0-0.5l0.7,0l0,0.5L801.3,2469.1z             M800,2469.2l0-0.5l0.7,0l0,0.5L800,2469.2z M798.7,2469.3l0-0.5l0.7-0.1l0,0.5L798.7,2469.3z M797.4,2469.4l0-0.5            l0.7-0.1l0,0.5L797.4,2469.4z M796.1,2469.5l-0.1-0.5l0.7-0.1l0,0.5L796.1,2469.5z M794.8,2469.7l-0.1-0.5l0.7-0.1            l0.1,0.5L794.8,2469.7z M793.5,2469.8l-0.1-0.5l0.7-0.1l0.1,0.5L793.5,2469.8z M792.2,2470l-0.1-0.5l0.7-0.1l0.1,0.5            L792.2,2470z M790.9,2470.2l-0.1-0.5l0.7-0.1l0.1,0.5L790.9,2470.2z M789.6,2470.3l-0.1-0.5l0.7-0.1l0.1,0.5L789.6,2470.3            z M788.3,2470.5l-0.1-0.5l0.7-0.1l0.1,0.5L788.3,2470.5z M787,2470.7l-0.1-0.5l0.6-0.1l0.1,0.5L787,2470.7z M785.7,2470.9            l-0.1-0.5l0.6-0.1l0.1,0.5L785.7,2470.9z M784.4,2471.2l-0.1-0.5l0.6-0.1l0.1,0.5L784.4,2471.2z M783.1,2471.4l-0.1-0.5            l0.6-0.1l0.1,0.5L783.1,2471.4z M781.8,2471.6l-0.1-0.5l0.6-0.1l0.1,0.5L781.8,2471.6z M780.5,2471.9l-0.1-0.5l0.6-0.1            l0.1,0.5L780.5,2471.9z M779.3,2472.1l-0.1-0.5l0.6-0.1l0.1,0.5L779.3,2472.1z M778,2472.4l-0.1-0.5l0.6-0.1l0.1,0.5            L778,2472.4z M776.7,2472.7l-0.1-0.5l0.6-0.1l0.1,0.5L776.7,2472.7z M775.4,2473l-0.1-0.5l0.6-0.1l0.1,0.5L775.4,2473z             M774.1,2473.3l-0.1-0.5l0.6-0.1l0.1,0.5L774.1,2473.3z M772.9,2473.6l-0.1-0.5l0.6-0.2l0.1,0.5L772.9,2473.6z             M771.6,2473.9l-0.1-0.5l0.6-0.2l0.1,0.5L771.6,2473.9z M770.3,2474.2l-0.1-0.5l0.6-0.2l0.1,0.5L770.3,2474.2z             M769,2474.5l-0.1-0.5l0.6-0.2l0.1,0.5L769,2474.5z M767.8,2474.8l-0.1-0.5l0.6-0.2l0.1,0.5L767.8,2474.8z M766.5,2475.2            l-0.1-0.5l0.6-0.2l0.1,0.5L766.5,2475.2z M765.2,2475.5l-0.1-0.5l0.6-0.2l0.1,0.5L765.2,2475.5z M764,2475.9l-0.1-0.5            l0.6-0.2l0.1,0.5L764,2475.9z M758.8,2476.9l0.6-0.2l0.1,0.5l-0.6,0.2L758.8,2476.9z M762.7,2476.2l-0.1-0.5l0.6-0.2            l0.1,0.5L762.7,2476.2z M760,2476.5l0.6-0.2l0.1,0.5l-0.6,0.2L760,2476.5z M761.4,2476.6l-0.1-0.5l0.6-0.2l0.1,0.5            L761.4,2476.6z" class="color58595b svgShape"/><polygon fill="#58585b" points="804.4 2469 804.7 2468.6 804.3 2468.3 804.1 2468.5 803.9 2468.5 803.9 2469" class="color58595b svgShape"/><path fill="#58585b" d="M804.7,2467.8l0.4-0.5l0.4,0.3l-0.4,0.5L804.7,2467.8z M805.5,2466.8l0.4-0.5l0.4,0.3l-0.4,0.5            L805.5,2466.8z M806.3,2465.8l0.4-0.5l0.4,0.3l-0.4,0.5L806.3,2465.8z M807.2,2464.8l0.4-0.5l0.4,0.3l-0.4,0.5            L807.2,2464.8z M808,2463.7l0.4-0.5l0.4,0.3l-0.4,0.5L808,2463.7z M808.8,2462.7l0.4-0.5l0.4,0.3l-0.4,0.5L808.8,2462.7z             M809.7,2461.7l0.4-0.5l0.4,0.3l-0.4,0.5L809.7,2461.7z M810.5,2460.7l0.4-0.5l0.4,0.3l-0.4,0.5L810.5,2460.7z             M811.3,2459.7l0.4-0.5l0.4,0.3l-0.4,0.5L811.3,2459.7z M812.2,2458.7l0.4-0.5l0.4,0.3l-0.4,0.5L812.2,2458.7z             M813,2457.6l0.4-0.5l0.4,0.3l-0.4,0.5L813,2457.6z M813.8,2456.6l0.4-0.5l0.4,0.3l-0.4,0.5L813.8,2456.6z M814.6,2455.6            l0.4-0.5l0.4,0.3l-0.4,0.5L814.6,2455.6z M815.5,2454.6l0.4-0.5l0.4,0.3l-0.4,0.5L815.5,2454.6z M816.3,2453.6l0.4-0.5            l0.4,0.3l-0.4,0.5L816.3,2453.6z M817.1,2452.6l0.4-0.5l0.4,0.3l-0.4,0.5L817.1,2452.6z M818,2451.5l0.4-0.5l0.4,0.3            l-0.4,0.5L818,2451.5z M818.8,2450.5l0.4-0.5l0.4,0.3l-0.4,0.5L818.8,2450.5z M819.6,2449.5l0.4-0.5l0.4,0.3l-0.4,0.5            L819.6,2449.5z M820.5,2448.5l0.4-0.5l0.4,0.3l-0.4,0.5L820.5,2448.5z M821.1,2447.5c0-0.1,0-0.3,0-0.4c0,0,0-0.1,0-0.1            l0.5-0.1c0,0.1,0,0.1,0,0.2c0,0.2,0,0.4,0,0.6L821.1,2447.5z M820.7,2446.3l-0.3-0.2l0.3-0.4l0.3,0.2            c0.1,0.1,0.2,0.2,0.3,0.3l-0.4,0.3C820.8,2446.4,820.7,2446.4,820.7,2446.3z M819.3,2445.4l0.3-0.4l0.5,0.4l-0.3,0.4            L819.3,2445.4z M818.2,2444.7l0.3-0.4l0.5,0.4l-0.3,0.4L818.2,2444.7z M817.1,2443.9l0.3-0.4l0.5,0.4l-0.3,0.4            L817.1,2443.9z M816.1,2443.2l0.3-0.4l0.5,0.4l-0.3,0.4L816.1,2443.2z M815,2442.4l0.3-0.4l0.5,0.4l-0.3,0.4L815,2442.4z             M813.9,2441.7l0.3-0.4l0.5,0.4l-0.3,0.4L813.9,2441.7z M812.8,2441l0.3-0.4l0.5,0.4l-0.3,0.4L812.8,2441z M811.7,2440.2            l0.3-0.4l0.5,0.4l-0.3,0.4L811.7,2440.2z M810.6,2439.5l0.3-0.4l0.5,0.4l-0.3,0.4L810.6,2439.5z M809.6,2438.8l0.3-0.4            l0.5,0.4l-0.3,0.4L809.6,2438.8z M808.5,2438l0.3-0.4l0.5,0.4l-0.3,0.4L808.5,2438z M807.4,2437.3l0.3-0.4l0.5,0.4            l-0.3,0.4L807.4,2437.3z M806.3,2436.5l0.3-0.4l0.5,0.4l-0.3,0.4L806.3,2436.5z M805.2,2435.8l0.3-0.4l0.5,0.4l-0.3,0.4            L805.2,2435.8z M804.1,2435.1l0.3-0.4l0.5,0.4l-0.3,0.4L804.1,2435.1z M803,2434.3l0.3-0.4l0.5,0.4l-0.3,0.4L803,2434.3z             M802,2433.6l0.3-0.4l0.5,0.4l-0.3,0.4L802,2433.6z M800.9,2432.8l0.3-0.4l0.5,0.4l-0.3,0.4L800.9,2432.8z M799.8,2432.1            l0.3-0.4l0.5,0.4l-0.3,0.4L799.8,2432.1z M798.7,2431.4l0.3-0.4l0.5,0.4l-0.3,0.4L798.7,2431.4z M797.6,2430.6l0.3-0.4            l0.5,0.4l-0.3,0.4L797.6,2430.6z M796.5,2429.9l0.3-0.4l0.5,0.4l-0.3,0.4L796.5,2429.9z M795.5,2429.2l0.3-0.4l0.5,0.4            l-0.3,0.4L795.5,2429.2z M794.4,2428.4l0.3-0.4l0.5,0.4l-0.3,0.4L794.4,2428.4z M793.3,2427.7l0.3-0.4l0.5,0.4l-0.3,0.4            L793.3,2427.7z" class="color58595b svgShape"/><g><path fill="#e6e7e8" d="M812 2447c-.2-1.4.7-2.7 2.1-2.9 1.4-.2 2.7.7 2.9 2.1.2 1.4-.7 2.7-2.1 2.9C813.5 2449.3 812.2 2448.4 812 2447zM812.8 2446.9c.2 1 1.1 1.6 2 1.5 1-.2 1.6-1.1 1.5-2-.2-1-1.1-1.6-2-1.5C813.3 2445 812.6 2445.9 812.8 2446.9zM801.1 2440.1c-.2-1.4.7-2.7 2.1-2.9 1.4-.2 2.7.7 2.9 2.1.2 1.4-.7 2.7-2.1 2.9C802.6 2442.4 801.3 2441.5 801.1 2440.1zM801.9 2440c.2 1 1.1 1.6 2 1.5 1-.2 1.6-1.1 1.5-2-.2-1-1.1-1.6-2-1.5C802.4 2438.1 801.7 2439 801.9 2440z" class="colore6e7e8 svgShape"/><g><path fill="#020b0d" d="M814.2,2446.3c-0.1,0.3,0,0.6,0.3,0.7c0.1,0,0.2,0.1,0.3,0c0.2,0,0.4-0.2,0.4-0.3            c0.1-0.3,2.6-6.6,2-10.9c0-0.1,0-0.3-0.1-0.4c-0.1-0.5-0.2-0.9-0.4-1.3c-0.2-0.4-0.5-0.8-0.8-1.2            c-1.4-1.3-3.6-1.5-6.7-0.5c0.5,0.3,1,0.5,1.5,0.7c2-0.5,3.5-0.3,4.4,0.5c0.1,0.1,0.1,0.2,0.2,0.2c0.2,0.3,0.4,0.7,0.6,1.1            c0,0.1,0.1,0.2,0.1,0.2C816.8,2438.6,815.1,2444.1,814.2,2446.3z" class="color231f20 svgShape"/><path fill="#020b0d" d="M803.6,2439.4c0.2,0.3,0.5,0.3,0.8,0.2c2.1-1.4,7.3-4.3,10.9-4.4c0.2,0,0.4,0,0.6,0            c0.4,0,0.9,0.1,1.2,0.3c0.2,0.1,0.3,0.1,0.4,0.2c0.2,0.1,0.4,0.3,0.6,0.5c0.5,0.2,1.1,0.4,1.6,0.5c-0.3-0.9-0.9-1.5-1.6-2            c-0.4-0.3-0.9-0.5-1.5-0.6c-0.4-0.1-0.9-0.1-1.4-0.1c-0.7,0-1.4,0.1-2.1,0.3c-4.4,0.9-9.1,4.1-9.4,4.3            C803.5,2438.8,803.4,2439.2,803.6,2439.4z" class="color231f20 svgShape"/></g></g><g><path fill="#e6e7e8" d="M790.1,2433.1c-0.4-1.4,0.4-2.8,1.8-3.2c1.4-0.4,2.8,0.4,3.2,1.8c0.4,1.4-0.4,2.8-1.8,3.2           C791.9,2435.2,790.5,2434.4,790.1,2433.1z M790.9,2432.9c0.3,0.9,1.2,1.5,2.2,1.2c0.9-0.3,1.5-1.2,1.2-2.2           c-0.3-0.9-1.2-1.5-2.2-1.2C791.2,2430.9,790.6,2431.9,790.9,2432.9z" class="colore6e7e8 svgShape"/><path fill="#020b0d" d="M792.2,2432.8c0.2,0.2,0.6,0.2,0.8-0.1c1.2-1.4,4-4.2,6.7-5.2c0.9-0.3,1.7-0.5,2.5-0.2           c1.1,0.3,1.9,1.3,2.4,3c0.4,0.2,0.9,0.5,1.3,0.7c-0.6-2.7-1.8-4.2-3.4-4.7c-1.2-0.4-2.6,0-3.9,0.6c-3.2,1.5-6.2,5-6.3,5.2           C792,2432.2,792,2432.6,792.2,2432.8z" class="color231f20 svgShape"/></g></g><path fill="#333333" stroke="url(#a)" stroke-miterlimit="10" d="M420.9,1895l-61.8,248.1c-2.1,8.3-8,15-16,17.9l-203.3,75.7l10.7,58.8l208.5-50.1       c43.7-10.5,81.1-38.4,103.6-77.2l86.4-148.9l126.6,162.4l61.1,240.8l58-13.5l-22-222.2c-2.7-28.9-11-56.9-24.4-82.6L621.5,1862       l-109.4-18.2L420.9,1895z" class="color333 svgShape"/><path fill="#f7c69b" stroke="url(#a)" stroke-miterlimit="10" d="M543.7,1538.6c-20.5,35.1-39.1,31.6-55.9-8.3l-1.2-40.3l53.6,3.5l2,25.8l0.4,4.6l0.5,6.4l0.4,4.7       L543.7,1538.6z" class="colorf7c19b svgShape"/><path fill="#f7c69b" stroke="url(#a)" stroke-miterlimit="10" d="M546.3,1413c0,0,29.9,49,19.2,82.9c-5.6,17.6-23.7,27.9-41.8,24.4c-13.8-2.7-34.7-9.2-53.2-24.4       c-1.6-1.3-8.2-50-8.2-50l7.9-18.8l42.3-15.2L546.3,1413z" class="colorf7c19b svgShape"/><path fill="#333333" stroke="url(#a)" stroke-miterlimit="10" d="M509.7,1466.5l-10.6-17.2c0,0,6.2,1,13.4,0.6c10.4-0.6,18.4-9.7,17.7-20.1l-0.2-2.6       c0,0,41.5-11.1,21-44.9c-5.2-8.6-15-13.3-24.9-11.6c-8.7,1.5-20.6,6.5-35.7,19.1c-5.6,4.7-13.5,5.6-20.8,4.5       c-7.9-1.2-19,1.5-21.9,24.8c-0.5,4-1.6,8-3.4,11.6c-5,10.2-8.9,52.5,41.6,83.3c2.2,1.3,4.7-1,3.6-3.3       c-7-14.1-19.4-43.2-4.2-46.8c3.6-0.9,7.5,0.3,10.4,2.7l6.9,5.9c1.9,1.6,4.7,1.4,6.4-0.4l0,0       C510.6,1470.6,510.8,1468.3,509.7,1466.5z" class="color333 svgShape"/><path fill="#f7c69b" stroke="url(#a)" stroke-miterlimit="10" d="M880.8,1769l20,2.4c3.2,0.4,6.4-0.6,8.8-2.6l10.6-8.9c2-1.7,5-1.4,6.7,0.5l0,0c1.4,1.6,1.6,4,0.4,5.8       l-6.7,10.3c-1.8,2.7-0.7,6.4,2.2,7.8l29.9,14.2c2.3,1.1,3.4,3.9,2.3,6.2l0,0c-1,2.3-3.7,3.4-6.1,2.5l-17.4-6.6l19.6,7.5       c2.8,1.1,4.1,4.4,2.8,7.1l0,0c-1.2,2.5-4.1,3.6-6.6,2.6l-28.6-11.7l22.9,9.2c2.7,1.1,3.9,4.1,2.8,6.8l0,0       c-1.1,2.6-4.1,3.9-6.8,2.7l-30.4-13l23.1,9.7c2.6,1.1,3.8,4,2.8,6.6l0,0c-1,2.5-3.8,3.8-6.4,3c-19.4-6.3-39.6-16.1-60.4-27.7       L880.8,1769z" class="colorf7c19b svgShape"/><g><path fill="#eef4f6" d="M476.2,1552.5l11.6-22.1c15.8,22,34.3,25.8,55.9,8.3l58.7,92.4l-19.7,42.2l-3.8,151.4l-18.5,71.7        c-12.8,18.7-33.3,21.1-58.2,14.3l-27.8-19.2l-37.9-151.2l-0.1-63.7c0,0,12.8-44.6,14.8-46.9        C453.4,1627.3,476.2,1552.5,476.2,1552.5z" class="colorf1f2f2 svgShape"/><path fill="#455ad3" stroke="url(#a)" stroke-miterlimit="10" d="M898.8 1762.3c0 0-166.9-59.8-171.8-62.2-13.2-6.5-81.3-97.3-106.7-118.5-7.9-6.5-16.1-12.7-24.7-18.3-7.7-5-15.8-9.6-24.1-13.6-4.4-2.1-8.9-4.1-13.4-5.9-1.6-.7-13.3-4.4-14.4-5.2 2.7 13.1 5.3 26.1 8 39.2 5 24.6 7.2 48.3 4.9 73.5-1.8 20.1-4.9 40.2-5 60.4-.2 23.7 5.2 46.4 8.1 69.7 5.4 43.4 1.3 87.7.3 131.4-.1 6.2 5.3 11.2 11.5 10.4 24.6-3.1 45.3-12.8 62.1-29.4 1.8-1.8 2.7-4.3 2.4-6.8-3.3-28.9-7.1-57.7-11.3-86.5-4.6-31.4-13.7-98.7-8.4-99.9 4.8-1.1 46.7 46.5 63.9 60.4 1.7 1.2 3.7 3 5.7 3.8 17.7 11.8 184.2 48.9 184.2 48.9L898.8 1762.3zM487.8 1530.4c0 0 1.3 12.1 1.4 12.8 5.1 50.3 14.4 100.9 15.5 151.5 1.3 63.3-14.2 126.3-5.9 189.5.7 5.3 1.5 10.6 2.6 15.8.6 3.1 2.3 7.5.8 10.6-16 33.5-75.2 35.1-91.9 35.8-2.7.1-5-2.1-5-4.8l3.5-154.5c.3-13.3-.2-26.5-1.4-39.7l-10-107.4c-4.4-48 26.3-92.2 72.8-104.8L487.8 1530.4z" class="color1e88e5 svgShape"/></g><path fill="#e79f5f" stroke="url(#a)" stroke-miterlimit="10" d="M543.1,1530.3c-24.4,0.6-41.2-13.9-42.1-14.9c17.3,9.3,37.9,4.7,41.2,3.9l0.4,4.6L543.1,1530.3z" class="coloreab896 svgShape"/><path fill="#455ad3" stroke="url(#a)" stroke-miterlimit="10" d="M296.2,1803.6l-51.6-15.7l51.2-134.6c9-23.6,24.5-44,44.8-59c31.4-23.2,83.4-54,147.2-64L443,1632.1       c-30.9,6.6-60.7,20.4-88.8,43.9C342.4,1681.2,296.2,1803.6,296.2,1803.6z" class="color1e88e5 svgShape"/></g><g><polygon fill="#58585b" stroke="url(#a)" stroke-miterlimit="10" points="1191.1 1898.7 1191.1 2308.5 1170 2307.8 1170 1898.2" class="color58595b svgShape"/><polygon fill="#58585b" stroke="url(#a)" stroke-miterlimit="10" points="1495 1906.6 1492.3 1930.6 1451.1 2291.9 1448.4 2315.9 1427.3 2315.3 1430 2291.3 1471.2 1930 1473.9 1906.1" class="color58595b svgShape"/><polygon fill="#58585b" stroke="url(#a)" stroke-miterlimit="10" points="1340.7 1902.6 1339.2 1926.6 1316.8 2288 1315.4 2312 1294.3 2311.4 1295.8 2287.4 1318.1 1926.1 1319.6 1902" class="color58595b svgShape"/></g></g></svg>