<svg width="544" height="355" viewBox="0 0 544 355" fill="none" xmlns="http://www.w3.org/2000/svg">
<rect width="544" height="355" fill="#EEF4F6"/>
<g clip-path="url(#clip0_274_50)">
<path d="M169.442 124.624C164.351 121.548 148.095 118.873 140.892 120.484C122.393 124.622 109.726 140.542 110.915 159.889C110.413 160.445 110.523 161.22 111.07 161.628C111.221 163.093 111.431 164.505 111.684 165.876C106.301 165.964 101.539 166.102 98.2139 166.306C96.8026 156.633 95.8089 156.282 92.7093 156.01C86.886 155.499 80.9697 155.363 75.1442 155.608C74.4852 155.634 73.9752 156.191 74.0009 156.849C74.0289 157.505 74.59 158.009 75.2419 157.989C80.9744 157.75 86.7813 157.884 92.4997 158.385C95.7002 158.667 95.1078 160.53 101.061 210.327C99.2752 211.821 97.8712 213.947 96.7164 215.87C93.788 220.755 95.7834 226.55 103.961 226.68C104.217 231.595 111.404 237.135 116.819 232.845C118.492 231.523 119.53 229.419 119.735 227.209C123.392 227.348 136.149 227.342 148.521 226.854C148.765 229.79 151.981 232.951 154.145 233.88C160.458 236.584 167.195 229.282 163.109 221.808C159.705 215.62 150.486 216.655 148.688 224.444C148.686 224.451 148.687 224.456 148.685 224.462C136.019 224.968 122.851 224.956 119.652 224.82C119.459 223.797 119.106 222.776 118.577 221.81C117.772 220.339 116.694 219.203 115.457 218.524C112.318 216.806 105.821 217.763 104.21 224.293C101.842 224.268 99.6802 223.902 98.5627 222.364C97.4498 220.829 97.8852 218.557 98.7606 217.096C101.974 211.742 103.065 212.25 103.428 211.26C123.821 211.823 135.523 211.269 146.871 210.557C163.78 209.492 163.441 210.182 163.924 209.051C166.111 203.922 167.302 198.544 168.186 193.17C174.745 189.733 180.276 184.447 183.592 177.429C185.927 172.487 186.984 167.091 187.778 161.995C188.94 154.547 188.849 150.379 185.275 143.844C183 139.684 174.22 127.509 169.442 124.624ZM152.574 221.838C153.971 220.32 157.021 219.617 158.841 220.615C160.67 221.619 161.927 224.218 161.971 226.349C162.051 230.476 158.188 233.018 155.086 231.689C153.438 230.982 151.373 228.53 151.002 227.43C150.783 226.782 151.09 223.452 152.574 221.838ZM106.479 224.98C107.603 220.109 112.277 219.5 114.312 220.615C115.148 221.074 115.9 221.883 116.486 222.954C117.087 224.053 117.415 225.228 117.439 226.349C117.517 230.416 113.715 233.044 110.556 231.689C108.883 230.973 106.83 228.499 106.47 227.43C106.249 226.776 106.251 225.974 106.479 224.98ZM175.635 134.25C172.762 135.181 169.755 136.124 166.66 136.951C164.171 131.53 159.872 126.345 155.747 123.193C167.76 125.053 169.422 126.547 175.635 134.25ZM151.296 195.308C150.015 195.355 148.761 195.435 145.788 195.148C145.017 194.367 138.988 191.456 134.372 178.397C144.822 176.009 151.188 176.528 163.075 177.81C158.234 191.963 151.891 194.417 151.296 195.308ZM154.648 197.421C154.615 197.766 154.581 198.121 154.548 198.438C151.438 198.424 148.324 198.421 145.199 198.428C145.22 198.148 145.23 197.867 145.242 197.586C148.375 197.887 151.535 197.83 154.648 197.421ZM121.074 182.231C124.552 181.101 128.223 179.931 132.015 178.961C134.001 184.715 136.926 190.38 141.198 194.439C132.861 192.652 125.628 188.311 121.074 182.231ZM123.727 188.369C123.69 188.37 123.654 188.371 123.618 188.372C123.619 188.336 123.62 188.308 123.621 188.272C123.656 188.304 123.691 188.337 123.727 188.369ZM119.687 180.174C116.826 175.509 114.171 168.305 113.455 161.482C118.21 160.195 123.078 159.36 127.949 158.885C128.243 162.494 129.062 169.453 131.267 176.69C127.233 177.729 123.347 178.983 119.687 180.174ZM144.396 174.461C140.744 174.689 137.135 175.312 133.614 176.126C131.843 170.433 130.787 164.321 130.332 158.707C142.044 157.813 155.126 158.569 166.858 159.321C166.396 164.558 165.413 170.186 163.82 175.491C157.533 174.786 150.315 174.097 144.396 174.461ZM130.169 156.33C129.764 149.097 130.354 144.193 131.864 140.07C146.65 142.85 156.654 141.887 165.279 139.766C167.341 145.43 167.368 151.705 167.039 156.944C155.091 156.177 141.98 155.431 130.169 156.33ZM146.944 122.393C148.044 122.409 149.203 122.466 150.399 122.562C150.508 122.695 150.64 122.811 150.806 122.89C156.279 125.469 161.696 132.094 164.323 137.542C157.088 139.286 148.182 140.605 132.81 137.813C133.81 135.717 135.068 133.757 136.585 131.692C142.734 123.319 146.285 123.543 146.944 122.393ZM141.974 122.708C137.359 125.885 132.489 132.72 130.409 137.337C127.176 136.641 124.128 135.736 121.563 134.6C127.071 128.165 134.902 123.972 141.974 122.708ZM120.034 136.523C122.802 137.822 126.073 138.826 129.512 139.588C127.991 143.925 127.379 149.104 127.791 156.508C122.927 156.977 118.056 157.808 113.276 159.07C112.915 150.907 115.03 143.292 120.034 136.523ZM112.212 168.253C112.997 171.568 114.083 174.591 115.428 177.326C113.946 177.223 112.426 177.101 110.707 176.961C110.475 174.063 110.233 171.17 109.97 168.287C110.687 168.273 111.459 168.264 112.212 168.253ZM98.5431 168.675C101.204 168.516 104.742 168.397 108.775 168.312C109.034 171.154 109.272 174.008 109.502 176.865C106.215 176.612 102.868 176.443 99.5322 176.652C99.1645 173.54 98.8416 170.908 98.5431 168.675ZM99.6719 177.84C102.973 177.638 106.316 177.814 109.604 178.069C109.881 181.582 110.136 185.101 110.367 188.623C107.209 188.631 104.051 188.596 100.902 188.473C100.529 185.235 100.055 181.102 99.6719 177.84ZM103.289 208.874C102.404 201.453 101.666 195.099 101.039 189.665C105.317 189.825 107.53 189.834 110.44 189.825C110.635 192.861 110.817 195.898 110.978 198.932C102.412 199.162 102.407 198.957 102.43 199.762C102.463 200.677 102.909 200.341 111.035 200.123C111.187 203.09 111.326 206.053 111.445 209.007C108.723 208.972 105.998 208.951 103.289 208.874ZM121.508 209.047C118.548 209.064 115.602 209.059 112.64 209.027C112.521 206.055 112.381 203.075 112.228 200.091C115.439 200.008 118.646 199.928 121.856 199.866C121.431 209.446 121.275 208.645 121.508 209.047ZM121.918 198.673C118.668 198.735 115.422 198.815 112.171 198.9C112.011 195.871 111.828 192.839 111.634 189.807C115.233 189.783 118.81 189.708 122.369 189.598C122.258 192.089 122.106 195.047 121.918 198.673ZM122.422 188.412C118.825 188.524 115.198 188.593 111.563 188.618C111.335 185.13 111.083 181.645 110.809 178.166C112.758 178.325 114.427 178.459 116.061 178.565C117.847 181.888 120.004 184.781 122.468 187.219C122.454 187.608 122.44 187.993 122.422 188.412ZM132.282 208.902C127.7 209.034 128.894 208.99 122.478 209.037C122.71 208.626 122.476 209.745 123.05 199.848C126.17 199.791 129.289 199.737 132.403 199.701L132.282 208.902ZM132.419 198.508C129.32 198.544 126.216 198.597 123.112 198.654C123.301 195.022 123.453 192.056 123.565 189.56C124.058 189.544 124.551 189.528 125.044 189.512C127.351 191.385 129.846 192.94 132.477 194.167L132.419 198.508ZM143.016 208.397C139.874 208.587 136.693 208.745 133.475 208.855L133.596 199.682C137.041 199.645 140.471 199.638 143.904 199.626C143.67 202.557 143.374 205.482 143.016 208.397ZM144.005 198.434C140.544 198.444 137.086 198.452 133.612 198.489L133.662 194.67C136.987 196.083 140.488 197.023 144.055 197.472C144.041 197.792 144.029 198.113 144.005 198.434ZM144.222 208.326C144.573 205.432 144.871 202.53 145.103 199.621C148.216 199.614 151.32 199.615 154.419 199.629C153.993 203.445 153.577 205.591 152.919 207.807C150.833 207.925 144.465 208.311 144.222 208.326ZM162.024 207.41C159.39 207.477 156.773 207.593 154.184 207.732C154.8 205.566 155.204 203.381 155.618 199.638C158.571 199.654 161.527 199.665 164.462 199.7C163.823 202.32 163.043 204.904 162.024 207.41ZM164.739 198.51C161.755 198.474 158.748 198.463 155.745 198.446C155.783 198.076 155.822 197.664 155.861 197.261C159.203 196.722 162.46 195.761 165.545 194.43C165.301 195.794 165.045 197.157 164.739 198.51ZM155.54 194.936C160.311 190.662 163.445 184.388 165.511 178.122C169.733 178.711 173.696 179.775 178.12 181.915C172.861 189.001 164.91 193.598 155.54 194.936ZM181.436 176.411C180.856 177.638 180.194 178.801 179.485 179.923C174.885 177.651 170.647 176.464 166.228 175.816C168.129 169.268 168.929 163.043 169.248 159.456C174.7 159.827 180.139 160.271 185.54 160.786C184.767 166.065 183.722 171.57 181.436 176.411ZM185.843 158.419C180.399 157.9 174.916 157.452 169.42 157.078C169.759 151.66 169.713 145.168 167.583 139.171C170.919 138.269 174.146 137.242 177.209 136.247C183.684 144.672 186.768 149.758 185.843 158.419Z" fill="#EB7AA5"/>
<path d="M209.904 180.711C210.052 179.086 210.556 177.461 211.418 175.836C212.28 174.211 213.302 172.881 214.484 171.847C219.753 175.048 224.752 176.648 229.479 176.648C231.548 176.648 233.062 176.18 234.022 175.245C234.983 174.309 235.463 173.152 235.463 171.773C235.463 169.458 233.912 167.636 230.809 166.306L222.092 162.613C218.694 161.086 216.084 159.252 214.262 157.11C212.44 154.967 211.529 152.247 211.529 148.947C211.529 146.682 211.984 144.613 212.896 142.742C213.807 140.871 215.087 139.245 216.737 137.866C218.387 136.488 220.344 135.416 222.609 134.653C224.875 133.89 227.386 133.508 230.144 133.508C235.66 133.508 241.225 134.912 246.839 137.719C246.593 141.511 245.263 144.466 242.85 146.583C237.827 144.17 233.394 142.964 229.553 142.964C227.583 142.964 226.106 143.407 225.121 144.293C224.136 145.18 223.644 146.189 223.644 147.322C223.644 149.242 225.096 150.794 228.002 151.976L236.866 155.743C240.609 157.319 243.404 159.338 245.251 161.8C247.097 164.263 248.021 167.119 248.021 170.369C248.021 172.684 247.602 174.801 246.765 176.722C245.928 178.643 244.684 180.305 243.034 181.708C241.385 183.112 239.329 184.208 236.866 184.996C234.404 185.783 231.523 186.177 228.224 186.177C221.821 186.177 215.715 184.355 209.904 180.711ZM285.842 160.692V175.836C285.842 179.135 286.458 181.573 287.689 183.149C285.818 184.823 283.552 185.66 280.893 185.66C278.332 185.66 276.584 185.069 275.648 183.887C274.712 182.706 274.245 180.908 274.245 178.495V162.761C274.245 161.086 274.023 159.855 273.58 159.067C273.136 158.279 272.275 157.885 270.994 157.885C270.256 157.885 269.418 158.082 268.483 158.476C267.547 158.87 266.587 159.51 265.602 160.397V185.069C263.977 185.365 262.105 185.513 259.988 185.513C257.87 185.513 255.999 185.365 254.374 185.069V131.218L254.891 130.701H259.323C261.687 130.701 263.324 131.218 264.235 132.252C265.146 133.287 265.602 135.084 265.602 137.645V151.606C268.901 148.898 272.201 147.543 275.5 147.543C278.8 147.543 281.348 148.738 283.146 151.126C284.943 153.515 285.842 156.703 285.842 160.692ZM321.078 151.459C324.624 155.004 326.397 160.077 326.397 166.676C326.397 169.631 326.015 172.315 325.252 174.728C324.488 177.141 323.38 179.197 321.928 180.896C320.475 182.595 318.69 183.9 316.572 184.811C314.454 185.722 312.017 186.177 309.259 186.177C306.501 186.177 304.076 185.71 301.983 184.774C299.89 183.838 298.117 182.521 296.664 180.822C295.211 179.123 294.116 177.067 293.377 174.654C292.638 172.241 292.269 169.581 292.269 166.676C292.269 163.721 292.638 161.049 293.377 158.661C294.116 156.272 295.199 154.216 296.627 152.493C298.055 150.769 299.828 149.439 301.946 148.504C304.063 147.568 306.501 147.1 309.259 147.1C314.134 147.1 318.074 148.553 321.078 151.459ZM309.333 155.743C308.249 155.743 307.375 156.002 306.71 156.519C306.046 157.036 305.516 157.738 305.122 158.624C304.728 159.51 304.457 160.532 304.31 161.69C304.162 162.847 304.088 164.09 304.088 165.42C304.088 167.488 304.15 169.274 304.273 170.776C304.396 172.278 304.642 173.533 305.011 174.543C305.381 175.552 305.898 176.303 306.563 176.796C307.227 177.288 308.102 177.535 309.185 177.535C311.352 177.535 312.78 176.587 313.469 174.691C314.159 172.795 314.504 170.098 314.504 166.602C314.504 163.056 314.159 160.36 313.469 158.513C312.78 156.666 311.401 155.743 309.333 155.743ZM351.143 185.808C348.878 185.808 346.612 185.291 344.347 184.257V194.082C344.347 196.642 343.879 198.44 342.944 199.474C342.008 200.508 340.358 201.025 337.994 201.025H333.562L333.045 200.508V148.208L333.562 147.691H336.591C339.398 147.691 341.491 148.898 342.87 151.311C345.677 148.504 349.099 147.1 353.138 147.1C355.206 147.1 357.028 147.556 358.604 148.467C360.18 149.378 361.522 150.671 362.63 152.345C363.738 154.019 364.575 156.039 365.142 158.402C365.708 160.766 365.991 163.425 365.991 166.38C365.991 169.335 365.609 172.019 364.846 174.432C364.083 176.845 363.036 178.889 361.707 180.563C360.377 182.238 358.813 183.53 357.016 184.441C355.218 185.353 353.261 185.808 351.143 185.808ZM349.74 156.334C347.671 156.334 345.874 157.319 344.347 159.289V175.54C346.219 176.673 347.819 177.239 349.149 177.239C352.497 177.239 354.172 173.521 354.172 166.085C354.172 159.584 352.694 156.334 349.74 156.334ZM391.624 169.261H385.788V185.069C384.212 185.365 382.242 185.513 379.879 185.513C377.465 185.513 375.496 185.365 373.969 185.069V134.986L374.486 134.468C378.771 134.37 382.329 134.296 385.16 134.247C387.992 134.198 390.146 134.173 391.624 134.173C394.332 134.173 396.807 134.542 399.048 135.281C401.289 136.02 403.197 137.128 404.773 138.605C406.349 140.083 407.567 141.917 408.429 144.109C409.291 146.3 409.722 148.824 409.722 151.68C409.722 154.536 409.279 157.06 408.392 159.252C407.506 161.443 406.275 163.278 404.699 164.755C403.123 166.233 401.215 167.353 398.974 168.116C396.733 168.88 394.283 169.261 391.624 169.261ZM385.788 143.185V160.397C387.167 160.348 388.263 160.311 389.075 160.286C389.888 160.261 390.417 160.249 390.664 160.249C391.993 160.249 393.101 160.015 393.988 159.547C394.874 159.079 395.588 158.464 396.13 157.701C396.672 156.937 397.066 156.039 397.312 155.004C397.558 153.97 397.681 152.887 397.681 151.754C397.681 150.671 397.558 149.612 397.312 148.578C397.066 147.543 396.684 146.632 396.167 145.844C395.65 145.057 394.973 144.429 394.135 143.961C393.298 143.493 392.313 143.259 391.181 143.259H388.152C388.152 143.259 387.364 143.234 385.788 143.185ZM446.14 179.751C445.894 180.785 445.426 181.893 444.736 183.075C444.047 184.257 443.333 185.119 442.594 185.66C439.147 185.562 436.488 184.257 434.616 181.745C431.415 184.7 427.943 186.177 424.201 186.177C422.28 186.177 420.606 185.87 419.177 185.254C417.749 184.638 416.543 183.814 415.558 182.779C414.573 181.745 413.834 180.551 413.342 179.197C412.849 177.842 412.603 176.427 412.603 174.949C412.603 172.832 412.985 170.973 413.748 169.372C414.511 167.772 415.558 166.442 416.887 165.383C418.217 164.324 419.768 163.524 421.541 162.982C423.314 162.441 425.21 162.17 427.229 162.17C428.362 162.17 429.359 162.182 430.221 162.207C431.083 162.231 431.834 162.268 432.474 162.317V160.914C432.474 157.811 430.873 156.26 427.672 156.26C425.604 156.26 421.984 157.048 416.814 158.624C415.336 156.9 414.4 154.216 414.007 150.572C415.188 150.129 416.506 149.71 417.959 149.316C419.411 148.922 420.901 148.578 422.428 148.282C423.954 147.987 425.456 147.753 426.934 147.58C428.411 147.408 429.741 147.322 430.923 147.322C432.646 147.322 434.308 147.568 435.909 148.061C437.509 148.553 438.913 149.304 440.12 150.314C441.326 151.323 442.286 152.628 443 154.229C443.715 155.829 444.072 157.738 444.072 159.954V174.949C444.072 177.215 444.761 178.815 446.14 179.751ZM423.831 174.211C423.831 176.525 425.161 177.682 427.82 177.682C429.199 177.682 430.75 176.968 432.474 175.54V169.631C431.489 169.581 430.664 169.544 429.999 169.52C429.335 169.495 428.83 169.483 428.485 169.483C425.382 169.483 423.831 171.059 423.831 174.211ZM467.119 176.648H469.113C469.704 178.273 470 179.898 470 181.524C470 183.149 469.926 184.208 469.778 184.7C466.824 185.193 464.189 185.439 461.874 185.439C458.525 185.439 456.149 184.614 454.746 182.964C453.342 181.314 452.64 178.717 452.64 175.171V131.218L453.084 130.701H457.59C459.904 130.701 461.529 131.218 462.465 132.252C463.401 133.287 463.869 135.084 463.869 137.645V173.176C463.869 175.491 464.952 176.648 467.119 176.648Z" fill="#455AD3"/>
<path d="M237.228 224.043C235.261 224.043 233.725 223.097 233.446 221.378L235.413 220.927C235.54 221.955 236.295 222.488 237.304 222.488C238.078 222.488 238.694 222.145 238.687 221.371C238.681 220.508 237.666 220.236 236.549 219.893C235.204 219.474 233.764 218.979 233.764 217.291C233.764 215.585 235.159 214.62 237 214.62C238.611 214.62 240.236 215.274 240.604 217.031L238.764 217.488C238.592 216.574 237.977 216.175 237.114 216.175C236.346 216.175 235.692 216.492 235.692 217.247C235.692 217.951 236.593 218.186 237.634 218.497C239.017 218.916 240.654 219.449 240.654 221.276C240.654 223.224 239.024 224.043 237.228 224.043ZM247.055 217.266C248.514 217.266 249.39 218.078 249.39 219.709V223.916H247.556V220.007C247.556 219.049 247.023 218.732 246.37 218.732C245.691 218.732 244.948 219.068 244.936 220.318V223.916H243.108V214.17H244.936V218.174C245.399 217.609 246.128 217.266 247.055 217.266ZM255.124 224.043C253.049 224.043 251.552 222.78 251.552 220.648C251.552 218.529 253.037 217.266 255.124 217.266C257.224 217.266 258.703 218.529 258.703 220.648C258.703 222.78 257.218 224.043 255.124 224.043ZM255.105 222.59C256.165 222.59 256.888 221.815 256.888 220.648C256.888 219.48 256.165 218.706 255.105 218.706C254.084 218.706 253.367 219.48 253.367 220.648C253.367 221.815 254.084 222.59 255.105 222.59ZM264.824 217.266C266.544 217.266 267.965 218.529 267.965 220.667C267.965 222.806 266.544 224.068 264.824 224.068C263.974 224.068 263.213 223.738 262.826 223.142V227.088H260.998V217.393H262.73L262.781 218.269C263.143 217.622 263.936 217.266 264.824 217.266ZM264.412 222.552C265.37 222.552 266.138 221.854 266.138 220.667C266.138 219.48 265.37 218.783 264.412 218.783C263.435 218.783 262.673 219.525 262.673 220.667C262.673 221.809 263.435 222.552 264.412 222.552ZM277.879 224.043C275.912 224.043 274.377 223.097 274.098 221.378L276.064 220.927C276.191 221.955 276.946 222.488 277.955 222.488C278.729 222.488 279.345 222.145 279.339 221.371C279.332 220.508 278.317 220.236 277.2 219.893C275.855 219.474 274.415 218.979 274.415 217.291C274.415 215.585 275.811 214.62 277.651 214.62C279.262 214.62 280.887 215.274 281.255 217.031L279.415 217.488C279.243 216.574 278.628 216.175 277.765 216.175C276.997 216.175 276.344 216.492 276.344 217.247C276.344 217.951 277.245 218.186 278.285 218.497C279.669 218.916 281.306 219.449 281.306 221.276C281.306 223.224 279.675 224.043 277.879 224.043ZM291.488 217.266C292.884 217.266 293.785 217.977 293.785 219.316V223.916H291.958V219.836C291.958 219.068 291.475 218.732 290.93 218.732C290.276 218.732 289.699 219.106 289.699 220.236V223.916H287.852V219.855C287.852 219.075 287.383 218.732 286.805 218.732C286.171 218.732 285.581 219.106 285.581 220.331V223.916H283.76V217.393H285.581V218.161C286.012 217.584 286.672 217.266 287.472 217.266C288.417 217.266 289.128 217.609 289.47 218.244C289.927 217.59 290.625 217.266 291.488 217.266ZM301.848 222.145C301.848 222.945 301.924 223.453 302.006 223.738V223.916H300.299L300.153 223.205C299.665 223.795 298.821 224.043 298.06 224.043C297.032 224.043 296.029 223.586 296.029 222.228C296.029 220.876 297.038 220.42 298.402 220.121L299.474 219.88C299.938 219.772 300.103 219.614 300.103 219.347C300.103 218.706 299.519 218.529 299.005 218.529C298.345 218.529 297.844 218.789 297.73 219.525L296.112 219.233C296.384 217.881 297.374 217.266 299.106 217.266C300.414 217.266 301.848 217.653 301.848 219.62L301.848 222.145ZM298.631 222.805C299.5 222.805 300.198 222.228 300.198 220.933L298.65 221.371C298.142 221.492 297.774 221.67 297.774 222.107C297.774 222.577 298.161 222.805 298.631 222.805ZM306.313 218.427C306.643 217.85 307.5 217.317 308.445 217.317V218.948C307.062 218.948 306.402 219.354 306.402 220.737V223.916H304.562V217.393H306.313L306.313 218.427ZM312.885 223.916C311.616 223.916 310.893 223.18 310.893 221.879V218.795H309.611V217.393H310.023C310.715 217.393 311.096 217.126 311.096 216.149V215.286H312.745V217.393H314.09V218.795H312.745V221.682C312.745 222.266 313.031 222.526 313.5 222.526H314.09V223.916H312.885ZM322.578 220.559L322.559 220.997H317.724C317.8 222.082 318.524 222.602 319.393 222.602C320.047 222.602 320.554 222.298 320.802 221.72L322.477 221.968C322.045 223.288 320.871 224.043 319.406 224.043C317.299 224.043 315.922 222.799 315.922 220.654C315.922 218.51 317.337 217.253 319.349 217.253C321.195 217.253 322.572 218.275 322.578 220.559ZM319.362 218.548C318.53 218.548 317.953 218.935 317.775 219.804H320.77C320.675 218.973 320.11 218.548 319.362 218.548ZM326.657 218.427C326.987 217.85 327.843 217.317 328.789 217.317V218.948C327.406 218.948 326.746 219.354 326.746 220.737V223.916H324.906V217.393H326.657L326.657 218.427ZM332.08 226.251H330.773L331.566 222.101H333.444L332.08 226.251ZM343.6 224.043C341.633 224.043 340.097 223.097 339.818 221.378L341.785 220.927C341.912 221.955 342.667 222.488 343.676 222.488C344.45 222.488 345.065 222.145 345.059 221.371C345.053 220.508 344.038 220.236 342.921 219.893C341.576 219.474 340.135 218.979 340.135 217.291C340.135 215.585 341.531 214.62 343.371 214.62C344.983 214.62 346.607 215.274 346.975 217.031L345.135 217.488C344.964 216.574 344.349 216.175 343.486 216.175C342.718 216.175 342.064 216.492 342.064 217.247C342.064 217.951 342.965 218.186 344.006 218.497C345.389 218.916 347.026 219.449 347.026 221.276C347.026 223.224 345.395 224.043 343.6 224.043ZM353.427 217.266C354.886 217.266 355.762 218.078 355.762 219.709V223.916H353.928V220.007C353.928 219.049 353.395 218.732 352.741 218.732C352.062 218.732 351.32 219.068 351.307 220.318V223.916H349.48V214.17H351.307V218.174C351.771 217.609 352.5 217.266 353.427 217.266ZM361.496 224.043C359.421 224.043 357.924 222.78 357.924 220.648C357.924 218.529 359.409 217.266 361.496 217.266C363.596 217.266 365.075 218.529 365.075 220.648C365.075 222.78 363.59 224.043 361.496 224.043ZM361.477 222.59C362.537 222.59 363.26 221.815 363.26 220.648C363.26 219.48 362.537 218.706 361.477 218.706C360.455 218.706 359.738 219.48 359.738 220.648C359.738 221.815 360.455 222.59 361.477 222.59ZM371.196 217.266C372.916 217.266 374.337 218.529 374.337 220.667C374.337 222.806 372.916 224.068 371.196 224.068C370.346 224.068 369.584 223.738 369.197 223.142V227.088H367.37V217.393H369.102L369.153 218.269C369.515 217.622 370.308 217.266 371.196 217.266ZM370.784 222.552C371.742 222.552 372.509 221.854 372.509 220.667C372.509 219.48 371.742 218.783 370.784 218.783C369.806 218.783 369.045 219.525 369.045 220.667C369.045 221.809 369.806 222.552 370.784 222.552ZM384.251 224.043C382.284 224.043 380.749 223.097 380.469 221.378L382.436 220.927C382.563 221.955 383.318 222.488 384.327 222.488C385.101 222.488 385.717 222.145 385.71 221.371C385.704 220.508 384.689 220.236 383.572 219.893C382.227 219.474 380.787 218.979 380.787 217.291C380.787 215.585 382.182 214.62 384.023 214.62C385.634 214.62 387.259 215.274 387.627 217.031L385.787 217.488C385.615 216.574 385 216.175 384.137 216.175C383.369 216.175 382.716 216.492 382.716 217.247C382.716 217.951 383.617 218.186 384.657 218.497C386.04 218.916 387.677 219.449 387.677 221.276C387.677 223.224 386.047 224.043 384.251 224.043ZM394.078 217.266C395.537 217.266 396.413 218.078 396.413 219.709V223.916H394.579V220.007C394.579 219.049 394.046 218.732 393.393 218.732C392.714 218.732 391.971 219.068 391.959 220.318V223.916H390.131V214.17H391.959V218.174C392.422 217.609 393.151 217.266 394.078 217.266ZM402.147 224.043C400.072 224.043 398.575 222.78 398.575 220.648C398.575 218.529 400.06 217.266 402.147 217.266C404.247 217.266 405.726 218.529 405.726 220.648C405.726 222.78 404.241 224.043 402.147 224.043ZM402.128 222.59C403.188 222.59 403.911 221.815 403.911 220.648C403.911 219.48 403.188 218.706 402.128 218.706C401.107 218.706 400.39 219.48 400.39 220.648C400.39 221.815 401.107 222.59 402.128 222.59ZM411.847 217.266C413.567 217.266 414.988 218.529 414.988 220.667C414.988 222.806 413.567 224.068 411.847 224.068C410.997 224.068 410.236 223.738 409.849 223.142V227.088H408.021V217.393H409.753L409.804 218.269C410.166 217.622 410.959 217.266 411.847 217.266ZM411.435 222.552C412.393 222.552 413.161 221.854 413.161 220.667C413.161 219.48 412.393 218.783 411.435 218.783C410.458 218.783 409.696 219.525 409.696 220.667C409.696 221.809 410.458 222.552 411.435 222.552ZM421.357 214.747C423.153 214.747 424.269 216.08 424.269 217.71C424.269 219.379 423.153 220.629 421.357 220.629H419.447V223.916H417.543V214.747L421.357 214.747ZM421.04 219.036C421.991 219.036 422.436 218.51 422.436 217.685C422.436 216.892 421.991 216.34 421.04 216.34H419.447V219.036H421.04ZM431.914 222.145C431.914 222.945 431.99 223.453 432.072 223.738V223.916H430.365L430.219 223.205C429.731 223.795 428.887 224.043 428.125 224.043C427.098 224.043 426.095 223.586 426.095 222.228C426.095 220.876 427.104 220.42 428.468 220.121L429.54 219.88C430.004 219.772 430.169 219.614 430.169 219.347C430.169 218.706 429.585 218.529 429.071 218.529C428.411 218.529 427.91 218.789 427.795 219.525L426.177 219.233C426.45 217.881 427.44 217.266 429.172 217.266C430.479 217.266 431.913 217.653 431.913 219.62L431.914 222.145ZM428.697 222.805C429.566 222.805 430.264 222.228 430.264 220.933L428.716 221.371C428.208 221.492 427.84 221.67 427.84 222.107C427.84 222.577 428.227 222.805 428.697 222.805ZM434.628 223.916V214.17H436.474V223.916H434.628ZM439.734 220.991L439.55 214.747H441.39L441.206 220.991H439.734ZM440.47 224.043C439.899 224.043 439.429 223.573 439.429 223.002C439.429 222.418 439.899 221.949 440.47 221.949C441.054 221.949 441.523 222.418 441.523 223.002C441.523 223.573 441.054 224.043 440.47 224.043Z" fill="#E79F5F"/>
</g>
<defs>
<clipPath id="clip0_274_50">
<rect width="396" height="114.455" fill="white" transform="translate(74 120)"/>
</clipPath>
</defs>
</svg>
