<svg width="300" height="87" viewBox="0 0 300 87" fill="none" xmlns="http://www.w3.org/2000/svg">
<g clip-path="url(#clip0_280_6)">
<path d="M72.3049 3.51493C68.4479 1.17631 56.1329 -0.857013 50.6759 0.368157C36.6613 3.51305 27.065 15.6145 27.9656 30.3209C27.5859 30.7434 27.6693 31.332 28.0835 31.6424C28.1975 32.7559 28.3565 33.8292 28.5485 34.8715C24.4701 34.9382 20.8631 35.043 18.3439 35.1983C17.2747 27.8453 16.5219 27.5791 14.1737 27.3723C9.76216 26.9839 5.28007 26.8803 0.866785 27.0662C0.3676 27.0865 -0.0188055 27.5095 0.000707646 28.0095C0.0218746 28.5086 0.446976 28.8918 0.940869 28.8767C5.2836 28.6944 9.68278 28.7962 14.0149 29.1776C16.4395 29.3915 15.9907 30.8076 20.5008 68.66C19.1479 69.7954 18.0843 71.4112 17.2094 72.8731C14.9909 76.5863 16.5026 80.9912 22.6975 81.0897C22.8914 84.826 28.3366 89.0375 32.4389 85.7761C33.7062 84.7715 34.4922 83.1719 34.6481 81.4918C37.4183 81.5981 47.0828 81.5931 56.4554 81.2227C56.6398 83.4541 59.0762 85.8568 60.716 86.5628C65.4983 88.6183 70.6021 83.068 67.5071 77.3871C64.9277 72.6833 57.9442 73.4699 56.5815 79.3905C56.5804 79.3955 56.5809 79.3995 56.5798 79.4045C46.9838 79.7891 37.0084 79.7797 34.5847 79.6761C34.4384 78.8985 34.1712 78.1226 33.7707 77.388C33.1603 76.2703 32.3437 75.4066 31.407 74.8907C29.0285 73.5849 24.1067 74.3117 22.8866 79.2756C21.0925 79.2565 19.4547 78.9783 18.6081 77.8092C17.765 76.6429 18.0948 74.9155 18.7581 73.8049C21.1923 69.7351 22.0189 70.1216 22.2936 69.3689C37.7429 69.7966 46.608 69.3755 55.2056 68.8343C68.0154 68.0252 67.7587 68.5495 68.1245 67.6901C69.781 63.7912 70.6831 59.7033 71.3527 55.6185C76.3217 53.0059 80.512 48.9877 83.0242 43.6531C84.7934 39.8966 85.5942 35.795 86.1957 31.9217C87.0759 26.26 87.0071 23.092 84.2995 18.1241C82.5761 14.9622 75.9244 5.70776 72.3049 3.51493ZM59.5254 77.4092C60.5839 76.2554 62.8949 75.7213 64.2739 76.48C65.659 77.2428 66.611 79.2188 66.6445 80.8383C66.7052 83.9752 63.7788 85.9074 61.4287 84.8974C60.1801 84.3602 58.6158 82.4959 58.3348 81.6604C58.169 81.1675 58.4012 78.636 59.5254 77.4092ZM24.6054 79.7976C25.4572 76.0953 28.9979 75.6321 30.5392 76.48C31.1724 76.8287 31.7422 77.4437 32.1867 78.2578C32.6418 79.0932 32.8905 79.9861 32.9081 80.8383C32.9677 83.9296 30.087 85.9274 27.694 84.8974C26.4263 84.3529 24.8715 82.4729 24.5984 81.6604C24.4308 81.163 24.4325 80.5533 24.6054 79.7976ZM76.9962 10.8321C74.8194 11.5393 72.5416 12.2559 70.1967 12.8849C68.3111 8.76405 65.0548 4.82262 61.9299 2.42714C71.0302 3.84069 72.2892 4.97659 76.9962 10.8321ZM58.5575 57.2432C57.5873 57.2791 56.6368 57.3397 54.385 57.1219C53.8009 56.5284 49.2335 54.3157 45.736 44.3889C53.6527 42.5741 58.4755 42.9682 67.4812 43.9428C63.8139 54.7005 59.0082 56.566 58.5575 57.2432ZM61.0972 58.8499C61.0717 59.1115 61.046 59.3816 61.0212 59.6226C58.6652 59.6117 56.306 59.6098 53.9385 59.6153C53.9542 59.4021 53.9621 59.1883 53.9712 58.9747C56.3447 59.2037 58.7388 59.1607 61.0972 58.8499ZM35.662 47.303C38.2971 46.4445 41.0779 45.5552 43.9506 44.8176C45.4555 49.1916 47.6709 53.4974 50.9078 56.583C44.5917 55.2242 39.1123 51.9245 35.662 47.303ZM37.6718 51.9687C37.6441 51.9696 37.6167 51.9706 37.5891 51.9714C37.5902 51.9441 37.5907 51.9224 37.5918 51.8954C37.6185 51.9197 37.645 51.9446 37.6718 51.9687ZM34.6112 45.7395C32.4442 42.1937 30.4329 36.7175 29.8901 31.5317C33.4926 30.5535 37.1802 29.9181 40.8703 29.5578C41.0933 32.3005 41.7134 37.5902 43.3837 43.0915C40.3283 43.8812 37.3841 44.8346 34.6112 45.7395ZM53.3306 41.3974C50.5635 41.5705 47.8293 42.0442 45.1621 42.6631C43.8204 38.3356 43.0204 33.6898 42.6754 29.422C51.5483 28.7424 61.4594 29.317 70.3473 29.8892C69.9971 33.8693 69.2519 38.1479 68.0454 42.18C63.2823 41.6439 57.8147 41.1202 53.3306 41.3974ZM42.5519 27.6154C42.2454 22.1176 42.6922 18.3895 43.8367 15.2557C55.0377 17.369 62.6163 16.6365 69.1507 15.0246C70.7131 19.3303 70.7334 24.0998 70.4839 28.0818C61.4325 27.4987 51.4999 26.9322 42.5519 27.6154ZM55.2604 1.81931C56.0938 1.83148 56.9717 1.87473 57.8782 1.9473C57.9607 2.04851 58.0607 2.137 58.1866 2.1964C62.3327 4.15694 66.4367 9.19279 68.4266 13.3339C62.9458 14.66 56.1983 15.6624 44.5534 13.5404C45.3108 11.9472 46.2636 10.457 47.4127 8.88727C52.0715 2.52283 54.7616 2.69328 55.2604 1.81931ZM51.4958 2.05857C47.9993 4.47352 44.3097 9.66877 42.7339 13.178C40.2848 12.6491 37.9759 11.9616 36.0324 11.0975C40.2054 6.20608 46.1381 3.01893 51.4958 2.05857ZM34.8744 12.5594C36.9714 13.5468 39.4489 14.3097 42.0543 14.8892C40.902 18.1858 40.4384 22.1228 40.7505 27.7503C37.0659 28.1074 33.3758 28.7386 29.7545 29.6982C29.481 23.4929 31.0832 17.7047 34.8744 12.5594ZM28.9481 36.6784C29.5432 39.1983 30.3655 41.4959 31.3848 43.5748C30.2618 43.4967 29.1104 43.4036 27.8083 43.2971C27.6325 41.0949 27.4489 38.8952 27.2499 36.704C27.7934 36.6936 28.3782 36.6866 28.9481 36.6784ZM18.5933 36.9993C20.6092 36.8779 23.2891 36.7877 26.3448 36.7228C26.5412 38.8834 26.7215 41.0526 26.8954 43.2241C24.405 43.0319 21.8694 42.9039 19.3426 43.0627C19.064 40.6967 18.8194 38.6962 18.5933 36.9993ZM19.4484 43.9657C21.9492 43.8117 24.4819 43.9456 26.9729 44.14C27.1827 46.8099 27.376 49.4851 27.551 52.1618C25.1583 52.1683 22.7657 52.1415 20.3803 52.0482C20.0981 49.5868 19.7384 46.4452 19.4484 43.9657ZM22.1888 67.5553C21.5184 61.9145 20.9589 57.0848 20.4844 52.9537C23.725 53.0754 25.4012 53.0823 27.6059 53.0754C27.7535 55.3837 27.8919 57.6922 28.0133 59.998C21.5244 60.1731 21.5208 60.017 21.538 60.6294C21.563 61.3249 21.901 61.0695 28.0568 60.9038C28.1722 63.1587 28.2771 65.411 28.367 67.6566C26.3049 67.6296 24.2406 67.6136 22.1888 67.5553ZM35.9911 67.6869C33.7485 67.6997 31.5168 67.6957 29.2725 67.6714C29.1824 65.4128 29.0767 63.1473 28.9607 60.8794C31.3931 60.816 33.8228 60.7551 36.2543 60.7085C35.9322 67.9902 35.8145 67.3815 35.9911 67.6869ZM36.3013 59.801C33.8396 59.8481 31.38 59.9093 28.9175 59.9735C28.7964 57.6716 28.6579 55.3668 28.5107 53.0622C31.237 53.0434 33.9472 52.9869 36.6435 52.9034C36.5591 54.7964 36.4443 57.045 36.3013 59.801ZM36.6836 52.0019C33.9584 52.0868 31.2109 52.1393 28.457 52.1579C28.2838 49.5073 28.0931 46.8575 27.8859 44.213C29.3619 44.3344 30.6267 44.4359 31.8645 44.5163C33.2171 47.0425 34.8514 49.2412 36.7183 51.0946C36.7074 51.3908 36.697 51.6833 36.6836 52.0019ZM44.153 67.5765C40.6815 67.6772 41.5865 67.6432 36.7257 67.6795C36.9016 67.367 36.7245 68.2175 37.1589 60.6942C39.5225 60.6508 41.8856 60.6099 44.2451 60.5825L44.153 67.5765ZM44.257 59.6756C41.9092 59.7029 39.5579 59.7438 37.206 59.7868C37.3495 57.0258 37.4645 54.7714 37.5489 52.8742C37.923 52.8621 38.2958 52.8502 38.6694 52.8381C40.4173 54.2613 42.3075 55.4432 44.3004 56.3762L44.257 59.6756ZM52.2851 67.1929C49.9042 67.3375 47.495 67.4571 45.0568 67.5408L45.1485 60.5683C47.7586 60.5402 50.357 60.5345 52.9579 60.5259C52.7801 62.7537 52.5557 64.9768 52.2851 67.1929ZM53.0344 59.6192C50.4122 59.6275 47.7923 59.6333 45.1604 59.6615L45.1987 56.7583C47.7177 57.8325 50.3694 58.5473 53.0717 58.8881C53.0614 59.1319 53.0523 59.3759 53.0344 59.6192ZM53.1982 67.1385C53.4643 64.9388 53.6903 62.7332 53.8656 60.522C56.2245 60.5163 58.5758 60.5176 60.9235 60.5282C60.6004 63.4284 60.2853 65.0598 59.7875 66.7444C58.2065 66.8339 53.3828 67.127 53.1982 67.1385ZM66.6851 66.4424C64.6895 66.4931 62.7071 66.5816 60.7458 66.687C61.2125 65.0411 61.5183 63.3798 61.832 60.5346C64.0686 60.5466 66.308 60.5554 68.5315 60.5822C68.0478 62.5735 67.4566 64.5375 66.6851 66.4424ZM68.7416 59.6775C66.4811 59.6498 64.2029 59.6415 61.9283 59.629C61.9571 59.3475 61.9867 59.034 62.0163 58.7281C64.5479 58.3185 67.0152 57.5879 69.3524 56.5758C69.1672 57.6128 68.9735 58.649 68.7416 59.6775ZM61.773 56.9608C65.3872 53.7116 67.7614 48.943 69.3262 44.1797C72.5252 44.6278 75.5274 45.4365 78.8789 47.0635C74.8943 52.4495 68.8714 55.9434 61.773 56.9608ZM81.3908 42.8797C80.9517 43.8124 80.4502 44.6961 79.9131 45.549C76.4282 43.8219 73.2176 42.9197 69.8694 42.4268C71.3095 37.4496 71.9162 32.718 72.1577 29.9914C76.2883 30.2736 80.4085 30.6111 84.5002 31.0023C83.9144 35.0151 83.1225 39.2 81.3908 42.8797ZM84.7294 29.2035C80.6052 28.8085 76.4515 28.4683 72.2881 28.1836C72.5447 24.0657 72.5096 19.131 70.8964 14.5725C73.4236 13.8865 75.868 13.1063 78.1888 12.3496C83.0942 18.7537 85.4305 22.6199 84.7294 29.2035Z" fill="#EB7AA5"/>
<path d="M102.958 46.1479C103.069 44.9126 103.452 43.6773 104.105 42.442C104.758 41.2067 105.532 40.196 106.427 39.4099C110.419 41.8431 114.206 43.0597 117.787 43.0597C119.354 43.0597 120.502 42.704 121.229 41.9928C121.957 41.2816 122.32 40.4019 122.32 39.3537C122.32 37.5944 121.145 36.2093 118.795 35.1986L112.191 32.3911C109.617 31.2307 107.64 29.8363 106.259 28.2079C104.879 26.5795 104.189 24.5113 104.189 22.0033C104.189 20.2813 104.534 18.7091 105.224 17.2867C105.914 15.8642 106.884 14.6289 108.134 13.5807C109.384 12.5326 110.867 11.7184 112.583 11.1382C114.299 10.558 116.202 10.2679 118.291 10.2679C122.47 10.2679 126.685 11.3347 130.939 13.4684C130.752 16.3508 129.745 18.5968 127.917 20.2065C124.111 18.3722 120.753 17.4551 117.843 17.4551C116.351 17.4551 115.232 17.792 114.486 18.4658C113.74 19.1396 113.366 19.907 113.366 20.768C113.366 22.2279 114.467 23.407 116.668 24.3055L123.384 27.1691C126.219 28.367 128.336 29.9018 129.735 31.7734C131.134 33.6451 131.834 35.8163 131.834 38.2869C131.834 40.0463 131.517 41.6559 130.883 43.1158C130.248 44.5757 129.306 45.8391 128.057 46.906C126.807 47.9728 125.249 48.8057 123.384 49.4047C121.518 50.0036 119.336 50.3031 116.836 50.3031C111.986 50.3031 107.36 48.918 102.958 46.1479ZM160.487 30.9312V42.442C160.487 44.9501 160.953 46.803 161.886 48.0009C160.468 49.2736 158.752 49.91 156.737 49.91C154.797 49.91 153.473 49.4608 152.764 48.5624C152.055 47.664 151.7 46.2977 151.7 44.4634V32.5034C151.7 31.2307 151.533 30.2948 151.197 29.6959C150.861 29.0969 150.208 28.7975 149.238 28.7975C148.679 28.7975 148.044 28.9472 147.335 29.2467C146.627 29.5462 145.899 30.0328 145.153 30.7066V49.4608C143.922 49.6854 142.504 49.7977 140.9 49.7977C139.296 49.7977 137.878 49.6854 136.647 49.4608V8.52721L137.038 8.13416H140.396C142.187 8.13416 143.427 8.52721 144.118 9.31331C144.808 10.0994 145.153 11.4657 145.153 13.4123V24.0247C147.653 21.9659 150.152 20.9364 152.652 20.9364C155.151 20.9364 157.082 21.8442 158.444 23.6597C159.806 25.4753 160.487 27.8991 160.487 30.9312ZM187.18 23.9124C189.867 26.6076 191.21 30.4633 191.21 35.4794C191.21 37.7254 190.921 39.7655 190.342 41.5998C189.764 43.434 188.925 44.9969 187.824 46.2883C186.723 47.5798 185.371 48.5718 183.767 49.2643C182.163 49.9568 180.316 50.3031 178.227 50.3031C176.137 50.3031 174.3 49.9474 172.714 49.2362C171.129 48.525 169.786 47.5236 168.685 46.2322C167.584 44.9407 166.754 43.3779 166.195 41.5436C165.635 39.7094 165.355 37.688 165.355 35.4794C165.355 33.2334 165.635 31.2026 166.195 29.3871C166.754 27.5715 167.575 26.0087 168.657 24.6985C169.739 23.3883 171.082 22.3776 172.686 21.6664C174.291 20.9552 176.137 20.5995 178.227 20.5995C181.92 20.5995 184.905 21.7038 187.18 23.9124ZM178.282 27.1691C177.462 27.1691 176.799 27.3656 176.296 27.7587C175.792 28.1518 175.391 28.6852 175.093 29.359C174.794 30.0328 174.589 30.8095 174.477 31.6892C174.365 32.5689 174.309 33.5141 174.309 34.5248C174.309 36.097 174.356 37.454 174.449 38.5957C174.542 39.7374 174.729 40.692 175.009 41.4594C175.289 42.2268 175.68 42.7976 176.184 43.172C176.688 43.5463 177.35 43.7335 178.171 43.7335C179.812 43.7335 180.894 43.0129 181.416 41.5717C181.939 40.1305 182.2 38.081 182.2 35.4232C182.2 32.728 181.939 30.6785 181.416 29.2748C180.894 27.871 179.849 27.1691 178.282 27.1691ZM209.957 50.0223C208.241 50.0223 206.525 49.6293 204.809 48.8432V56.3111C204.809 58.2577 204.454 59.624 203.745 60.4101C203.036 61.1962 201.787 61.5893 199.996 61.5893H196.638L196.246 61.1962V21.4418L196.638 21.0487H198.932C201.059 21.0487 202.645 21.9659 203.689 23.8001C205.816 21.6664 208.409 20.5995 211.468 20.5995C213.035 20.5995 214.415 20.9458 215.609 21.6383C216.803 22.3308 217.82 23.3135 218.659 24.5862C219.499 25.8589 220.133 27.3937 220.562 29.1905C220.991 30.9873 221.205 33.0088 221.205 35.2548C221.205 37.5008 220.916 39.5409 220.338 41.3752C219.76 43.2094 218.967 44.7629 217.96 46.0356C216.952 47.3084 215.768 48.291 214.406 48.9835C213.044 49.676 211.561 50.0223 209.957 50.0223ZM208.894 27.6183C207.327 27.6183 205.965 28.367 204.809 29.8643V42.2174C206.226 43.0784 207.439 43.5089 208.446 43.5089C210.983 43.5089 212.251 40.6826 212.251 35.0302C212.251 30.0889 211.132 27.6183 208.894 27.6183ZM240.624 37.4446H236.203V49.4608C235.009 49.6854 233.517 49.7977 231.726 49.7977C229.898 49.7977 228.406 49.6854 227.249 49.4608V11.3909L227.641 10.9978C230.887 10.923 233.582 10.8668 235.728 10.8294C237.873 10.7919 239.505 10.7732 240.624 10.7732C242.676 10.7732 244.551 11.054 246.248 11.6155C247.946 12.177 249.392 13.0192 250.586 14.1422C251.779 15.2652 252.703 16.6596 253.356 18.3254C254.009 19.9912 254.335 21.9097 254.335 24.0809C254.335 26.252 253.999 28.1705 253.328 29.8363C252.656 31.5021 251.723 32.8965 250.53 34.0195C249.336 35.1425 247.89 35.9941 246.192 36.5743C244.495 37.1545 242.639 37.4446 240.624 37.4446ZM236.203 17.6236V30.7066C237.248 30.6692 238.078 30.6411 238.694 30.6224C239.309 30.6037 239.71 30.5943 239.897 30.5943C240.904 30.5943 241.743 30.4165 242.415 30.0609C243.087 29.7052 243.628 29.2373 244.038 28.6571C244.448 28.0769 244.747 27.3937 244.933 26.6076C245.12 25.8215 245.213 24.998 245.213 24.137C245.213 23.3135 245.12 22.5086 244.933 21.7225C244.747 20.9364 244.458 20.2439 244.066 19.645C243.674 19.046 243.161 18.5688 242.527 18.2131C241.893 17.8575 241.147 17.6797 240.288 17.6797H237.994C237.994 17.6797 237.397 17.661 236.203 17.6236ZM281.924 45.418C281.738 46.2041 281.383 47.0463 280.861 47.9447C280.339 48.8431 279.798 49.4982 279.238 49.91C276.627 49.8351 274.612 48.8432 273.194 46.934C270.769 49.1801 268.139 50.3031 265.304 50.3031C263.849 50.3031 262.58 50.0691 261.498 49.6012C260.416 49.1333 259.502 48.5062 258.756 47.7201C258.01 46.934 257.45 46.0263 257.077 44.9969C256.704 43.9674 256.517 42.8912 256.517 41.7682C256.517 40.1586 256.807 38.7454 257.385 37.5289C257.963 36.3123 258.756 35.3016 259.763 34.4967C260.771 33.6919 261.946 33.0836 263.289 32.6719C264.632 32.2601 266.068 32.0542 267.598 32.0542C268.456 32.0542 269.212 32.0636 269.864 32.0823C270.517 32.101 271.086 32.1291 271.571 32.1665V31.0996C271.571 28.7413 270.359 27.5622 267.934 27.5622C266.367 27.5622 263.625 28.1611 259.707 29.359C258.588 28.0488 257.879 26.0087 257.581 23.2386C258.476 22.9017 259.474 22.5835 260.575 22.284C261.675 21.9846 262.804 21.7225 263.96 21.4979C265.117 21.2733 266.255 21.0955 267.374 20.9645C268.493 20.8335 269.501 20.768 270.396 20.768C271.702 20.768 272.961 20.9551 274.174 21.3295C275.386 21.7038 276.449 22.2747 277.363 23.0421C278.277 23.8095 279.005 24.8014 279.546 26.018C280.087 27.2346 280.357 28.6852 280.357 30.3697V41.7682C280.357 43.4902 280.88 44.7067 281.924 45.418ZM265.024 41.2067C265.024 42.9661 266.031 43.8458 268.046 43.8458C269.09 43.8458 270.266 43.303 271.571 42.2174V37.7254C270.825 37.6879 270.2 37.6599 269.697 37.6412C269.193 37.6224 268.81 37.6131 268.549 37.6131C266.199 37.6131 265.024 38.811 265.024 41.2067ZM297.818 43.0597H299.328C299.776 44.295 300 45.5303 300 46.7656C300 48.0009 299.944 48.8057 299.832 49.1801C297.594 49.5544 295.598 49.7416 293.844 49.7416C291.307 49.7416 289.507 49.1145 288.444 47.8605C287.381 46.6065 286.849 44.6319 286.849 41.9367V8.52721L287.185 8.13416H290.598C292.352 8.13416 293.583 8.52721 294.292 9.31331C295.001 10.0994 295.355 11.4657 295.355 13.4123V40.4206C295.355 42.18 296.176 43.0597 297.818 43.0597Z" fill="#455AD3"/>
<path d="M123.658 79.0853C122.168 79.0853 121.004 78.3666 120.793 77.0596L122.283 76.7171C122.379 77.4985 122.951 77.9036 123.715 77.9036C124.302 77.9036 124.768 77.6431 124.763 77.0547C124.758 76.3988 123.989 76.1914 123.143 75.9309C122.124 75.6126 121.033 75.2364 121.033 73.9535C121.033 72.6561 122.091 71.923 123.485 71.923C124.706 71.923 125.936 72.4198 126.215 73.7557L124.821 74.103C124.691 73.4085 124.225 73.1046 123.571 73.1046C122.99 73.1046 122.494 73.3458 122.494 73.9197C122.494 74.4551 123.177 74.6335 123.965 74.8699C125.013 75.1882 126.253 75.5933 126.253 76.9823C126.253 78.463 125.018 79.0853 123.658 79.0853ZM131.102 73.9345C132.208 73.9345 132.871 74.5518 132.871 75.7913V78.989H131.482V76.018C131.482 75.2898 131.078 75.0486 130.583 75.0486C130.069 75.0486 129.506 75.3042 129.497 76.2544V78.989H128.112V71.5808H129.497V74.6242C129.848 74.1949 130.4 73.9345 131.102 73.9345ZM137.215 79.0853C135.643 79.0853 134.509 78.1255 134.509 76.505C134.509 74.8941 135.634 73.9343 137.215 73.9343C138.806 73.9343 139.926 74.8941 139.926 76.505C139.926 78.1255 138.802 79.0853 137.215 79.0853ZM137.201 77.9808C138.004 77.9808 138.552 77.3924 138.552 76.5049C138.552 75.6175 138.004 75.0291 137.201 75.0291C136.427 75.0291 135.884 75.6175 135.884 76.5049C135.884 77.3924 136.427 77.9808 137.201 77.9808ZM144.564 73.9345C145.867 73.9345 146.943 74.8943 146.943 76.5196C146.943 78.145 145.867 79.1048 144.564 79.1048C143.92 79.1048 143.343 78.854 143.05 78.4006V81.4005H141.665V74.0309H142.978L143.016 74.6965C143.29 74.2045 143.891 73.9345 144.564 73.9345ZM144.251 77.9519C144.977 77.9519 145.559 77.4213 145.559 76.5194C145.559 75.6175 144.977 75.087 144.251 75.087C143.511 75.087 142.934 75.6513 142.934 76.5194C142.934 77.3876 143.511 77.9519 144.251 77.9519ZM154.454 79.0853C152.964 79.0853 151.801 78.3666 151.589 77.0596L153.079 76.7171C153.175 77.4985 153.747 77.9036 154.512 77.9036C155.098 77.9036 155.564 77.6431 155.56 77.0547C155.555 76.3988 154.786 76.1914 153.94 75.9309C152.921 75.6126 151.829 75.2364 151.829 73.9535C151.829 72.6561 152.887 71.923 154.281 71.923C155.502 71.923 156.732 72.4198 157.011 73.7557L155.617 74.103C155.488 73.4085 155.021 73.1046 154.368 73.1046C153.786 73.1046 153.291 73.3458 153.291 73.9197C153.291 74.4551 153.973 74.6335 154.762 74.8699C155.81 75.1882 157.05 75.5933 157.05 76.9823C157.05 78.463 155.814 79.0853 154.454 79.0853ZM164.764 73.9345C165.821 73.9345 166.504 74.4747 166.504 75.4923V78.989H165.119V75.8878C165.119 75.3042 164.754 75.0486 164.341 75.0486C163.846 75.0486 163.408 75.3332 163.408 76.1917V78.9891H162.009V75.9023C162.009 75.3091 161.654 75.0486 161.216 75.0486C160.736 75.0486 160.289 75.3332 160.289 76.264V78.9891H158.909V74.031H160.289V74.6146C160.615 74.1757 161.115 73.9345 161.721 73.9345C162.437 73.9345 162.976 74.1949 163.235 74.6772C163.581 74.1805 164.11 73.9345 164.764 73.9345ZM172.612 77.6432C172.612 78.2509 172.67 78.6367 172.732 78.8538V78.9888H171.439L171.328 78.4486C170.958 78.8972 170.319 79.0853 169.742 79.0853C168.963 79.0853 168.204 78.738 168.204 77.7059C168.204 76.6786 168.968 76.3313 170.002 76.1046L170.814 75.9214C171.165 75.8394 171.29 75.7188 171.29 75.5162C171.29 75.0291 170.848 74.894 170.458 74.894C169.958 74.894 169.579 75.0918 169.492 75.6512L168.266 75.4294C168.473 74.4021 169.223 73.9343 170.535 73.9343C171.525 73.9343 172.612 74.2285 172.612 75.7236L172.612 77.6432ZM170.175 78.1448C170.833 78.1448 171.362 77.7059 171.362 76.722L170.189 77.0547C169.805 77.1464 169.526 77.2814 169.526 77.6142C169.526 77.9711 169.819 78.1448 170.175 78.1448ZM175.995 74.8169C176.245 74.378 176.894 73.9728 177.61 73.9728V75.2124C176.562 75.2124 176.062 75.521 176.062 76.5725V78.9888H174.668V74.0308H175.995L175.995 74.8169ZM180.973 78.9888C180.012 78.9888 179.464 78.4293 179.464 77.4406V75.0966H178.493V74.0307H178.806C179.33 74.0307 179.618 73.8281 179.618 73.0854V72.4295H180.868V74.0307H181.887V75.0966H180.868V77.2911C180.868 77.7348 181.084 77.9326 181.44 77.9326H181.887V78.9888H180.973ZM188.317 76.4374L188.303 76.7702H184.64C184.697 77.595 185.245 77.9905 185.904 77.9905C186.399 77.9905 186.784 77.7589 186.971 77.3201L188.24 77.5082C187.913 78.5114 187.024 79.0853 185.914 79.0853C184.318 79.0853 183.275 78.14 183.275 76.5098C183.275 74.8797 184.346 73.9247 185.87 73.9247C187.269 73.9247 188.312 74.7012 188.317 76.4374ZM185.88 74.9085C185.25 74.9085 184.813 75.2027 184.678 75.8635H186.947C186.875 75.2317 186.447 74.9085 185.88 74.9085ZM191.407 74.8169C191.657 74.378 192.306 73.9728 193.022 73.9728V75.2124C191.974 75.2124 191.474 75.521 191.474 76.5725V78.9888H190.08V74.0308H191.407L191.407 74.8169ZM195.515 80.7637H194.525L195.126 77.6095H196.549L195.515 80.7637ZM204.242 79.0853C202.752 79.0853 201.589 78.3666 201.377 77.0596L202.868 76.7171C202.964 77.4985 203.536 77.9036 204.3 77.9036C204.886 77.9036 205.353 77.6431 205.348 77.0547C205.343 76.3988 204.574 76.1914 203.728 75.9309C202.709 75.6126 201.618 75.2364 201.618 73.9535C201.618 72.6561 202.675 71.923 204.069 71.923C205.29 71.923 206.521 72.4198 206.8 73.7557L205.406 74.103C205.276 73.4085 204.81 73.1046 204.156 73.1046C203.574 73.1046 203.079 73.3458 203.079 73.9197C203.079 74.4551 203.762 74.6335 204.55 74.8699C205.598 75.1882 206.838 75.5933 206.838 76.9823C206.838 78.463 205.603 79.0853 204.242 79.0853ZM211.687 73.9345C212.793 73.9345 213.456 74.5518 213.456 75.7913V78.989H212.067V76.018C212.067 75.2898 211.663 75.0486 211.168 75.0486C210.653 75.0486 210.091 75.3042 210.081 76.2544V78.989H208.697V71.5808H210.081V74.6242C210.432 74.1949 210.985 73.9345 211.687 73.9345ZM217.8 79.0853C216.228 79.0853 215.094 78.1255 215.094 76.505C215.094 74.8941 216.219 73.9343 217.8 73.9343C219.391 73.9343 220.511 74.8941 220.511 76.505C220.511 78.1255 219.386 79.0853 217.8 79.0853ZM217.786 77.9808C218.588 77.9808 219.136 77.3924 219.136 76.5049C219.136 75.6175 218.588 75.0291 217.786 75.0291C217.012 75.0291 216.469 75.6175 216.469 76.5049C216.469 77.3924 217.012 77.9808 217.786 77.9808ZM225.149 73.9345C226.451 73.9345 227.528 74.8943 227.528 76.5196C227.528 78.145 226.451 79.1048 225.149 79.1048C224.504 79.1048 223.928 78.854 223.634 78.4006V81.4005H222.25V74.0309H223.562L223.601 74.6965C223.875 74.2045 224.476 73.9345 225.149 73.9345ZM224.836 77.9519C225.562 77.9519 226.144 77.4213 226.144 76.5194C226.144 75.6175 225.562 75.087 224.836 75.087C224.096 75.087 223.519 75.6513 223.519 76.5194C223.519 77.3876 224.096 77.9519 224.836 77.9519ZM235.039 79.0853C233.549 79.0853 232.385 78.3666 232.174 77.0596L233.664 76.7171C233.76 77.4985 234.332 77.9036 235.096 77.9036C235.683 77.9036 236.149 77.6431 236.144 77.0547C236.139 76.3988 235.37 76.1914 234.524 75.9309C233.505 75.6126 232.414 75.2364 232.414 73.9535C232.414 72.6561 233.472 71.923 234.866 71.923C236.087 71.923 237.317 72.4198 237.596 73.7557L236.202 74.103C236.072 73.4085 235.606 73.1046 234.952 73.1046C234.371 73.1046 233.875 73.3458 233.875 73.9197C233.875 74.4551 234.558 74.6335 235.346 74.8699C236.394 75.1882 237.634 75.5933 237.634 76.9823C237.634 78.463 236.399 79.0853 235.039 79.0853ZM242.483 73.9345C243.589 73.9345 244.252 74.5518 244.252 75.7913V78.989H242.863V76.018C242.863 75.2898 242.459 75.0486 241.964 75.0486C241.45 75.0486 240.887 75.3042 240.878 76.2544V78.989H239.493V71.5808H240.878V74.6242C241.229 74.1949 241.782 73.9345 242.483 73.9345ZM248.596 79.0853C247.025 79.0853 245.89 78.1255 245.89 76.505C245.89 74.8941 247.015 73.9343 248.596 73.9343C250.188 73.9343 251.308 74.8941 251.308 76.505C251.308 78.1255 250.183 79.0853 248.596 79.0853ZM248.582 77.9808C249.385 77.9808 249.933 77.3924 249.933 76.5049C249.933 75.6175 249.385 75.0291 248.582 75.0291C247.808 75.0291 247.265 75.6175 247.265 76.5049C247.265 77.3924 247.808 77.9808 248.582 77.9808ZM255.945 73.9345C257.248 73.9345 258.324 74.8943 258.324 76.5196C258.324 78.145 257.248 79.1048 255.945 79.1048C255.301 79.1048 254.724 78.854 254.431 78.4006V81.4005H253.046V74.0309H254.359L254.397 74.6965C254.671 74.2045 255.272 73.9345 255.945 73.9345ZM255.633 77.9519C256.358 77.9519 256.94 77.4213 256.94 76.5194C256.94 75.6175 256.358 75.087 255.633 75.087C254.892 75.087 254.315 75.6513 254.315 76.5194C254.315 77.3876 254.892 77.9519 255.633 77.9519ZM263.149 72.0197C264.51 72.0197 265.356 73.0325 265.356 74.272C265.356 75.5405 264.51 76.4906 263.149 76.4906H261.702V78.989H260.26V72.0198L263.149 72.0197ZM262.909 75.2799C263.63 75.2799 263.966 74.8796 263.966 74.2526C263.966 73.6497 263.63 73.2301 262.909 73.2301H261.702V75.2799H262.909ZM271.147 77.6432C271.147 78.2509 271.204 78.6367 271.267 78.8538V78.9888H269.974L269.863 78.4486C269.493 78.8972 268.854 79.0853 268.277 79.0853C267.498 79.0853 266.739 78.738 266.739 77.7059C266.739 76.6786 267.503 76.3313 268.536 76.1046L269.349 75.9214C269.7 75.8394 269.825 75.7188 269.825 75.5162C269.825 75.0291 269.382 74.894 268.993 74.894C268.493 74.894 268.113 75.0918 268.027 75.6512L266.801 75.4294C267.008 74.4021 267.758 73.9343 269.07 73.9343C270.06 73.9343 271.147 74.2285 271.147 75.7236L271.147 77.6432ZM268.71 78.1448C269.368 78.1448 269.897 77.7059 269.897 76.722L268.724 77.0547C268.339 77.1464 268.061 77.2814 268.061 77.6142C268.061 77.9711 268.354 78.1448 268.71 78.1448ZM273.203 78.9888V71.5806H274.602V78.9888H273.203ZM277.071 76.7654L276.932 72.0195H278.326L278.186 76.7654H277.071ZM277.629 79.0853C277.196 79.0853 276.84 78.7284 276.84 78.2943C276.84 77.8506 277.196 77.4936 277.629 77.4936C278.071 77.4936 278.427 77.8506 278.427 78.2943C278.427 78.7283 278.071 79.0853 277.629 79.0853Z" fill="#E79F5F"/>
</g>
<defs>
<clipPath id="clip0_280_6">
<rect width="300" height="87" fill="white"/>
</clipPath>
</defs>
</svg>
